<svg width="49" height="52" viewBox="0 0 49 52" fill="none" xmlns="http://www.w3.org/2000/svg">
<g clip-path="url(#clip0)">
<path d="M49 12.6842L39.625 3.38232L24.5 18.3894L9.375 3.38232L0 12.6842L15.125 27.6913L0 42.6983L9.375 52.0002L24.5 36.9932L39.625 52.0002L49 42.6983L33.875 27.6913L49 12.6842Z" fill="#45ABF4"/>
<path d="M32.8185 24.528L46.8703 38.4703L39.625 45.6591L25.5565 31.7003L24.5 30.6521L23.4435 31.7003L9.375 45.6591L2.12967 38.4703L16.1815 24.528L17.2547 23.4632L16.1815 22.3984L2.12967 8.45619L9.375 1.26736L23.4435 15.2262L24.5 16.2744L25.5565 15.2262L39.625 1.26736L46.8703 8.45619L32.8185 22.3984L31.7453 23.4632L32.8185 24.528Z" stroke="#121212" stroke-width="3"/>
</g>
<defs>
<clipPath id="clip0">
<rect width="49" height="52" fill="white"/>
</clipPath>
</defs>
</svg>
