<svg width="167" height="49" viewBox="0 0 167 49" fill="none" xmlns="http://www.w3.org/2000/svg">
<path d="M0.847412 4.07275C14.6231 4.07275 14.6231 17.2939 28.3987 17.2939C42.1743 17.2939 42.1743 4.07275 55.95 4.07275C69.7256 4.07275 69.7256 17.2939 83.5013 17.2939C97.2769 17.2939 97.2769 4.07275 111.053 4.07275C124.828 4.07275 124.828 17.2939 138.604 17.2939C152.379 17.2939 152.379 4.07275 166.155 4.07275" stroke="#45ABF4" stroke-width="8" stroke-miterlimit="10"/>
<path d="M0.847412 31.4683C14.6231 31.4683 14.6231 44.6894 28.3987 44.6894C42.1743 44.6894 42.1743 31.4683 55.95 31.4683C69.7256 31.4683 69.7256 44.6894 83.5013 44.6894C97.2769 44.6894 97.2769 31.4683 111.053 31.4683C124.828 31.4683 124.828 44.6894 138.604 44.6894C152.379 44.6894 152.379 31.4683 166.155 31.4683" stroke="#45ABF4" stroke-width="8" stroke-miterlimit="10"/>
</svg>
