<svg width="91" height="141" viewBox="0 0 91 141" fill="none" xmlns="http://www.w3.org/2000/svg">
<path d="M1.65927 3.11004C2.57606 3.11004 3.31927 2.36683 3.31927 1.45004C3.31927 0.533246 2.57606 -0.209961 1.65927 -0.209961C0.742475 -0.209961 -0.000732422 0.533246 -0.000732422 1.45004C-0.000732422 2.36683 0.742475 3.11004 1.65927 3.11004Z" fill="#121212"/>
<path d="M13.0392 1.45004C13.0392 2.37004 12.2992 3.11004 11.3792 3.11004C10.4592 3.11004 9.71924 2.37004 9.71924 1.45004C9.71924 0.530039 10.4592 -0.209961 11.3792 -0.209961C12.2992 -0.199961 13.0392 0.540039 13.0392 1.45004Z" fill="#121212"/>
<path d="M22.7692 1.45004C22.7692 2.37004 22.0292 3.11004 21.1092 3.11004C20.1892 3.11004 19.4492 2.37004 19.4492 1.45004C19.4492 0.530039 20.1892 -0.209961 21.1092 -0.209961C22.0292 -0.199961 22.7692 0.540039 22.7692 1.45004Z" fill="#121212"/>
<path d="M30.8392 3.11004C31.756 3.11004 32.4992 2.36683 32.4992 1.45004C32.4992 0.533246 31.756 -0.209961 30.8392 -0.209961C29.9224 -0.209961 29.1792 0.533246 29.1792 1.45004C29.1792 2.36683 29.9224 3.11004 30.8392 3.11004Z" fill="#121212"/>
<path d="M42.2292 1.45004C42.2292 2.37004 41.4892 3.11004 40.5692 3.11004C39.6492 3.11004 38.9092 2.37004 38.9092 1.45004C38.9092 0.530039 39.6492 -0.209961 40.5692 -0.209961C41.4892 -0.199961 42.2292 0.540039 42.2292 1.45004Z" fill="#121212"/>
<path d="M51.9592 1.45004C51.9592 2.37004 51.2192 3.11004 50.2992 3.11004C49.3792 3.11004 48.6392 2.37004 48.6392 1.45004C48.6392 0.530039 49.3792 -0.209961 50.2992 -0.209961C51.2192 -0.209961 51.9592 0.540039 51.9592 1.45004Z" fill="#121212"/>
<path d="M60.0294 3.11004C60.9462 3.11004 61.6894 2.36683 61.6894 1.45004C61.6894 0.533246 60.9462 -0.209961 60.0294 -0.209961C59.1126 -0.209961 58.3694 0.533246 58.3694 1.45004C58.3694 2.36683 59.1126 3.11004 60.0294 3.11004Z" fill="#121212"/>
<path d="M69.7594 3.11004C70.6762 3.11004 71.4194 2.36683 71.4194 1.45004C71.4194 0.533246 70.6762 -0.209961 69.7594 -0.209961C68.8426 -0.209961 68.0994 0.533246 68.0994 1.45004C68.0994 2.36683 68.8426 3.11004 69.7594 3.11004Z" fill="#121212"/>
<path d="M81.1393 1.45004C81.1393 2.37004 80.3993 3.11004 79.4793 3.11004C78.5593 3.11004 77.8193 2.37004 77.8193 1.45004C77.8193 0.530039 78.5593 -0.209961 79.4793 -0.209961C80.3993 -0.199961 81.1393 0.540039 81.1393 1.45004Z" fill="#121212"/>
<path d="M89.2093 3.11004C90.1261 3.11004 90.8693 2.36683 90.8693 1.45004C90.8693 0.533246 90.1261 -0.209961 89.2093 -0.209961C88.2925 -0.209961 87.5493 0.533246 87.5493 1.45004C87.5493 2.36683 88.2925 3.11004 89.2093 3.11004Z" fill="#121212"/>
<path d="M1.65927 12.9098C2.57606 12.9098 3.31927 12.1666 3.31927 11.2498C3.31927 10.3331 2.57606 9.58984 1.65927 9.58984C0.742475 9.58984 -0.000732422 10.3331 -0.000732422 11.2498C-0.000732422 12.1666 0.742475 12.9098 1.65927 12.9098Z" fill="#121212"/>
<path d="M13.0392 11.2498C13.0392 12.1698 12.2992 12.9098 11.3792 12.9098C10.4592 12.9098 9.71924 12.1698 9.71924 11.2498C9.71924 10.3298 10.4592 9.58984 11.3792 9.58984C12.2992 9.58984 13.0392 10.3298 13.0392 11.2498Z" fill="#121212"/>
<path d="M22.7692 11.2498C22.7692 12.1698 22.0292 12.9098 21.1092 12.9098C20.1892 12.9098 19.4492 12.1698 19.4492 11.2498C19.4492 10.3298 20.1892 9.58984 21.1092 9.58984C22.0292 9.58984 22.7692 10.3298 22.7692 11.2498Z" fill="#121212"/>
<path d="M30.8392 12.9098C31.756 12.9098 32.4992 12.1666 32.4992 11.2498C32.4992 10.3331 31.756 9.58984 30.8392 9.58984C29.9224 9.58984 29.1792 10.3331 29.1792 11.2498C29.1792 12.1666 29.9224 12.9098 30.8392 12.9098Z" fill="#121212"/>
<path d="M42.2292 11.2498C42.2292 12.1698 41.4892 12.9098 40.5692 12.9098C39.6492 12.9098 38.9092 12.1698 38.9092 11.2498C38.9092 10.3298 39.6492 9.58984 40.5692 9.58984C41.4892 9.58984 42.2292 10.3298 42.2292 11.2498Z" fill="#121212"/>
<path d="M51.9592 11.2498C51.9592 12.1698 51.2192 12.9098 50.2992 12.9098C49.3792 12.9098 48.6392 12.1698 48.6392 11.2498C48.6392 10.3298 49.3792 9.58984 50.2992 9.58984C51.2192 9.58984 51.9592 10.3298 51.9592 11.2498Z" fill="#121212"/>
<path d="M60.0294 12.9098C60.9462 12.9098 61.6894 12.1666 61.6894 11.2498C61.6894 10.3331 60.9462 9.58984 60.0294 9.58984C59.1126 9.58984 58.3694 10.3331 58.3694 11.2498C58.3694 12.1666 59.1126 12.9098 60.0294 12.9098Z" fill="#121212"/>
<path d="M69.7594 12.9098C70.6762 12.9098 71.4194 12.1666 71.4194 11.2498C71.4194 10.3331 70.6762 9.58984 69.7594 9.58984C68.8426 9.58984 68.0994 10.3331 68.0994 11.2498C68.0994 12.1666 68.8426 12.9098 69.7594 12.9098Z" fill="#121212"/>
<path d="M81.1393 11.2498C81.1393 12.1698 80.3993 12.9098 79.4793 12.9098C78.5593 12.9098 77.8193 12.1698 77.8193 11.2498C77.8193 10.3298 78.5593 9.58984 79.4793 9.58984C80.3993 9.58984 81.1393 10.3298 81.1393 11.2498Z" fill="#121212"/>
<path d="M89.2093 12.9098C90.1261 12.9098 90.8693 12.1666 90.8693 11.2498C90.8693 10.3331 90.1261 9.58984 89.2093 9.58984C88.2925 9.58984 87.5493 10.3331 87.5493 11.2498C87.5493 12.1666 88.2925 12.9098 89.2093 12.9098Z" fill="#121212"/>
<path d="M1.65927 22.6999C2.57606 22.6999 3.31927 21.9567 3.31927 21.0399C3.31927 20.1231 2.57606 19.3799 1.65927 19.3799C0.742475 19.3799 -0.000732422 20.1231 -0.000732422 21.0399C-0.000732422 21.9567 0.742475 22.6999 1.65927 22.6999Z" fill="#121212"/>
<path d="M13.0392 21.0399C13.0392 21.9599 12.2992 22.6999 11.3792 22.6999C10.4592 22.6999 9.71924 21.9599 9.71924 21.0399C9.71924 20.1199 10.4592 19.3799 11.3792 19.3799C12.2992 19.3899 13.0392 20.1299 13.0392 21.0399Z" fill="#121212"/>
<path d="M22.7692 21.0399C22.7692 21.9599 22.0292 22.6999 21.1092 22.6999C20.1892 22.6999 19.4492 21.9599 19.4492 21.0399C19.4492 20.1199 20.1892 19.3799 21.1092 19.3799C22.0292 19.3899 22.7692 20.1299 22.7692 21.0399Z" fill="#121212"/>
<path d="M30.8392 22.6999C31.756 22.6999 32.4992 21.9567 32.4992 21.0399C32.4992 20.1231 31.756 19.3799 30.8392 19.3799C29.9224 19.3799 29.1792 20.1231 29.1792 21.0399C29.1792 21.9567 29.9224 22.6999 30.8392 22.6999Z" fill="#121212"/>
<path d="M42.2292 21.0399C42.2292 21.9599 41.4892 22.6999 40.5692 22.6999C39.6492 22.6999 38.9092 21.9599 38.9092 21.0399C38.9092 20.1199 39.6492 19.3799 40.5692 19.3799C41.4892 19.3899 42.2292 20.1299 42.2292 21.0399Z" fill="#121212"/>
<path d="M51.9592 21.0399C51.9592 21.9599 51.2192 22.6999 50.2992 22.6999C49.3792 22.6999 48.6392 21.9599 48.6392 21.0399C48.6392 20.1199 49.3792 19.3799 50.2992 19.3799C51.2192 19.3799 51.9592 20.1299 51.9592 21.0399Z" fill="#121212"/>
<path d="M60.0294 22.6999C60.9462 22.6999 61.6894 21.9567 61.6894 21.0399C61.6894 20.1231 60.9462 19.3799 60.0294 19.3799C59.1126 19.3799 58.3694 20.1231 58.3694 21.0399C58.3694 21.9567 59.1126 22.6999 60.0294 22.6999Z" fill="#121212"/>
<path d="M69.7594 22.6999C70.6762 22.6999 71.4194 21.9567 71.4194 21.0399C71.4194 20.1231 70.6762 19.3799 69.7594 19.3799C68.8426 19.3799 68.0994 20.1231 68.0994 21.0399C68.0994 21.9567 68.8426 22.6999 69.7594 22.6999Z" fill="#121212"/>
<path d="M81.1393 21.0399C81.1393 21.9599 80.3993 22.6999 79.4793 22.6999C78.5593 22.6999 77.8193 21.9599 77.8193 21.0399C77.8193 20.1199 78.5593 19.3799 79.4793 19.3799C80.3993 19.3899 81.1393 20.1299 81.1393 21.0399Z" fill="#121212"/>
<path d="M89.2093 22.6999C90.1261 22.6999 90.8693 21.9567 90.8693 21.0399C90.8693 20.1231 90.1261 19.3799 89.2093 19.3799C88.2925 19.3799 87.5493 20.1231 87.5493 21.0399C87.5493 21.9567 88.2925 22.6999 89.2093 22.6999Z" fill="#121212"/>
<path d="M1.65927 32.5002C2.57606 32.5002 3.31927 31.757 3.31927 30.8402C3.31927 29.9234 2.57606 29.1802 1.65927 29.1802C0.742475 29.1802 -0.000732422 29.9234 -0.000732422 30.8402C-0.000732422 31.757 0.742475 32.5002 1.65927 32.5002Z" fill="#121212"/>
<path d="M13.0392 30.8402C13.0392 31.7602 12.2992 32.5002 11.3792 32.5002C10.4592 32.5002 9.71924 31.7602 9.71924 30.8402C9.71924 29.9202 10.4592 29.1802 11.3792 29.1802C12.2992 29.1802 13.0392 29.9202 13.0392 30.8402Z" fill="#121212"/>
<path d="M22.7692 30.8402C22.7692 31.7602 22.0292 32.5002 21.1092 32.5002C20.1892 32.5002 19.4492 31.7602 19.4492 30.8402C19.4492 29.9202 20.1892 29.1802 21.1092 29.1802C22.0292 29.1802 22.7692 29.9202 22.7692 30.8402Z" fill="#121212"/>
<path d="M30.8392 32.5002C31.756 32.5002 32.4992 31.757 32.4992 30.8402C32.4992 29.9234 31.756 29.1802 30.8392 29.1802C29.9224 29.1802 29.1792 29.9234 29.1792 30.8402C29.1792 31.757 29.9224 32.5002 30.8392 32.5002Z" fill="#121212"/>
<path d="M42.2292 30.8402C42.2292 31.7602 41.4892 32.5002 40.5692 32.5002C39.6492 32.5002 38.9092 31.7602 38.9092 30.8402C38.9092 29.9202 39.6492 29.1802 40.5692 29.1802C41.4892 29.1802 42.2292 29.9202 42.2292 30.8402Z" fill="#121212"/>
<path d="M51.9592 30.8402C51.9592 31.7602 51.2192 32.5002 50.2992 32.5002C49.3792 32.5002 48.6392 31.7602 48.6392 30.8402C48.6392 29.9202 49.3792 29.1802 50.2992 29.1802C51.2192 29.1802 51.9592 29.9202 51.9592 30.8402Z" fill="#121212"/>
<path d="M60.0294 32.5002C60.9462 32.5002 61.6894 31.757 61.6894 30.8402C61.6894 29.9234 60.9462 29.1802 60.0294 29.1802C59.1126 29.1802 58.3694 29.9234 58.3694 30.8402C58.3694 31.757 59.1126 32.5002 60.0294 32.5002Z" fill="#121212"/>
<path d="M69.7594 32.5002C70.6762 32.5002 71.4194 31.757 71.4194 30.8402C71.4194 29.9234 70.6762 29.1802 69.7594 29.1802C68.8426 29.1802 68.0994 29.9234 68.0994 30.8402C68.0994 31.757 68.8426 32.5002 69.7594 32.5002Z" fill="#121212"/>
<path d="M81.1393 30.8402C81.1393 31.7602 80.3993 32.5002 79.4793 32.5002C78.5593 32.5002 77.8193 31.7602 77.8193 30.8402C77.8193 29.9202 78.5593 29.1802 79.4793 29.1802C80.3993 29.1802 81.1393 29.9202 81.1393 30.8402Z" fill="#121212"/>
<path d="M89.2093 32.5002C90.1261 32.5002 90.8693 31.757 90.8693 30.8402C90.8693 29.9234 90.1261 29.1802 89.2093 29.1802C88.2925 29.1802 87.5493 29.9234 87.5493 30.8402C87.5493 31.757 88.2925 32.5002 89.2093 32.5002Z" fill="#121212"/>
<path d="M1.65927 42.2902C2.57606 42.2902 3.31927 41.547 3.31927 40.6302C3.31927 39.7134 2.57606 38.9702 1.65927 38.9702C0.742475 38.9702 -0.000732422 39.7134 -0.000732422 40.6302C-0.000732422 41.547 0.742475 42.2902 1.65927 42.2902Z" fill="#121212"/>
<path d="M13.0392 40.6302C13.0392 41.5502 12.2992 42.2902 11.3792 42.2902C10.4592 42.2902 9.71924 41.5502 9.71924 40.6302C9.71924 39.7102 10.4592 38.9702 11.3792 38.9702C12.2992 38.9802 13.0392 39.7202 13.0392 40.6302Z" fill="#121212"/>
<path d="M22.7692 40.6302C22.7692 41.5502 22.0292 42.2902 21.1092 42.2902C20.1892 42.2902 19.4492 41.5502 19.4492 40.6302C19.4492 39.7102 20.1892 38.9702 21.1092 38.9702C22.0292 38.9802 22.7692 39.7202 22.7692 40.6302Z" fill="#121212"/>
<path d="M30.8392 42.2902C31.756 42.2902 32.4992 41.547 32.4992 40.6302C32.4992 39.7134 31.756 38.9702 30.8392 38.9702C29.9224 38.9702 29.1792 39.7134 29.1792 40.6302C29.1792 41.547 29.9224 42.2902 30.8392 42.2902Z" fill="#121212"/>
<path d="M42.2292 40.6302C42.2292 41.5502 41.4892 42.2902 40.5692 42.2902C39.6492 42.2902 38.9092 41.5502 38.9092 40.6302C38.9092 39.7102 39.6492 38.9702 40.5692 38.9702C41.4892 38.9802 42.2292 39.7202 42.2292 40.6302Z" fill="#121212"/>
<path d="M51.9592 40.6302C51.9592 41.5502 51.2192 42.2902 50.2992 42.2902C49.3792 42.2902 48.6392 41.5502 48.6392 40.6302C48.6392 39.7102 49.3792 38.9702 50.2992 38.9702C51.2192 38.9702 51.9592 39.7202 51.9592 40.6302Z" fill="#121212"/>
<path d="M60.0294 42.2902C60.9462 42.2902 61.6894 41.547 61.6894 40.6302C61.6894 39.7134 60.9462 38.9702 60.0294 38.9702C59.1126 38.9702 58.3694 39.7134 58.3694 40.6302C58.3694 41.547 59.1126 42.2902 60.0294 42.2902Z" fill="#121212"/>
<path d="M69.7594 42.2902C70.6762 42.2902 71.4194 41.547 71.4194 40.6302C71.4194 39.7134 70.6762 38.9702 69.7594 38.9702C68.8426 38.9702 68.0994 39.7134 68.0994 40.6302C68.0994 41.547 68.8426 42.2902 69.7594 42.2902Z" fill="#121212"/>
<path d="M81.1393 40.6302C81.1393 41.5502 80.3993 42.2902 79.4793 42.2902C78.5593 42.2902 77.8193 41.5502 77.8193 40.6302C77.8193 39.7102 78.5593 38.9702 79.4793 38.9702C80.3993 38.9802 81.1393 39.7202 81.1393 40.6302Z" fill="#121212"/>
<path d="M89.2093 42.2902C90.1261 42.2902 90.8693 41.547 90.8693 40.6302C90.8693 39.7134 90.1261 38.9702 89.2093 38.9702C88.2925 38.9702 87.5493 39.7134 87.5493 40.6302C87.5493 41.547 88.2925 42.2902 89.2093 42.2902Z" fill="#121212"/>
<path d="M1.65927 52.09C2.57606 52.09 3.31927 51.3468 3.31927 50.43C3.31927 49.5132 2.57606 48.77 1.65927 48.77C0.742475 48.77 -0.000732422 49.5132 -0.000732422 50.43C-0.000732422 51.3468 0.742475 52.09 1.65927 52.09Z" fill="#121212"/>
<path d="M13.0392 50.43C13.0392 51.35 12.2992 52.09 11.3792 52.09C10.4592 52.09 9.71924 51.35 9.71924 50.43C9.71924 49.51 10.4592 48.77 11.3792 48.77C12.2992 48.77 13.0392 49.52 13.0392 50.43Z" fill="#121212"/>
<path d="M22.7692 50.43C22.7692 51.35 22.0292 52.09 21.1092 52.09C20.1892 52.09 19.4492 51.35 19.4492 50.43C19.4492 49.51 20.1892 48.77 21.1092 48.77C22.0292 48.77 22.7692 49.52 22.7692 50.43Z" fill="#121212"/>
<path d="M30.8392 52.09C31.756 52.09 32.4992 51.3468 32.4992 50.43C32.4992 49.5132 31.756 48.77 30.8392 48.77C29.9224 48.77 29.1792 49.5132 29.1792 50.43C29.1792 51.3468 29.9224 52.09 30.8392 52.09Z" fill="#121212"/>
<path d="M42.2292 50.43C42.2292 51.35 41.4892 52.09 40.5692 52.09C39.6492 52.09 38.9092 51.35 38.9092 50.43C38.9092 49.51 39.6492 48.77 40.5692 48.77C41.4892 48.77 42.2292 49.52 42.2292 50.43Z" fill="#121212"/>
<path d="M51.9592 50.43C51.9592 51.35 51.2192 52.09 50.2992 52.09C49.3792 52.09 48.6392 51.35 48.6392 50.43C48.6392 49.51 49.3792 48.77 50.2992 48.77C51.2192 48.77 51.9592 49.52 51.9592 50.43Z" fill="#121212"/>
<path d="M60.0294 52.09C60.9462 52.09 61.6894 51.3468 61.6894 50.43C61.6894 49.5132 60.9462 48.77 60.0294 48.77C59.1126 48.77 58.3694 49.5132 58.3694 50.43C58.3694 51.3468 59.1126 52.09 60.0294 52.09Z" fill="#121212"/>
<path d="M69.7594 52.09C70.6762 52.09 71.4194 51.3468 71.4194 50.43C71.4194 49.5132 70.6762 48.77 69.7594 48.77C68.8426 48.77 68.0994 49.5132 68.0994 50.43C68.0994 51.3468 68.8426 52.09 69.7594 52.09Z" fill="#121212"/>
<path d="M81.1393 50.43C81.1393 51.35 80.3993 52.09 79.4793 52.09C78.5593 52.09 77.8193 51.35 77.8193 50.43C77.8193 49.51 78.5593 48.77 79.4793 48.77C80.3993 48.77 81.1393 49.52 81.1393 50.43Z" fill="#121212"/>
<path d="M89.2093 52.09C90.1261 52.09 90.8693 51.3468 90.8693 50.43C90.8693 49.5132 90.1261 48.77 89.2093 48.77C88.2925 48.77 87.5493 49.5132 87.5493 50.43C87.5493 51.3468 88.2925 52.09 89.2093 52.09Z" fill="#121212"/>
<path d="M3.30927 60.2298C3.30927 61.1498 2.56927 61.8898 1.64927 61.8898C0.729268 61.8898 -0.000732422 61.1398 -0.000732422 60.2298C-0.000732422 59.3098 0.739268 58.5698 1.65927 58.5698C2.57927 58.5698 3.30927 59.3098 3.30927 60.2298Z" fill="#121212"/>
<path d="M13.0392 60.2298C13.0392 61.1498 12.2992 61.8898 11.3792 61.8898C10.4592 61.8898 9.71924 61.1498 9.71924 60.2298C9.71924 59.3098 10.4592 58.5698 11.3792 58.5698C12.2992 58.5698 13.0392 59.3098 13.0392 60.2298Z" fill="#121212"/>
<path d="M22.7692 60.2298C22.7692 61.1498 22.0292 61.8898 21.1092 61.8898C20.1892 61.8898 19.4492 61.1498 19.4492 60.2298C19.4492 59.3098 20.1892 58.5698 21.1092 58.5698C22.0292 58.5698 22.7692 59.3098 22.7692 60.2298Z" fill="#121212"/>
<path d="M32.4992 60.2298C32.4992 61.1498 31.7592 61.8898 30.8392 61.8898C29.9192 61.8898 29.1792 61.1498 29.1792 60.2298C29.1792 59.3098 29.9192 58.5698 30.8392 58.5698C31.7592 58.5698 32.4992 59.3098 32.4992 60.2298Z" fill="#121212"/>
<path d="M42.2292 60.2298C42.2292 61.1498 41.4892 61.8898 40.5692 61.8898C39.6492 61.8898 38.9092 61.1498 38.9092 60.2298C38.9092 59.3098 39.6492 58.5698 40.5692 58.5698C41.4892 58.5698 42.2292 59.3098 42.2292 60.2298Z" fill="#121212"/>
<path d="M51.9592 60.2298C51.9592 61.1498 51.2192 61.8898 50.2992 61.8898C49.3792 61.8898 48.6392 61.1498 48.6392 60.2298C48.6392 59.3098 49.3792 58.5698 50.2992 58.5698C51.2192 58.5698 51.9592 59.3098 51.9592 60.2298Z" fill="#121212"/>
<path d="M61.6794 60.2298C61.6794 61.1498 60.9394 61.8898 60.0194 61.8898C59.0994 61.8898 58.3594 61.1498 58.3594 60.2298C58.3594 59.3098 59.0994 58.5698 60.0194 58.5698C60.9394 58.5698 61.6794 59.3098 61.6794 60.2298Z" fill="#121212"/>
<path d="M71.4094 60.2298C71.4094 61.1498 70.6694 61.8898 69.7494 61.8898C68.8294 61.8898 68.0894 61.1498 68.0894 60.2298C68.0894 59.3098 68.8294 58.5698 69.7494 58.5698C70.6694 58.5698 71.4094 59.3098 71.4094 60.2298Z" fill="#121212"/>
<path d="M81.1393 60.2298C81.1393 61.1498 80.3993 61.8898 79.4793 61.8898C78.5593 61.8898 77.8193 61.1498 77.8193 60.2298C77.8193 59.3098 78.5593 58.5698 79.4793 58.5698C80.3993 58.5698 81.1393 59.3098 81.1393 60.2298Z" fill="#121212"/>
<path d="M90.8693 60.2298C90.8693 61.1498 90.1293 61.8898 89.2093 61.8898C88.2893 61.8898 87.5493 61.1498 87.5493 60.2298C87.5493 59.3098 88.2893 58.5698 89.2093 58.5698C90.1293 58.5698 90.8693 59.3098 90.8693 60.2298Z" fill="#121212"/>
<path d="M3.30927 70.0199C3.30927 70.9399 2.56927 71.6799 1.64927 71.6799C0.729268 71.6799 -0.000732422 70.9399 -0.000732422 70.0199C-0.000732422 69.0999 0.739268 68.3599 1.65927 68.3599C2.57927 68.3599 3.30927 69.1099 3.30927 70.0199Z" fill="#121212"/>
<path d="M13.0392 70.0199C13.0392 70.9399 12.2992 71.6799 11.3792 71.6799C10.4592 71.6799 9.71924 70.9399 9.71924 70.0199C9.71924 69.0999 10.4592 68.3599 11.3792 68.3599C12.2992 68.3599 13.0392 69.1099 13.0392 70.0199Z" fill="#121212"/>
<path d="M22.7692 70.0199C22.7692 70.9399 22.0292 71.6799 21.1092 71.6799C20.1892 71.6799 19.4492 70.9399 19.4492 70.0199C19.4492 69.0999 20.1892 68.3599 21.1092 68.3599C22.0292 68.3599 22.7692 69.1099 22.7692 70.0199Z" fill="#121212"/>
<path d="M32.4992 70.0199C32.4992 70.9399 31.7592 71.6799 30.8392 71.6799C29.9192 71.6799 29.1792 70.9399 29.1792 70.0199C29.1792 69.0999 29.9192 68.3599 30.8392 68.3599C31.7592 68.3599 32.4992 69.1099 32.4992 70.0199Z" fill="#121212"/>
<path d="M42.2292 70.0199C42.2292 70.9399 41.4892 71.6799 40.5692 71.6799C39.6492 71.6799 38.9092 70.9399 38.9092 70.0199C38.9092 69.0999 39.6492 68.3599 40.5692 68.3599C41.4892 68.3599 42.2292 69.1099 42.2292 70.0199Z" fill="#121212"/>
<path d="M51.9592 70.0199C51.9592 70.9399 51.2192 71.6799 50.2992 71.6799C49.3792 71.6799 48.6392 70.9399 48.6392 70.0199C48.6392 69.0999 49.3792 68.3599 50.2992 68.3599C51.2192 68.3599 51.9592 69.1099 51.9592 70.0199Z" fill="#121212"/>
<path d="M61.6794 70.0199C61.6794 70.9399 60.9394 71.6799 60.0194 71.6799C59.0994 71.6799 58.3594 70.9399 58.3594 70.0199C58.3594 69.0999 59.0994 68.3599 60.0194 68.3599C60.9394 68.3599 61.6794 69.1099 61.6794 70.0199Z" fill="#121212"/>
<path d="M71.4094 70.0199C71.4094 70.9399 70.6694 71.6799 69.7494 71.6799C68.8294 71.6799 68.0894 70.9399 68.0894 70.0199C68.0894 69.0999 68.8294 68.3599 69.7494 68.3599C70.6694 68.3599 71.4094 69.1099 71.4094 70.0199Z" fill="#121212"/>
<path d="M81.1393 70.0199C81.1393 70.9399 80.3993 71.6799 79.4793 71.6799C78.5593 71.6799 77.8193 70.9399 77.8193 70.0199C77.8193 69.0999 78.5593 68.3599 79.4793 68.3599C80.3993 68.3599 81.1393 69.1099 81.1393 70.0199Z" fill="#121212"/>
<path d="M90.8693 70.0199C90.8693 70.9399 90.1293 71.6799 89.2093 71.6799C88.2893 71.6799 87.5493 70.9399 87.5493 70.0199C87.5493 69.0999 88.2893 68.3599 89.2093 68.3599C90.1293 68.3599 90.8693 69.1099 90.8693 70.0199Z" fill="#121212"/>
<path d="M1.65927 81.4802C2.57606 81.4802 3.31927 80.7369 3.31927 79.8202C3.31927 78.9034 2.57606 78.1602 1.65927 78.1602C0.742475 78.1602 -0.000732422 78.9034 -0.000732422 79.8202C-0.000732422 80.7369 0.742475 81.4802 1.65927 81.4802Z" fill="#121212"/>
<path d="M13.0392 79.8202C13.0392 80.7402 12.2992 81.4802 11.3792 81.4802C10.4592 81.4802 9.71924 80.7402 9.71924 79.8202C9.71924 78.9002 10.4592 78.1602 11.3792 78.1602C12.2992 78.1602 13.0392 78.9002 13.0392 79.8202Z" fill="#121212"/>
<path d="M22.7692 79.8202C22.7692 80.7402 22.0292 81.4802 21.1092 81.4802C20.1892 81.4802 19.4492 80.7402 19.4492 79.8202C19.4492 78.9002 20.1892 78.1602 21.1092 78.1602C22.0292 78.1602 22.7692 78.9002 22.7692 79.8202Z" fill="#121212"/>
<path d="M30.8392 81.4802C31.756 81.4802 32.4992 80.7369 32.4992 79.8202C32.4992 78.9034 31.756 78.1602 30.8392 78.1602C29.9224 78.1602 29.1792 78.9034 29.1792 79.8202C29.1792 80.7369 29.9224 81.4802 30.8392 81.4802Z" fill="#121212"/>
<path d="M42.2292 79.8202C42.2292 80.7402 41.4892 81.4802 40.5692 81.4802C39.6492 81.4802 38.9092 80.7402 38.9092 79.8202C38.9092 78.9002 39.6492 78.1602 40.5692 78.1602C41.4892 78.1602 42.2292 78.9002 42.2292 79.8202Z" fill="#121212"/>
<path d="M51.9592 79.8202C51.9592 80.7402 51.2192 81.4802 50.2992 81.4802C49.3792 81.4802 48.6392 80.7402 48.6392 79.8202C48.6392 78.9002 49.3792 78.1602 50.2992 78.1602C51.2192 78.1602 51.9592 78.9002 51.9592 79.8202Z" fill="#121212"/>
<path d="M60.0294 81.4802C60.9462 81.4802 61.6894 80.7369 61.6894 79.8202C61.6894 78.9034 60.9462 78.1602 60.0294 78.1602C59.1126 78.1602 58.3694 78.9034 58.3694 79.8202C58.3694 80.7369 59.1126 81.4802 60.0294 81.4802Z" fill="#121212"/>
<path d="M69.7594 81.4802C70.6762 81.4802 71.4194 80.7369 71.4194 79.8202C71.4194 78.9034 70.6762 78.1602 69.7594 78.1602C68.8426 78.1602 68.0994 78.9034 68.0994 79.8202C68.0994 80.7369 68.8426 81.4802 69.7594 81.4802Z" fill="#121212"/>
<path d="M81.1393 79.8202C81.1393 80.7402 80.3993 81.4802 79.4793 81.4802C78.5593 81.4802 77.8193 80.7402 77.8193 79.8202C77.8193 78.9002 78.5593 78.1602 79.4793 78.1602C80.3993 78.1602 81.1393 78.9002 81.1393 79.8202Z" fill="#121212"/>
<path d="M89.2093 81.4802C90.1261 81.4802 90.8693 80.7369 90.8693 79.8202C90.8693 78.9034 90.1261 78.1602 89.2093 78.1602C88.2925 78.1602 87.5493 78.9034 87.5493 79.8202C87.5493 80.7369 88.2925 81.4802 89.2093 81.4802Z" fill="#121212"/>
<path d="M1.65927 91.2702C2.57606 91.2702 3.31927 90.527 3.31927 89.6102C3.31927 88.6934 2.57606 87.9502 1.65927 87.9502C0.742475 87.9502 -0.000732422 88.6934 -0.000732422 89.6102C-0.000732422 90.527 0.742475 91.2702 1.65927 91.2702Z" fill="#121212"/>
<path d="M13.0392 89.6102C13.0392 90.5302 12.2992 91.2702 11.3792 91.2702C10.4592 91.2702 9.71924 90.5302 9.71924 89.6102C9.71924 88.6902 10.4592 87.9502 11.3792 87.9502C12.2992 87.9602 13.0392 88.7002 13.0392 89.6102Z" fill="#121212"/>
<path d="M22.7692 89.6102C22.7692 90.5302 22.0292 91.2702 21.1092 91.2702C20.1892 91.2702 19.4492 90.5302 19.4492 89.6102C19.4492 88.6902 20.1892 87.9502 21.1092 87.9502C22.0292 87.9602 22.7692 88.7002 22.7692 89.6102Z" fill="#121212"/>
<path d="M30.8392 91.2702C31.756 91.2702 32.4992 90.527 32.4992 89.6102C32.4992 88.6934 31.756 87.9502 30.8392 87.9502C29.9224 87.9502 29.1792 88.6934 29.1792 89.6102C29.1792 90.527 29.9224 91.2702 30.8392 91.2702Z" fill="#121212"/>
<path d="M42.2292 89.6102C42.2292 90.5302 41.4892 91.2702 40.5692 91.2702C39.6492 91.2702 38.9092 90.5302 38.9092 89.6102C38.9092 88.6902 39.6492 87.9502 40.5692 87.9502C41.4892 87.9602 42.2292 88.7002 42.2292 89.6102Z" fill="#121212"/>
<path d="M51.9592 89.6102C51.9592 90.5302 51.2192 91.2702 50.2992 91.2702C49.3792 91.2702 48.6392 90.5302 48.6392 89.6102C48.6392 88.6902 49.3792 87.9502 50.2992 87.9502C51.2192 87.9502 51.9592 88.7002 51.9592 89.6102Z" fill="#121212"/>
<path d="M60.0294 91.2702C60.9462 91.2702 61.6894 90.527 61.6894 89.6102C61.6894 88.6934 60.9462 87.9502 60.0294 87.9502C59.1126 87.9502 58.3694 88.6934 58.3694 89.6102C58.3694 90.527 59.1126 91.2702 60.0294 91.2702Z" fill="#121212"/>
<path d="M69.7594 91.2702C70.6762 91.2702 71.4194 90.527 71.4194 89.6102C71.4194 88.6934 70.6762 87.9502 69.7594 87.9502C68.8426 87.9502 68.0994 88.6934 68.0994 89.6102C68.0994 90.527 68.8426 91.2702 69.7594 91.2702Z" fill="#121212"/>
<path d="M81.1393 89.6102C81.1393 90.5302 80.3993 91.2702 79.4793 91.2702C78.5593 91.2702 77.8193 90.5302 77.8193 89.6102C77.8193 88.6902 78.5593 87.9502 79.4793 87.9502C80.3993 87.9602 81.1393 88.7002 81.1393 89.6102Z" fill="#121212"/>
<path d="M89.2093 91.2702C90.1261 91.2702 90.8693 90.527 90.8693 89.6102C90.8693 88.6934 90.1261 87.9502 89.2093 87.9502C88.2925 87.9502 87.5493 88.6934 87.5493 89.6102C87.5493 90.527 88.2925 91.2702 89.2093 91.2702Z" fill="#121212"/>
<path d="M1.65927 101.07C2.57606 101.07 3.31927 100.327 3.31927 99.41C3.31927 98.4932 2.57606 97.75 1.65927 97.75C0.742475 97.75 -0.000732422 98.4932 -0.000732422 99.41C-0.000732422 100.327 0.742475 101.07 1.65927 101.07Z" fill="#121212"/>
<path d="M13.0392 99.41C13.0392 100.33 12.2992 101.07 11.3792 101.07C10.4592 101.07 9.71924 100.33 9.71924 99.41C9.71924 98.49 10.4592 97.75 11.3792 97.75C12.2992 97.75 13.0392 98.49 13.0392 99.41Z" fill="#121212"/>
<path d="M22.7692 99.41C22.7692 100.33 22.0292 101.07 21.1092 101.07C20.1892 101.07 19.4492 100.33 19.4492 99.41C19.4492 98.49 20.1892 97.75 21.1092 97.75C22.0292 97.75 22.7692 98.49 22.7692 99.41Z" fill="#121212"/>
<path d="M30.8392 101.07C31.756 101.07 32.4992 100.327 32.4992 99.41C32.4992 98.4932 31.756 97.75 30.8392 97.75C29.9224 97.75 29.1792 98.4932 29.1792 99.41C29.1792 100.327 29.9224 101.07 30.8392 101.07Z" fill="#121212"/>
<path d="M42.2292 99.41C42.2292 100.33 41.4892 101.07 40.5692 101.07C39.6492 101.07 38.9092 100.33 38.9092 99.41C38.9092 98.49 39.6492 97.75 40.5692 97.75C41.4892 97.75 42.2292 98.49 42.2292 99.41Z" fill="#121212"/>
<path d="M51.9592 99.41C51.9592 100.33 51.2192 101.07 50.2992 101.07C49.3792 101.07 48.6392 100.33 48.6392 99.41C48.6392 98.49 49.3792 97.75 50.2992 97.75C51.2192 97.75 51.9592 98.49 51.9592 99.41Z" fill="#121212"/>
<path d="M60.0294 101.07C60.9462 101.07 61.6894 100.327 61.6894 99.41C61.6894 98.4932 60.9462 97.75 60.0294 97.75C59.1126 97.75 58.3694 98.4932 58.3694 99.41C58.3694 100.327 59.1126 101.07 60.0294 101.07Z" fill="#121212"/>
<path d="M69.7594 101.07C70.6762 101.07 71.4194 100.327 71.4194 99.41C71.4194 98.4932 70.6762 97.75 69.7594 97.75C68.8426 97.75 68.0994 98.4932 68.0994 99.41C68.0994 100.327 68.8426 101.07 69.7594 101.07Z" fill="#121212"/>
<path d="M81.1393 99.41C81.1393 100.33 80.3993 101.07 79.4793 101.07C78.5593 101.07 77.8193 100.33 77.8193 99.41C77.8193 98.49 78.5593 97.75 79.4793 97.75C80.3993 97.75 81.1393 98.49 81.1393 99.41Z" fill="#121212"/>
<path d="M89.2093 101.07C90.1261 101.07 90.8693 100.327 90.8693 99.41C90.8693 98.4932 90.1261 97.75 89.2093 97.75C88.2925 97.75 87.5493 98.4932 87.5493 99.41C87.5493 100.327 88.2925 101.07 89.2093 101.07Z" fill="#121212"/>
<path d="M3.30927 109.2C3.30927 110.12 2.56927 110.86 1.64927 110.86C0.729268 110.86 -0.000732422 110.12 -0.000732422 109.2C-0.000732422 108.28 0.739268 107.54 1.65927 107.54C2.57927 107.54 3.30927 108.29 3.30927 109.2Z" fill="#121212"/>
<path d="M13.0392 109.2C13.0392 110.12 12.2992 110.86 11.3792 110.86C10.4592 110.86 9.71924 110.12 9.71924 109.2C9.71924 108.28 10.4592 107.54 11.3792 107.54C12.2992 107.55 13.0392 108.29 13.0392 109.2Z" fill="#121212"/>
<path d="M22.7692 109.2C22.7692 110.12 22.0292 110.86 21.1092 110.86C20.1892 110.86 19.4492 110.12 19.4492 109.2C19.4492 108.28 20.1892 107.54 21.1092 107.54C22.0292 107.55 22.7692 108.29 22.7692 109.2Z" fill="#121212"/>
<path d="M32.4992 109.2C32.4992 110.12 31.7592 110.86 30.8392 110.86C29.9192 110.86 29.1792 110.12 29.1792 109.2C29.1792 108.28 29.9192 107.54 30.8392 107.54C31.7592 107.54 32.4992 108.29 32.4992 109.2Z" fill="#121212"/>
<path d="M42.2292 109.2C42.2292 110.12 41.4892 110.86 40.5692 110.86C39.6492 110.86 38.9092 110.12 38.9092 109.2C38.9092 108.28 39.6492 107.54 40.5692 107.54C41.4892 107.55 42.2292 108.29 42.2292 109.2Z" fill="#121212"/>
<path d="M51.9592 109.2C51.9592 110.12 51.2192 110.86 50.2992 110.86C49.3792 110.86 48.6392 110.12 48.6392 109.2C48.6392 108.28 49.3792 107.54 50.2992 107.54C51.2192 107.54 51.9592 108.29 51.9592 109.2Z" fill="#121212"/>
<path d="M61.6794 109.2C61.6794 110.12 60.9394 110.86 60.0194 110.86C59.0994 110.86 58.3594 110.12 58.3594 109.2C58.3594 108.28 59.0994 107.54 60.0194 107.54C60.9394 107.55 61.6794 108.29 61.6794 109.2Z" fill="#121212"/>
<path d="M71.4094 109.2C71.4094 110.12 70.6694 110.86 69.7494 110.86C68.8294 110.86 68.0894 110.12 68.0894 109.2C68.0894 108.28 68.8294 107.54 69.7494 107.54C70.6694 107.55 71.4094 108.29 71.4094 109.2Z" fill="#121212"/>
<path d="M81.1393 109.2C81.1393 110.12 80.3993 110.86 79.4793 110.86C78.5593 110.86 77.8193 110.12 77.8193 109.2C77.8193 108.28 78.5593 107.54 79.4793 107.54C80.3993 107.55 81.1393 108.29 81.1393 109.2Z" fill="#121212"/>
<path d="M90.8693 109.2C90.8693 110.12 90.1293 110.86 89.2093 110.86C88.2893 110.86 87.5493 110.12 87.5493 109.2C87.5493 108.28 88.2893 107.54 89.2093 107.54C90.1293 107.55 90.8693 108.29 90.8693 109.2Z" fill="#121212"/>
<path d="M3.30927 119C3.30927 119.92 2.56927 120.66 1.64927 120.66C0.729268 120.66 -0.000732422 119.91 -0.000732422 119C-0.000732422 118.08 0.739268 117.34 1.65927 117.34C2.57927 117.34 3.30927 118.08 3.30927 119Z" fill="#121212"/>
<path d="M13.0392 119C13.0392 119.92 12.2992 120.66 11.3792 120.66C10.4592 120.66 9.71924 119.92 9.71924 119C9.71924 118.08 10.4592 117.34 11.3792 117.34C12.2992 117.34 13.0392 118.08 13.0392 119Z" fill="#121212"/>
<path d="M22.7692 119C22.7692 119.92 22.0292 120.66 21.1092 120.66C20.1892 120.66 19.4492 119.92 19.4492 119C19.4492 118.08 20.1892 117.34 21.1092 117.34C22.0292 117.34 22.7692 118.08 22.7692 119Z" fill="#121212"/>
<path d="M32.4992 119C32.4992 119.92 31.7592 120.66 30.8392 120.66C29.9192 120.66 29.1792 119.92 29.1792 119C29.1792 118.08 29.9192 117.34 30.8392 117.34C31.7592 117.34 32.4992 118.08 32.4992 119Z" fill="#121212"/>
<path d="M42.2292 119C42.2292 119.92 41.4892 120.66 40.5692 120.66C39.6492 120.66 38.9092 119.92 38.9092 119C38.9092 118.08 39.6492 117.34 40.5692 117.34C41.4892 117.34 42.2292 118.08 42.2292 119Z" fill="#121212"/>
<path d="M51.9592 119C51.9592 119.92 51.2192 120.66 50.2992 120.66C49.3792 120.66 48.6392 119.92 48.6392 119C48.6392 118.08 49.3792 117.34 50.2992 117.34C51.2192 117.34 51.9592 118.08 51.9592 119Z" fill="#121212"/>
<path d="M61.6794 119C61.6794 119.92 60.9394 120.66 60.0194 120.66C59.0994 120.66 58.3594 119.92 58.3594 119C58.3594 118.08 59.0994 117.34 60.0194 117.34C60.9394 117.34 61.6794 118.08 61.6794 119Z" fill="#121212"/>
<path d="M71.4094 119C71.4094 119.92 70.6694 120.66 69.7494 120.66C68.8294 120.66 68.0894 119.92 68.0894 119C68.0894 118.08 68.8294 117.34 69.7494 117.34C70.6694 117.34 71.4094 118.08 71.4094 119Z" fill="#121212"/>
<path d="M81.1393 119C81.1393 119.92 80.3993 120.66 79.4793 120.66C78.5593 120.66 77.8193 119.92 77.8193 119C77.8193 118.08 78.5593 117.34 79.4793 117.34C80.3993 117.34 81.1393 118.08 81.1393 119Z" fill="#121212"/>
<path d="M90.8693 119C90.8693 119.92 90.1293 120.66 89.2093 120.66C88.2893 120.66 87.5493 119.92 87.5493 119C87.5493 118.08 88.2893 117.34 89.2093 117.34C90.1293 117.34 90.8693 118.08 90.8693 119Z" fill="#121212"/>
<path d="M3.30927 128.79C3.30927 129.71 2.56927 130.45 1.64927 130.45C0.729268 130.45 -0.000732422 129.71 -0.000732422 128.79C-0.000732422 127.87 0.739268 127.13 1.65927 127.13C2.57927 127.13 3.30927 127.88 3.30927 128.79Z" fill="#121212"/>
<path d="M13.0392 128.79C13.0392 129.71 12.2992 130.45 11.3792 130.45C10.4592 130.45 9.71924 129.71 9.71924 128.79C9.71924 127.87 10.4592 127.13 11.3792 127.13C12.2992 127.14 13.0392 127.88 13.0392 128.79Z" fill="#121212"/>
<path d="M22.7692 128.79C22.7692 129.71 22.0292 130.45 21.1092 130.45C20.1892 130.45 19.4492 129.71 19.4492 128.79C19.4492 127.87 20.1892 127.13 21.1092 127.13C22.0292 127.14 22.7692 127.88 22.7692 128.79Z" fill="#121212"/>
<path d="M32.4992 128.79C32.4992 129.71 31.7592 130.45 30.8392 130.45C29.9192 130.45 29.1792 129.71 29.1792 128.79C29.1792 127.87 29.9192 127.13 30.8392 127.13C31.7592 127.13 32.4992 127.88 32.4992 128.79Z" fill="#121212"/>
<path d="M42.2292 128.79C42.2292 129.71 41.4892 130.45 40.5692 130.45C39.6492 130.45 38.9092 129.71 38.9092 128.79C38.9092 127.87 39.6492 127.13 40.5692 127.13C41.4892 127.14 42.2292 127.88 42.2292 128.79Z" fill="#121212"/>
<path d="M51.9592 128.79C51.9592 129.71 51.2192 130.45 50.2992 130.45C49.3792 130.45 48.6392 129.71 48.6392 128.79C48.6392 127.87 49.3792 127.13 50.2992 127.13C51.2192 127.13 51.9592 127.88 51.9592 128.79Z" fill="#121212"/>
<path d="M61.6794 128.79C61.6794 129.71 60.9394 130.45 60.0194 130.45C59.0994 130.45 58.3594 129.71 58.3594 128.79C58.3594 127.87 59.0994 127.13 60.0194 127.13C60.9394 127.14 61.6794 127.88 61.6794 128.79Z" fill="#121212"/>
<path d="M71.4094 128.79C71.4094 129.71 70.6694 130.45 69.7494 130.45C68.8294 130.45 68.0894 129.71 68.0894 128.79C68.0894 127.87 68.8294 127.13 69.7494 127.13C70.6694 127.14 71.4094 127.88 71.4094 128.79Z" fill="#121212"/>
<path d="M81.1393 128.79C81.1393 129.71 80.3993 130.45 79.4793 130.45C78.5593 130.45 77.8193 129.71 77.8193 128.79C77.8193 127.87 78.5593 127.13 79.4793 127.13C80.3993 127.14 81.1393 127.88 81.1393 128.79Z" fill="#121212"/>
<path d="M90.8693 128.79C90.8693 129.71 90.1293 130.45 89.2093 130.45C88.2893 130.45 87.5493 129.71 87.5493 128.79C87.5493 127.87 88.2893 127.13 89.2093 127.13C90.1293 127.14 90.8693 127.88 90.8693 128.79Z" fill="#121212"/>
<path d="M3.30927 138.59C3.30927 139.51 2.56927 140.25 1.64927 140.25C0.729268 140.25 -0.000732422 139.51 -0.000732422 138.59C-0.000732422 137.67 0.739268 136.93 1.65927 136.93C2.57927 136.93 3.30927 137.67 3.30927 138.59Z" fill="#121212"/>
<path d="M13.0392 138.59C13.0392 139.51 12.2992 140.25 11.3792 140.25C10.4592 140.25 9.71924 139.51 9.71924 138.59C9.71924 137.67 10.4592 136.93 11.3792 136.93C12.2992 136.93 13.0392 137.67 13.0392 138.59Z" fill="#121212"/>
<path d="M22.7692 138.59C22.7692 139.51 22.0292 140.25 21.1092 140.25C20.1892 140.25 19.4492 139.51 19.4492 138.59C19.4492 137.67 20.1892 136.93 21.1092 136.93C22.0292 136.93 22.7692 137.67 22.7692 138.59Z" fill="#121212"/>
<path d="M32.4992 138.59C32.4992 139.51 31.7592 140.25 30.8392 140.25C29.9192 140.25 29.1792 139.51 29.1792 138.59C29.1792 137.67 29.9192 136.93 30.8392 136.93C31.7592 136.93 32.4992 137.67 32.4992 138.59Z" fill="#121212"/>
<path d="M42.2292 138.59C42.2292 139.51 41.4892 140.25 40.5692 140.25C39.6492 140.25 38.9092 139.51 38.9092 138.59C38.9092 137.67 39.6492 136.93 40.5692 136.93C41.4892 136.93 42.2292 137.67 42.2292 138.59Z" fill="#121212"/>
<path d="M51.9592 138.59C51.9592 139.51 51.2192 140.25 50.2992 140.25C49.3792 140.25 48.6392 139.51 48.6392 138.59C48.6392 137.67 49.3792 136.93 50.2992 136.93C51.2192 136.93 51.9592 137.67 51.9592 138.59Z" fill="#121212"/>
<path d="M61.6794 138.59C61.6794 139.51 60.9394 140.25 60.0194 140.25C59.0994 140.25 58.3594 139.51 58.3594 138.59C58.3594 137.67 59.0994 136.93 60.0194 136.93C60.9394 136.93 61.6794 137.67 61.6794 138.59Z" fill="#121212"/>
<path d="M71.4094 138.59C71.4094 139.51 70.6694 140.25 69.7494 140.25C68.8294 140.25 68.0894 139.51 68.0894 138.59C68.0894 137.67 68.8294 136.93 69.7494 136.93C70.6694 136.93 71.4094 137.67 71.4094 138.59Z" fill="#121212"/>
<path d="M81.1393 138.59C81.1393 139.51 80.3993 140.25 79.4793 140.25C78.5593 140.25 77.8193 139.51 77.8193 138.59C77.8193 137.67 78.5593 136.93 79.4793 136.93C80.3993 136.93 81.1393 137.67 81.1393 138.59Z" fill="#121212"/>
<path d="M90.8693 138.59C90.8693 139.51 90.1293 140.25 89.2093 140.25C88.2893 140.25 87.5493 139.51 87.5493 138.59C87.5493 137.67 88.2893 136.93 89.2093 136.93C90.1293 136.93 90.8693 137.67 90.8693 138.59Z" fill="#121212"/>
</svg>
