<svg width="62" height="34" viewBox="0 0 62 34" fill="none" xmlns="http://www.w3.org/2000/svg">
<path d="M0 3.92307C5.13333 3.92307 5.13333 12.9487 10.2667 12.9487C15.4 12.9487 15.4 3.92307 20.5333 3.92307C25.6667 3.92307 25.6667 12.9487 30.8 12.9487C35.9333 12.9487 35.9333 3.92307 41.0667 3.92307C46.2 3.92307 46.2 12.9487 51.3333 12.9487C56.4667 12.9487 56.4667 3.92307 61.6 3.92307" stroke="#EE4074" stroke-width="6" stroke-miterlimit="10"/>
<path d="M0 21.9744C5.13333 21.9744 5.13333 31 10.2667 31C15.4 31 15.4 21.9744 20.5333 21.9744C25.6667 21.9744 25.6667 31 30.8 31C35.9333 31 35.9333 21.9744 41.0667 21.9744C46.2 21.9744 46.2 31 51.3333 31C56.4667 31 56.4667 21.9744 61.6 21.9744" stroke="#EE4074" stroke-width="6" stroke-miterlimit="10"/>
</svg>
