<svg width="66" height="110" viewBox="0 0 66 110" fill="none" xmlns="http://www.w3.org/2000/svg">
<path d="M2.40989 1.24303C2.40989 1.91083 1.87275 2.44798 1.20495 2.44798C0.537145 2.44798 0 1.91083 0 1.24303C0 0.57523 0.537145 0.0380859 1.20495 0.0380859C1.86549 0.0380859 2.40989 0.582489 2.40989 1.24303Z" fill="#121212"/>
<path d="M8.26793 2.44798C8.93341 2.44798 9.47288 1.90851 9.47288 1.24303C9.47288 0.577559 8.93341 0.0380859 8.26793 0.0380859C7.60246 0.0380859 7.06299 0.577559 7.06299 1.24303C7.06299 1.90851 7.60246 2.44798 8.26793 2.44798Z" fill="#121212"/>
<path d="M15.3226 2.44798C15.9881 2.44798 16.5276 1.90851 16.5276 1.24303C16.5276 0.577559 15.9881 0.0380859 15.3226 0.0380859C14.6571 0.0380859 14.1177 0.577559 14.1177 1.24303C14.1177 1.90851 14.6571 2.44798 15.3226 2.44798Z" fill="#121212"/>
<path d="M23.5906 1.24303C23.5906 1.91083 23.0534 2.44798 22.3856 2.44798C21.7178 2.44798 21.1807 1.91083 21.1807 1.24303C21.1807 0.57523 21.7178 0.0380859 22.3856 0.0380859C23.0534 0.0380859 23.5906 0.582489 23.5906 1.24303Z" fill="#121212"/>
<path d="M29.4486 2.44798C30.1141 2.44798 30.6535 1.90851 30.6535 1.24303C30.6535 0.577559 30.1141 0.0380859 29.4486 0.0380859C28.7831 0.0380859 28.2437 0.577559 28.2437 1.24303C28.2437 1.90851 28.7831 2.44798 29.4486 2.44798Z" fill="#121212"/>
<path d="M36.5118 2.44798C37.1773 2.44798 37.7168 1.90851 37.7168 1.24303C37.7168 0.577559 37.1773 0.0380859 36.5118 0.0380859C35.8464 0.0380859 35.3069 0.577559 35.3069 1.24303C35.3069 1.90851 35.8464 2.44798 36.5118 2.44798Z" fill="#121212"/>
<path d="M44.7712 1.24303C44.7712 1.91083 44.2341 2.44798 43.5663 2.44798C42.8985 2.44798 42.3613 1.91083 42.3613 1.24303C42.3613 0.57523 42.8985 0.0380859 43.5663 0.0380859C44.2341 0.0380859 44.7712 0.582489 44.7712 1.24303Z" fill="#121212"/>
<path d="M51.8345 1.24303C51.8345 1.91083 51.2973 2.44798 50.6295 2.44798C49.9617 2.44798 49.4246 1.91083 49.4246 1.24303C49.4246 0.57523 49.9617 0.0380859 50.6295 0.0380859C51.2973 0.0380859 51.8345 0.582489 51.8345 1.24303Z" fill="#121212"/>
<path d="M57.6925 2.44798C58.358 2.44798 58.8974 1.90851 58.8974 1.24303C58.8974 0.577559 58.358 0.0380859 57.6925 0.0380859C57.027 0.0380859 56.4875 0.577559 56.4875 1.24303C56.4875 1.90851 57.027 2.44798 57.6925 2.44798Z" fill="#121212"/>
<path d="M65.9604 1.24303C65.9604 1.91083 65.4233 2.44798 64.7555 2.44798C64.0877 2.44798 63.5505 1.91083 63.5505 1.24303C63.5505 0.57523 64.0877 0.0380859 64.7555 0.0380859C65.4233 0.0380859 65.9604 0.582489 65.9604 1.24303Z" fill="#121212"/>
<path d="M2.40989 8.3568C2.40989 9.0246 1.87275 9.56175 1.20495 9.56175C0.537145 9.55449 0 9.01734 0 8.3568C0 7.689 0.537145 7.15186 1.20495 7.15186C1.86549 7.15186 2.40989 7.689 2.40989 8.3568Z" fill="#121212"/>
<path d="M8.26793 9.56175C8.93341 9.56175 9.47288 9.02227 9.47288 8.3568C9.47288 7.69133 8.93341 7.15186 8.26793 7.15186C7.60246 7.15186 7.06299 7.69133 7.06299 8.3568C7.06299 9.02227 7.60246 9.56175 8.26793 9.56175Z" fill="#121212"/>
<path d="M15.3226 9.56175C15.9881 9.56175 16.5276 9.02227 16.5276 8.3568C16.5276 7.69133 15.9881 7.15186 15.3226 7.15186C14.6571 7.15186 14.1177 7.69133 14.1177 8.3568C14.1177 9.02227 14.6571 9.56175 15.3226 9.56175Z" fill="#121212"/>
<path d="M23.5906 8.3568C23.5906 9.0246 23.0534 9.56175 22.3856 9.56175C21.7178 9.56175 21.1807 9.0246 21.1807 8.3568C21.1807 7.689 21.7178 7.15186 22.3856 7.15186C23.0534 7.15186 23.5906 7.689 23.5906 8.3568Z" fill="#121212"/>
<path d="M29.4486 9.56175C30.1141 9.56175 30.6535 9.02227 30.6535 8.3568C30.6535 7.69133 30.1141 7.15186 29.4486 7.15186C28.7831 7.15186 28.2437 7.69133 28.2437 8.3568C28.2437 9.02227 28.7831 9.56175 29.4486 9.56175Z" fill="#121212"/>
<path d="M36.5118 9.56175C37.1773 9.56175 37.7168 9.02227 37.7168 8.3568C37.7168 7.69133 37.1773 7.15186 36.5118 7.15186C35.8464 7.15186 35.3069 7.69133 35.3069 8.3568C35.3069 9.02227 35.8464 9.56175 36.5118 9.56175Z" fill="#121212"/>
<path d="M44.7712 8.3568C44.7712 9.0246 44.2341 9.56175 43.5663 9.56175C42.8985 9.56175 42.3613 9.0246 42.3613 8.3568C42.3613 7.689 42.8985 7.15186 43.5663 7.15186C44.2341 7.15186 44.7712 7.689 44.7712 8.3568Z" fill="#121212"/>
<path d="M51.8345 8.3568C51.8345 9.0246 51.2973 9.56175 50.6295 9.56175C49.9617 9.56175 49.4246 9.0246 49.4246 8.3568C49.4246 7.689 49.9617 7.15186 50.6295 7.15186C51.2973 7.15186 51.8345 7.689 51.8345 8.3568Z" fill="#121212"/>
<path d="M57.6925 9.56175C58.358 9.56175 58.8974 9.02227 58.8974 8.3568C58.8974 7.69133 58.358 7.15186 57.6925 7.15186C57.027 7.15186 56.4875 7.69133 56.4875 8.3568C56.4875 9.02227 57.027 9.56175 57.6925 9.56175Z" fill="#121212"/>
<path d="M65.9604 8.3568C65.9604 9.0246 65.4233 9.56175 64.7555 9.56175C64.0877 9.56175 63.5505 9.0246 63.5505 8.3568C63.5505 7.689 64.0877 7.15186 64.7555 7.15186C65.4233 7.15186 65.9604 7.689 65.9604 8.3568Z" fill="#121212"/>
<path d="M2.40989 15.4628C2.40989 16.1306 1.87275 16.6677 1.20495 16.6677C0.537145 16.6677 0 16.1306 0 15.4628C0 14.795 0.537145 14.2578 1.20495 14.2578C1.86549 14.2578 2.40989 14.8022 2.40989 15.4628Z" fill="#121212"/>
<path d="M8.26793 16.6677C8.93341 16.6677 9.47288 16.1282 9.47288 15.4628C9.47288 14.7973 8.93341 14.2578 8.26793 14.2578C7.60246 14.2578 7.06299 14.7973 7.06299 15.4628C7.06299 16.1282 7.60246 16.6677 8.26793 16.6677Z" fill="#121212"/>
<path d="M15.3226 16.6677C15.9881 16.6677 16.5276 16.1282 16.5276 15.4628C16.5276 14.7973 15.9881 14.2578 15.3226 14.2578C14.6571 14.2578 14.1177 14.7973 14.1177 15.4628C14.1177 16.1282 14.6571 16.6677 15.3226 16.6677Z" fill="#121212"/>
<path d="M23.5906 15.4628C23.5906 16.1306 23.0534 16.6677 22.3856 16.6677C21.7178 16.6677 21.1807 16.1306 21.1807 15.4628C21.1807 14.795 21.7178 14.2578 22.3856 14.2578C23.0534 14.2578 23.5906 14.8022 23.5906 15.4628Z" fill="#121212"/>
<path d="M29.4486 16.6677C30.1141 16.6677 30.6535 16.1282 30.6535 15.4628C30.6535 14.7973 30.1141 14.2578 29.4486 14.2578C28.7831 14.2578 28.2437 14.7973 28.2437 15.4628C28.2437 16.1282 28.7831 16.6677 29.4486 16.6677Z" fill="#121212"/>
<path d="M36.5118 16.6677C37.1773 16.6677 37.7168 16.1282 37.7168 15.4628C37.7168 14.7973 37.1773 14.2578 36.5118 14.2578C35.8464 14.2578 35.3069 14.7973 35.3069 15.4628C35.3069 16.1282 35.8464 16.6677 36.5118 16.6677Z" fill="#121212"/>
<path d="M44.7712 15.4628C44.7712 16.1306 44.2341 16.6677 43.5663 16.6677C42.8985 16.6677 42.3613 16.1306 42.3613 15.4628C42.3613 14.795 42.8985 14.2578 43.5663 14.2578C44.2341 14.2578 44.7712 14.8022 44.7712 15.4628Z" fill="#121212"/>
<path d="M51.8345 15.4628C51.8345 16.1306 51.2973 16.6677 50.6295 16.6677C49.9617 16.6677 49.4246 16.1306 49.4246 15.4628C49.4246 14.795 49.9617 14.2578 50.6295 14.2578C51.2973 14.2578 51.8345 14.8022 51.8345 15.4628Z" fill="#121212"/>
<path d="M57.6925 16.6677C58.358 16.6677 58.8974 16.1282 58.8974 15.4628C58.8974 14.7973 58.358 14.2578 57.6925 14.2578C57.027 14.2578 56.4875 14.7973 56.4875 15.4628C56.4875 16.1282 57.027 16.6677 57.6925 16.6677Z" fill="#121212"/>
<path d="M65.9604 15.4628C65.9604 16.1306 65.4233 16.6677 64.7555 16.6677C64.0877 16.6677 63.5505 16.1306 63.5505 15.4628C63.5505 14.795 64.0877 14.2578 64.7555 14.2578C65.4233 14.2578 65.9604 14.8022 65.9604 15.4628Z" fill="#121212"/>
<path d="M2.40989 22.5765C2.40989 23.2443 1.87275 23.7815 1.20495 23.7815C0.537145 23.7815 0 23.2371 0 22.5765C0 21.9087 0.537145 21.3716 1.20495 21.3716C1.86549 21.3716 2.40989 21.9087 2.40989 22.5765Z" fill="#121212"/>
<path d="M8.26793 23.7815C8.93341 23.7815 9.47288 23.242 9.47288 22.5765C9.47288 21.9111 8.93341 21.3716 8.26793 21.3716C7.60246 21.3716 7.06299 21.9111 7.06299 22.5765C7.06299 23.242 7.60246 23.7815 8.26793 23.7815Z" fill="#121212"/>
<path d="M15.3226 23.7815C15.9881 23.7815 16.5276 23.242 16.5276 22.5765C16.5276 21.9111 15.9881 21.3716 15.3226 21.3716C14.6571 21.3716 14.1177 21.9111 14.1177 22.5765C14.1177 23.242 14.6571 23.7815 15.3226 23.7815Z" fill="#121212"/>
<path d="M23.5906 22.5765C23.5906 23.2443 23.0534 23.7815 22.3856 23.7815C21.7178 23.7815 21.1807 23.2443 21.1807 22.5765C21.1807 21.9087 21.7178 21.3716 22.3856 21.3716C23.0534 21.3716 23.5906 21.9087 23.5906 22.5765Z" fill="#121212"/>
<path d="M29.4486 23.7815C30.1141 23.7815 30.6535 23.242 30.6535 22.5765C30.6535 21.9111 30.1141 21.3716 29.4486 21.3716C28.7831 21.3716 28.2437 21.9111 28.2437 22.5765C28.2437 23.242 28.7831 23.7815 29.4486 23.7815Z" fill="#121212"/>
<path d="M36.5118 23.7815C37.1773 23.7815 37.7168 23.242 37.7168 22.5765C37.7168 21.9111 37.1773 21.3716 36.5118 21.3716C35.8464 21.3716 35.3069 21.9111 35.3069 22.5765C35.3069 23.242 35.8464 23.7815 36.5118 23.7815Z" fill="#121212"/>
<path d="M44.7712 22.5765C44.7712 23.2443 44.2341 23.7815 43.5663 23.7815C42.8985 23.7815 42.3613 23.2443 42.3613 22.5765C42.3613 21.9087 42.8985 21.3716 43.5663 21.3716C44.2341 21.3716 44.7712 21.9087 44.7712 22.5765Z" fill="#121212"/>
<path d="M51.8345 22.5765C51.8345 23.2443 51.2973 23.7815 50.6295 23.7815C49.9617 23.7815 49.4246 23.2443 49.4246 22.5765C49.4246 21.9087 49.9617 21.3716 50.6295 21.3716C51.2973 21.3716 51.8345 21.9087 51.8345 22.5765Z" fill="#121212"/>
<path d="M57.6925 23.7815C58.358 23.7815 58.8974 23.242 58.8974 22.5765C58.8974 21.9111 58.358 21.3716 57.6925 21.3716C57.027 21.3716 56.4875 21.9111 56.4875 22.5765C56.4875 23.242 57.027 23.7815 57.6925 23.7815Z" fill="#121212"/>
<path d="M65.9604 22.5765C65.9604 23.2443 65.4233 23.7815 64.7555 23.7815C64.0877 23.7815 63.5505 23.2443 63.5505 22.5765C63.5505 21.9087 64.0877 21.3716 64.7555 21.3716C65.4233 21.3716 65.9604 21.9087 65.9604 22.5765Z" fill="#121212"/>
<path d="M2.40989 29.6825C2.40989 30.3503 1.87275 30.8874 1.20495 30.8874C0.537145 30.8874 0 30.3503 0 29.6825C0 29.0147 0.537145 28.4775 1.20495 28.4775C1.86549 28.4848 2.40989 29.0219 2.40989 29.6825Z" fill="#121212"/>
<path d="M8.26793 30.8874C8.93341 30.8874 9.47288 30.348 9.47288 29.6825C9.47288 29.017 8.93341 28.4775 8.26793 28.4775C7.60246 28.4775 7.06299 29.017 7.06299 29.6825C7.06299 30.348 7.60246 30.8874 8.26793 30.8874Z" fill="#121212"/>
<path d="M15.3226 30.8874C15.9881 30.8874 16.5276 30.348 16.5276 29.6825C16.5276 29.017 15.9881 28.4775 15.3226 28.4775C14.6571 28.4775 14.1177 29.017 14.1177 29.6825C14.1177 30.348 14.6571 30.8874 15.3226 30.8874Z" fill="#121212"/>
<path d="M23.5906 29.6825C23.5906 30.3503 23.0534 30.8874 22.3856 30.8874C21.7178 30.8874 21.1807 30.3503 21.1807 29.6825C21.1807 29.0147 21.7178 28.4775 22.3856 28.4775C23.0534 28.4848 23.5906 29.0219 23.5906 29.6825Z" fill="#121212"/>
<path d="M29.4486 30.8874C30.1141 30.8874 30.6535 30.348 30.6535 29.6825C30.6535 29.017 30.1141 28.4775 29.4486 28.4775C28.7831 28.4775 28.2437 29.017 28.2437 29.6825C28.2437 30.348 28.7831 30.8874 29.4486 30.8874Z" fill="#121212"/>
<path d="M36.5118 30.8874C37.1773 30.8874 37.7168 30.348 37.7168 29.6825C37.7168 29.017 37.1773 28.4775 36.5118 28.4775C35.8464 28.4775 35.3069 29.017 35.3069 29.6825C35.3069 30.348 35.8464 30.8874 36.5118 30.8874Z" fill="#121212"/>
<path d="M44.7712 29.6825C44.7712 30.3503 44.2341 30.8874 43.5663 30.8874C42.8985 30.8874 42.3613 30.3503 42.3613 29.6825C42.3613 29.0147 42.8985 28.4775 43.5663 28.4775C44.2341 28.4848 44.7712 29.0219 44.7712 29.6825Z" fill="#121212"/>
<path d="M51.8345 29.6825C51.8345 30.3503 51.2973 30.8874 50.6295 30.8874C49.9617 30.8874 49.4246 30.3503 49.4246 29.6825C49.4246 29.0147 49.9617 28.4775 50.6295 28.4775C51.2973 28.4848 51.8345 29.0219 51.8345 29.6825Z" fill="#121212"/>
<path d="M57.6925 30.8874C58.358 30.8874 58.8974 30.348 58.8974 29.6825C58.8974 29.017 58.358 28.4775 57.6925 28.4775C57.027 28.4775 56.4875 29.017 56.4875 29.6825C56.4875 30.348 57.027 30.8874 57.6925 30.8874Z" fill="#121212"/>
<path d="M65.9604 29.6825C65.9604 30.3503 65.4233 30.8874 64.7555 30.8874C64.0877 30.8874 63.5505 30.3503 63.5505 29.6825C63.5505 29.0147 64.0877 28.4775 64.7555 28.4775C65.4233 28.4848 65.9604 29.0219 65.9604 29.6825Z" fill="#121212"/>
<path d="M2.40989 36.7963C2.40989 37.4641 1.87275 38.0012 1.20495 38.0012C0.537145 38.0012 0 37.4568 0 36.7963C0 36.1285 0.537145 35.5913 1.20495 35.5913C1.86549 35.5913 2.40989 36.1285 2.40989 36.7963Z" fill="#121212"/>
<path d="M8.26793 38.0012C8.93341 38.0012 9.47288 37.4617 9.47288 36.7963C9.47288 36.1308 8.93341 35.5913 8.26793 35.5913C7.60246 35.5913 7.06299 36.1308 7.06299 36.7963C7.06299 37.4617 7.60246 38.0012 8.26793 38.0012Z" fill="#121212"/>
<path d="M15.3226 38.0012C15.9881 38.0012 16.5276 37.4617 16.5276 36.7963C16.5276 36.1308 15.9881 35.5913 15.3226 35.5913C14.6571 35.5913 14.1177 36.1308 14.1177 36.7963C14.1177 37.4617 14.6571 38.0012 15.3226 38.0012Z" fill="#121212"/>
<path d="M23.5906 36.7963C23.5906 37.4641 23.0534 38.0012 22.3856 38.0012C21.7178 38.0012 21.1807 37.4641 21.1807 36.7963C21.1807 36.1285 21.7178 35.5913 22.3856 35.5913C23.0534 35.5913 23.5906 36.1285 23.5906 36.7963Z" fill="#121212"/>
<path d="M29.4486 38.0012C30.1141 38.0012 30.6535 37.4617 30.6535 36.7963C30.6535 36.1308 30.1141 35.5913 29.4486 35.5913C28.7831 35.5913 28.2437 36.1308 28.2437 36.7963C28.2437 37.4617 28.7831 38.0012 29.4486 38.0012Z" fill="#121212"/>
<path d="M36.5118 38.0012C37.1773 38.0012 37.7168 37.4617 37.7168 36.7963C37.7168 36.1308 37.1773 35.5913 36.5118 35.5913C35.8464 35.5913 35.3069 36.1308 35.3069 36.7963C35.3069 37.4617 35.8464 38.0012 36.5118 38.0012Z" fill="#121212"/>
<path d="M44.7712 36.7963C44.7712 37.4641 44.2341 38.0012 43.5663 38.0012C42.8985 38.0012 42.3613 37.4641 42.3613 36.7963C42.3613 36.1285 42.8985 35.5913 43.5663 35.5913C44.2341 35.5913 44.7712 36.1285 44.7712 36.7963Z" fill="#121212"/>
<path d="M51.8345 36.7963C51.8345 37.4641 51.2973 38.0012 50.6295 38.0012C49.9617 38.0012 49.4246 37.4641 49.4246 36.7963C49.4246 36.1285 49.9617 35.5913 50.6295 35.5913C51.2973 35.5913 51.8345 36.1285 51.8345 36.7963Z" fill="#121212"/>
<path d="M57.6925 38.0012C58.358 38.0012 58.8974 37.4617 58.8974 36.7963C58.8974 36.1308 58.358 35.5913 57.6925 35.5913C57.027 35.5913 56.4875 36.1308 56.4875 36.7963C56.4875 37.4617 57.027 38.0012 57.6925 38.0012Z" fill="#121212"/>
<path d="M65.9604 36.7963C65.9604 37.4641 65.4233 38.0012 64.7555 38.0012C64.0877 38.0012 63.5505 37.4641 63.5505 36.7963C63.5505 36.1285 64.0877 35.5913 64.7555 35.5913C65.4233 35.5913 65.9604 36.1285 65.9604 36.7963Z" fill="#121212"/>
<path d="M2.40989 43.9027C2.40989 44.5705 1.87275 45.1076 1.20495 45.1076C0.537145 45.1076 0 44.5705 0 43.9027C0 43.2349 0.537145 42.6978 1.20495 42.6978C1.86549 42.705 2.40989 43.2422 2.40989 43.9027Z" fill="#121212"/>
<path d="M8.26793 45.1076C8.93341 45.1076 9.47288 44.5682 9.47288 43.9027C9.47288 43.2372 8.93341 42.6978 8.26793 42.6978C7.60246 42.6978 7.06299 43.2372 7.06299 43.9027C7.06299 44.5682 7.60246 45.1076 8.26793 45.1076Z" fill="#121212"/>
<path d="M15.3226 45.1076C15.9881 45.1076 16.5276 44.5682 16.5276 43.9027C16.5276 43.2372 15.9881 42.6978 15.3226 42.6978C14.6571 42.6978 14.1177 43.2372 14.1177 43.9027C14.1177 44.5682 14.6571 45.1076 15.3226 45.1076Z" fill="#121212"/>
<path d="M23.5906 43.9027C23.5906 44.5705 23.0534 45.1076 22.3856 45.1076C21.7178 45.1076 21.1807 44.5705 21.1807 43.9027C21.1807 43.2349 21.7178 42.6978 22.3856 42.6978C23.0534 42.705 23.5906 43.2422 23.5906 43.9027Z" fill="#121212"/>
<path d="M29.4486 45.1076C30.1141 45.1076 30.6535 44.5682 30.6535 43.9027C30.6535 43.2372 30.1141 42.6978 29.4486 42.6978C28.7831 42.6978 28.2437 43.2372 28.2437 43.9027C28.2437 44.5682 28.7831 45.1076 29.4486 45.1076Z" fill="#121212"/>
<path d="M36.5118 45.1076C37.1773 45.1076 37.7168 44.5682 37.7168 43.9027C37.7168 43.2372 37.1773 42.6978 36.5118 42.6978C35.8464 42.6978 35.3069 43.2372 35.3069 43.9027C35.3069 44.5682 35.8464 45.1076 36.5118 45.1076Z" fill="#121212"/>
<path d="M44.7712 43.9027C44.7712 44.5705 44.2341 45.1076 43.5663 45.1076C42.8985 45.1076 42.3613 44.5705 42.3613 43.9027C42.3613 43.2349 42.8985 42.6978 43.5663 42.6978C44.2341 42.705 44.7712 43.2422 44.7712 43.9027Z" fill="#121212"/>
<path d="M51.8345 43.9027C51.8345 44.5705 51.2973 45.1076 50.6295 45.1076C49.9617 45.1076 49.4246 44.5705 49.4246 43.9027C49.4246 43.2349 49.9617 42.6978 50.6295 42.6978C51.2973 42.705 51.8345 43.2422 51.8345 43.9027Z" fill="#121212"/>
<path d="M57.6925 45.1076C58.358 45.1076 58.8974 44.5682 58.8974 43.9027C58.8974 43.2372 58.358 42.6978 57.6925 42.6978C57.027 42.6978 56.4875 43.2372 56.4875 43.9027C56.4875 44.5682 57.027 45.1076 57.6925 45.1076Z" fill="#121212"/>
<path d="M65.9604 43.9027C65.9604 44.5705 65.4233 45.1076 64.7555 45.1076C64.0877 45.1076 63.5505 44.5705 63.5505 43.9027C63.5505 43.2349 64.0877 42.6978 64.7555 42.6978C65.4233 42.705 65.9604 43.2422 65.9604 43.9027Z" fill="#121212"/>
<path d="M2.40989 51.016C2.40989 51.6838 1.87275 52.2209 1.20495 52.2209C0.537145 52.2209 0 51.6838 0 51.016C0 50.3482 0.537145 49.811 1.20495 49.811C1.86549 49.811 2.40989 50.3482 2.40989 51.016Z" fill="#121212"/>
<path d="M8.26793 52.2209C8.93341 52.2209 9.47288 51.6815 9.47288 51.016C9.47288 50.3505 8.93341 49.811 8.26793 49.811C7.60246 49.811 7.06299 50.3505 7.06299 51.016C7.06299 51.6815 7.60246 52.2209 8.26793 52.2209Z" fill="#121212"/>
<path d="M15.3226 52.2209C15.9881 52.2209 16.5276 51.6815 16.5276 51.016C16.5276 50.3505 15.9881 49.811 15.3226 49.811C14.6571 49.811 14.1177 50.3505 14.1177 51.016C14.1177 51.6815 14.6571 52.2209 15.3226 52.2209Z" fill="#121212"/>
<path d="M23.5906 51.016C23.5906 51.6838 23.0534 52.2209 22.3856 52.2209C21.7178 52.2209 21.1807 51.6838 21.1807 51.016C21.1807 50.3482 21.7178 49.811 22.3856 49.811C23.0534 49.811 23.5906 50.3482 23.5906 51.016Z" fill="#121212"/>
<path d="M29.4486 52.2209C30.1141 52.2209 30.6535 51.6815 30.6535 51.016C30.6535 50.3505 30.1141 49.811 29.4486 49.811C28.7831 49.811 28.2437 50.3505 28.2437 51.016C28.2437 51.6815 28.7831 52.2209 29.4486 52.2209Z" fill="#121212"/>
<path d="M36.5118 52.2209C37.1773 52.2209 37.7168 51.6815 37.7168 51.016C37.7168 50.3505 37.1773 49.811 36.5118 49.811C35.8464 49.811 35.3069 50.3505 35.3069 51.016C35.3069 51.6815 35.8464 52.2209 36.5118 52.2209Z" fill="#121212"/>
<path d="M44.7712 51.016C44.7712 51.6838 44.2341 52.2209 43.5663 52.2209C42.8985 52.2209 42.3613 51.6838 42.3613 51.016C42.3613 50.3482 42.8985 49.811 43.5663 49.811C44.2341 49.811 44.7712 50.3482 44.7712 51.016Z" fill="#121212"/>
<path d="M51.8345 51.016C51.8345 51.6838 51.2973 52.2209 50.6295 52.2209C49.9617 52.2209 49.4246 51.6838 49.4246 51.016C49.4246 50.3482 49.9617 49.811 50.6295 49.811C51.2973 49.811 51.8345 50.3482 51.8345 51.016Z" fill="#121212"/>
<path d="M57.6925 52.2209C58.358 52.2209 58.8974 51.6815 58.8974 51.016C58.8974 50.3505 58.358 49.811 57.6925 49.811C57.027 49.811 56.4875 50.3505 56.4875 51.016C56.4875 51.6815 57.027 52.2209 57.6925 52.2209Z" fill="#121212"/>
<path d="M65.9604 51.016C65.9604 51.6838 65.4233 52.2209 64.7555 52.2209C64.0877 52.2209 63.5505 51.6838 63.5505 51.016C63.5505 50.3482 64.0877 49.811 64.7555 49.811C65.4233 49.811 65.9604 50.3482 65.9604 51.016Z" fill="#121212"/>
<path d="M2.40989 58.1297C2.40989 58.7975 1.87275 59.3347 1.20495 59.3347C0.537145 59.3347 0 58.7975 0 58.1297C0 57.4619 0.537145 56.9248 1.20495 56.9248C1.86549 56.9248 2.40989 57.4619 2.40989 58.1297Z" fill="#121212"/>
<path d="M8.26793 59.3347C8.93341 59.3347 9.47288 58.7952 9.47288 58.1297C9.47288 57.4643 8.93341 56.9248 8.26793 56.9248C7.60246 56.9248 7.06299 57.4643 7.06299 58.1297C7.06299 58.7952 7.60246 59.3347 8.26793 59.3347Z" fill="#121212"/>
<path d="M15.3226 59.3347C15.9881 59.3347 16.5276 58.7952 16.5276 58.1297C16.5276 57.4643 15.9881 56.9248 15.3226 56.9248C14.6571 56.9248 14.1177 57.4643 14.1177 58.1297C14.1177 58.7952 14.6571 59.3347 15.3226 59.3347Z" fill="#121212"/>
<path d="M23.5906 58.1297C23.5906 58.7975 23.0534 59.3347 22.3856 59.3347C21.7178 59.3347 21.1807 58.7975 21.1807 58.1297C21.1807 57.4619 21.7178 56.9248 22.3856 56.9248C23.0534 56.9248 23.5906 57.4619 23.5906 58.1297Z" fill="#121212"/>
<path d="M29.4486 59.3347C30.1141 59.3347 30.6535 58.7952 30.6535 58.1297C30.6535 57.4643 30.1141 56.9248 29.4486 56.9248C28.7831 56.9248 28.2437 57.4643 28.2437 58.1297C28.2437 58.7952 28.7831 59.3347 29.4486 59.3347Z" fill="#121212"/>
<path d="M36.5118 59.3347C37.1773 59.3347 37.7168 58.7952 37.7168 58.1297C37.7168 57.4643 37.1773 56.9248 36.5118 56.9248C35.8464 56.9248 35.3069 57.4643 35.3069 58.1297C35.3069 58.7952 35.8464 59.3347 36.5118 59.3347Z" fill="#121212"/>
<path d="M44.7712 58.1297C44.7712 58.7975 44.2341 59.3347 43.5663 59.3347C42.8985 59.3347 42.3613 58.7975 42.3613 58.1297C42.3613 57.4619 42.8985 56.9248 43.5663 56.9248C44.2341 56.9248 44.7712 57.4619 44.7712 58.1297Z" fill="#121212"/>
<path d="M51.8345 58.1297C51.8345 58.7975 51.2973 59.3347 50.6295 59.3347C49.9617 59.3347 49.4246 58.7975 49.4246 58.1297C49.4246 57.4619 49.9617 56.9248 50.6295 56.9248C51.2973 56.9248 51.8345 57.4619 51.8345 58.1297Z" fill="#121212"/>
<path d="M57.6925 59.3347C58.358 59.3347 58.8974 58.7952 58.8974 58.1297C58.8974 57.4643 58.358 56.9248 57.6925 56.9248C57.027 56.9248 56.4875 57.4643 56.4875 58.1297C56.4875 58.7952 57.027 59.3347 57.6925 59.3347Z" fill="#121212"/>
<path d="M65.9604 58.1297C65.9604 58.7975 65.4233 59.3347 64.7555 59.3347C64.0877 59.3347 63.5505 58.7975 63.5505 58.1297C63.5505 57.4619 64.0877 56.9248 64.7555 56.9248C65.4233 56.9248 65.9604 57.4619 65.9604 58.1297Z" fill="#121212"/>
<path d="M2.40989 65.2357C2.40989 65.9035 1.87275 66.4407 1.20495 66.4407C0.537145 66.4407 0 65.9035 0 65.2357C0 64.5679 0.537145 64.0308 1.20495 64.0308C1.86549 64.0308 2.40989 64.5752 2.40989 65.2357Z" fill="#121212"/>
<path d="M8.26793 66.4407C8.93341 66.4407 9.47288 65.9012 9.47288 65.2357C9.47288 64.5702 8.93341 64.0308 8.26793 64.0308C7.60246 64.0308 7.06299 64.5702 7.06299 65.2357C7.06299 65.9012 7.60246 66.4407 8.26793 66.4407Z" fill="#121212"/>
<path d="M15.3226 66.4407C15.9881 66.4407 16.5276 65.9012 16.5276 65.2357C16.5276 64.5702 15.9881 64.0308 15.3226 64.0308C14.6571 64.0308 14.1177 64.5702 14.1177 65.2357C14.1177 65.9012 14.6571 66.4407 15.3226 66.4407Z" fill="#121212"/>
<path d="M23.5906 65.2357C23.5906 65.9035 23.0534 66.4407 22.3856 66.4407C21.7178 66.4407 21.1807 65.9035 21.1807 65.2357C21.1807 64.5679 21.7178 64.0308 22.3856 64.0308C23.0534 64.0308 23.5906 64.5752 23.5906 65.2357Z" fill="#121212"/>
<path d="M29.4486 66.4407C30.1141 66.4407 30.6535 65.9012 30.6535 65.2357C30.6535 64.5702 30.1141 64.0308 29.4486 64.0308C28.7831 64.0308 28.2437 64.5702 28.2437 65.2357C28.2437 65.9012 28.7831 66.4407 29.4486 66.4407Z" fill="#121212"/>
<path d="M36.5118 66.4407C37.1773 66.4407 37.7168 65.9012 37.7168 65.2357C37.7168 64.5702 37.1773 64.0308 36.5118 64.0308C35.8464 64.0308 35.3069 64.5702 35.3069 65.2357C35.3069 65.9012 35.8464 66.4407 36.5118 66.4407Z" fill="#121212"/>
<path d="M44.7712 65.2357C44.7712 65.9035 44.2341 66.4407 43.5663 66.4407C42.8985 66.4407 42.3613 65.9035 42.3613 65.2357C42.3613 64.5679 42.8985 64.0308 43.5663 64.0308C44.2341 64.0308 44.7712 64.5752 44.7712 65.2357Z" fill="#121212"/>
<path d="M51.8345 65.2357C51.8345 65.9035 51.2973 66.4407 50.6295 66.4407C49.9617 66.4407 49.4246 65.9035 49.4246 65.2357C49.4246 64.5679 49.9617 64.0308 50.6295 64.0308C51.2973 64.0308 51.8345 64.5752 51.8345 65.2357Z" fill="#121212"/>
<path d="M57.6925 66.4407C58.358 66.4407 58.8974 65.9012 58.8974 65.2357C58.8974 64.5702 58.358 64.0308 57.6925 64.0308C57.027 64.0308 56.4875 64.5702 56.4875 65.2357C56.4875 65.9012 57.027 66.4407 57.6925 66.4407Z" fill="#121212"/>
<path d="M65.9604 65.2357C65.9604 65.9035 65.4233 66.4407 64.7555 66.4407C64.0877 66.4407 63.5505 65.9035 63.5505 65.2357C63.5505 64.5679 64.0877 64.0308 64.7555 64.0308C65.4233 64.0308 65.9604 64.5752 65.9604 65.2357Z" fill="#121212"/>
<path d="M2.40989 72.3495C2.40989 73.0173 1.87275 73.5544 1.20495 73.5544C0.537145 73.5544 0 73.0173 0 72.3495C0 71.6817 0.537145 71.1445 1.20495 71.1445C1.86549 71.1445 2.40989 71.6817 2.40989 72.3495Z" fill="#121212"/>
<path d="M8.26793 73.5544C8.93341 73.5544 9.47288 73.015 9.47288 72.3495C9.47288 71.684 8.93341 71.1445 8.26793 71.1445C7.60246 71.1445 7.06299 71.684 7.06299 72.3495C7.06299 73.015 7.60246 73.5544 8.26793 73.5544Z" fill="#121212"/>
<path d="M15.3226 73.5544C15.9881 73.5544 16.5276 73.015 16.5276 72.3495C16.5276 71.684 15.9881 71.1445 15.3226 71.1445C14.6571 71.1445 14.1177 71.684 14.1177 72.3495C14.1177 73.015 14.6571 73.5544 15.3226 73.5544Z" fill="#121212"/>
<path d="M23.5906 72.3495C23.5906 73.0173 23.0534 73.5544 22.3856 73.5544C21.7178 73.5544 21.1807 73.0173 21.1807 72.3495C21.1807 71.6817 21.7178 71.1445 22.3856 71.1445C23.0534 71.1445 23.5906 71.6817 23.5906 72.3495Z" fill="#121212"/>
<path d="M29.4486 73.5544C30.1141 73.5544 30.6535 73.015 30.6535 72.3495C30.6535 71.684 30.1141 71.1445 29.4486 71.1445C28.7831 71.1445 28.2437 71.684 28.2437 72.3495C28.2437 73.015 28.7831 73.5544 29.4486 73.5544Z" fill="#121212"/>
<path d="M36.5118 73.5544C37.1773 73.5544 37.7168 73.015 37.7168 72.3495C37.7168 71.684 37.1773 71.1445 36.5118 71.1445C35.8464 71.1445 35.3069 71.684 35.3069 72.3495C35.3069 73.015 35.8464 73.5544 36.5118 73.5544Z" fill="#121212"/>
<path d="M44.7712 72.3495C44.7712 73.0173 44.2341 73.5544 43.5663 73.5544C42.8985 73.5544 42.3613 73.0173 42.3613 72.3495C42.3613 71.6817 42.8985 71.1445 43.5663 71.1445C44.2341 71.1445 44.7712 71.6817 44.7712 72.3495Z" fill="#121212"/>
<path d="M51.8345 72.3495C51.8345 73.0173 51.2973 73.5544 50.6295 73.5544C49.9617 73.5544 49.4246 73.0173 49.4246 72.3495C49.4246 71.6817 49.9617 71.1445 50.6295 71.1445C51.2973 71.1445 51.8345 71.6817 51.8345 72.3495Z" fill="#121212"/>
<path d="M57.6925 73.5544C58.358 73.5544 58.8974 73.015 58.8974 72.3495C58.8974 71.684 58.358 71.1445 57.6925 71.1445C57.027 71.1445 56.4875 71.684 56.4875 72.3495C56.4875 73.015 57.027 73.5544 57.6925 73.5544Z" fill="#121212"/>
<path d="M65.9604 72.3495C65.9604 73.0173 65.4233 73.5544 64.7555 73.5544C64.0877 73.5544 63.5505 73.0173 63.5505 72.3495C63.5505 71.6817 64.0877 71.1445 64.7555 71.1445C65.4233 71.1445 65.9604 71.6817 65.9604 72.3495Z" fill="#121212"/>
<path d="M2.40989 79.4554C2.40989 80.1232 1.87275 80.6604 1.20495 80.6604C0.537145 80.6604 0 80.1232 0 79.4554C0 78.7876 0.537145 78.2505 1.20495 78.2505C1.86549 78.2505 2.40989 78.7949 2.40989 79.4554Z" fill="#121212"/>
<path d="M8.26793 80.6604C8.93341 80.6604 9.47288 80.1209 9.47288 79.4554C9.47288 78.79 8.93341 78.2505 8.26793 78.2505C7.60246 78.2505 7.06299 78.79 7.06299 79.4554C7.06299 80.1209 7.60246 80.6604 8.26793 80.6604Z" fill="#121212"/>
<path d="M15.3226 80.6604C15.9881 80.6604 16.5276 80.1209 16.5276 79.4554C16.5276 78.79 15.9881 78.2505 15.3226 78.2505C14.6571 78.2505 14.1177 78.79 14.1177 79.4554C14.1177 80.1209 14.6571 80.6604 15.3226 80.6604Z" fill="#121212"/>
<path d="M23.5906 79.4554C23.5906 80.1232 23.0534 80.6604 22.3856 80.6604C21.7178 80.6604 21.1807 80.1232 21.1807 79.4554C21.1807 78.7876 21.7178 78.2505 22.3856 78.2505C23.0534 78.2505 23.5906 78.7949 23.5906 79.4554Z" fill="#121212"/>
<path d="M29.4486 80.6604C30.1141 80.6604 30.6535 80.1209 30.6535 79.4554C30.6535 78.79 30.1141 78.2505 29.4486 78.2505C28.7831 78.2505 28.2437 78.79 28.2437 79.4554C28.2437 80.1209 28.7831 80.6604 29.4486 80.6604Z" fill="#121212"/>
<path d="M36.5118 80.6604C37.1773 80.6604 37.7168 80.1209 37.7168 79.4554C37.7168 78.79 37.1773 78.2505 36.5118 78.2505C35.8464 78.2505 35.3069 78.79 35.3069 79.4554C35.3069 80.1209 35.8464 80.6604 36.5118 80.6604Z" fill="#121212"/>
<path d="M44.7712 79.4554C44.7712 80.1232 44.2341 80.6604 43.5663 80.6604C42.8985 80.6604 42.3613 80.1232 42.3613 79.4554C42.3613 78.7876 42.8985 78.2505 43.5663 78.2505C44.2341 78.2505 44.7712 78.7949 44.7712 79.4554Z" fill="#121212"/>
<path d="M51.8345 79.4554C51.8345 80.1232 51.2973 80.6604 50.6295 80.6604C49.9617 80.6604 49.4246 80.1232 49.4246 79.4554C49.4246 78.7876 49.9617 78.2505 50.6295 78.2505C51.2973 78.2505 51.8345 78.7949 51.8345 79.4554Z" fill="#121212"/>
<path d="M57.6925 80.6604C58.358 80.6604 58.8974 80.1209 58.8974 79.4554C58.8974 78.79 58.358 78.2505 57.6925 78.2505C57.027 78.2505 56.4875 78.79 56.4875 79.4554C56.4875 80.1209 57.027 80.6604 57.6925 80.6604Z" fill="#121212"/>
<path d="M65.9604 79.4554C65.9604 80.1232 65.4233 80.6604 64.7555 80.6604C64.0877 80.6604 63.5505 80.1232 63.5505 79.4554C63.5505 78.7876 64.0877 78.2505 64.7555 78.2505C65.4233 78.2505 65.9604 78.7949 65.9604 79.4554Z" fill="#121212"/>
<path d="M2.40989 86.5692C2.40989 87.237 1.87275 87.7742 1.20495 87.7742C0.537145 87.7742 0 87.237 0 86.5692C0 85.9014 0.537145 85.3643 1.20495 85.3643C1.86549 85.3643 2.40989 85.9014 2.40989 86.5692Z" fill="#121212"/>
<path d="M8.26793 87.7742C8.93341 87.7742 9.47288 87.2347 9.47288 86.5692C9.47288 85.9037 8.93341 85.3643 8.26793 85.3643C7.60246 85.3643 7.06299 85.9037 7.06299 86.5692C7.06299 87.2347 7.60246 87.7742 8.26793 87.7742Z" fill="#121212"/>
<path d="M15.3226 87.7742C15.9881 87.7742 16.5276 87.2347 16.5276 86.5692C16.5276 85.9037 15.9881 85.3643 15.3226 85.3643C14.6571 85.3643 14.1177 85.9037 14.1177 86.5692C14.1177 87.2347 14.6571 87.7742 15.3226 87.7742Z" fill="#121212"/>
<path d="M23.5906 86.5692C23.5906 87.237 23.0534 87.7742 22.3856 87.7742C21.7178 87.7742 21.1807 87.237 21.1807 86.5692C21.1807 85.9014 21.7178 85.3643 22.3856 85.3643C23.0534 85.3643 23.5906 85.9014 23.5906 86.5692Z" fill="#121212"/>
<path d="M29.4486 87.7742C30.1141 87.7742 30.6535 87.2347 30.6535 86.5692C30.6535 85.9037 30.1141 85.3643 29.4486 85.3643C28.7831 85.3643 28.2437 85.9037 28.2437 86.5692C28.2437 87.2347 28.7831 87.7742 29.4486 87.7742Z" fill="#121212"/>
<path d="M36.5118 87.7742C37.1773 87.7742 37.7168 87.2347 37.7168 86.5692C37.7168 85.9037 37.1773 85.3643 36.5118 85.3643C35.8464 85.3643 35.3069 85.9037 35.3069 86.5692C35.3069 87.2347 35.8464 87.7742 36.5118 87.7742Z" fill="#121212"/>
<path d="M44.7712 86.5692C44.7712 87.237 44.2341 87.7742 43.5663 87.7742C42.8985 87.7742 42.3613 87.237 42.3613 86.5692C42.3613 85.9014 42.8985 85.3643 43.5663 85.3643C44.2341 85.3643 44.7712 85.9014 44.7712 86.5692Z" fill="#121212"/>
<path d="M51.8345 86.5692C51.8345 87.237 51.2973 87.7742 50.6295 87.7742C49.9617 87.7742 49.4246 87.237 49.4246 86.5692C49.4246 85.9014 49.9617 85.3643 50.6295 85.3643C51.2973 85.3643 51.8345 85.9014 51.8345 86.5692Z" fill="#121212"/>
<path d="M57.6925 87.7742C58.358 87.7742 58.8974 87.2347 58.8974 86.5692C58.8974 85.9037 58.358 85.3643 57.6925 85.3643C57.027 85.3643 56.4875 85.9037 56.4875 86.5692C56.4875 87.2347 57.027 87.7742 57.6925 87.7742Z" fill="#121212"/>
<path d="M65.9604 86.5692C65.9604 87.237 65.4233 87.7742 64.7555 87.7742C64.0877 87.7742 63.5505 87.237 63.5505 86.5692C63.5505 85.9014 64.0877 85.3643 64.7555 85.3643C65.4233 85.3643 65.9604 85.9014 65.9604 86.5692Z" fill="#121212"/>
<path d="M2.40989 93.6757C2.40989 94.3435 1.87275 94.8806 1.20495 94.8806C0.537145 94.8806 0 94.3435 0 93.6757C0 93.0079 0.537145 92.4707 1.20495 92.4707C1.86549 92.478 2.40989 93.0151 2.40989 93.6757Z" fill="#121212"/>
<path d="M8.26793 94.8806C8.93341 94.8806 9.47288 94.3411 9.47288 93.6757C9.47288 93.0102 8.93341 92.4707 8.26793 92.4707C7.60246 92.4707 7.06299 93.0102 7.06299 93.6757C7.06299 94.3411 7.60246 94.8806 8.26793 94.8806Z" fill="#121212"/>
<path d="M15.3226 94.8806C15.9881 94.8806 16.5276 94.3411 16.5276 93.6757C16.5276 93.0102 15.9881 92.4707 15.3226 92.4707C14.6571 92.4707 14.1177 93.0102 14.1177 93.6757C14.1177 94.3411 14.6571 94.8806 15.3226 94.8806Z" fill="#121212"/>
<path d="M23.5906 93.6757C23.5906 94.3435 23.0534 94.8806 22.3856 94.8806C21.7178 94.8806 21.1807 94.3435 21.1807 93.6757C21.1807 93.0079 21.7178 92.4707 22.3856 92.4707C23.0534 92.478 23.5906 93.0151 23.5906 93.6757Z" fill="#121212"/>
<path d="M29.4486 94.8806C30.1141 94.8806 30.6535 94.3411 30.6535 93.6757C30.6535 93.0102 30.1141 92.4707 29.4486 92.4707C28.7831 92.4707 28.2437 93.0102 28.2437 93.6757C28.2437 94.3411 28.7831 94.8806 29.4486 94.8806Z" fill="#121212"/>
<path d="M36.5118 94.8806C37.1773 94.8806 37.7168 94.3411 37.7168 93.6757C37.7168 93.0102 37.1773 92.4707 36.5118 92.4707C35.8464 92.4707 35.3069 93.0102 35.3069 93.6757C35.3069 94.3411 35.8464 94.8806 36.5118 94.8806Z" fill="#121212"/>
<path d="M44.7712 93.6757C44.7712 94.3435 44.2341 94.8806 43.5663 94.8806C42.8985 94.8806 42.3613 94.3435 42.3613 93.6757C42.3613 93.0079 42.8985 92.4707 43.5663 92.4707C44.2341 92.478 44.7712 93.0151 44.7712 93.6757Z" fill="#121212"/>
<path d="M51.8345 93.6757C51.8345 94.3435 51.2973 94.8806 50.6295 94.8806C49.9617 94.8806 49.4246 94.3435 49.4246 93.6757C49.4246 93.0079 49.9617 92.4707 50.6295 92.4707C51.2973 92.478 51.8345 93.0151 51.8345 93.6757Z" fill="#121212"/>
<path d="M57.6925 94.8806C58.358 94.8806 58.8974 94.3411 58.8974 93.6757C58.8974 93.0102 58.358 92.4707 57.6925 92.4707C57.027 92.4707 56.4875 93.0102 56.4875 93.6757C56.4875 94.3411 57.027 94.8806 57.6925 94.8806Z" fill="#121212"/>
<path d="M65.9604 93.6757C65.9604 94.3435 65.4233 94.8806 64.7555 94.8806C64.0877 94.8806 63.5505 94.3435 63.5505 93.6757C63.5505 93.0079 64.0877 92.4707 64.7555 92.4707C65.4233 92.478 65.9604 93.0151 65.9604 93.6757Z" fill="#121212"/>
<path d="M2.40989 100.789C2.40989 101.457 1.87275 101.994 1.20495 101.994C0.537145 101.994 0 101.457 0 100.789C0 100.121 0.537145 99.584 1.20495 99.584C1.86549 99.584 2.40989 100.121 2.40989 100.789Z" fill="#121212"/>
<path d="M8.26793 101.994C8.93341 101.994 9.47288 101.454 9.47288 100.789C9.47288 100.123 8.93341 99.584 8.26793 99.584C7.60246 99.584 7.06299 100.123 7.06299 100.789C7.06299 101.454 7.60246 101.994 8.26793 101.994Z" fill="#121212"/>
<path d="M15.3226 101.994C15.9881 101.994 16.5276 101.454 16.5276 100.789C16.5276 100.123 15.9881 99.584 15.3226 99.584C14.6571 99.584 14.1177 100.123 14.1177 100.789C14.1177 101.454 14.6571 101.994 15.3226 101.994Z" fill="#121212"/>
<path d="M23.5906 100.789C23.5906 101.457 23.0534 101.994 22.3856 101.994C21.7178 101.994 21.1807 101.457 21.1807 100.789C21.1807 100.121 21.7178 99.584 22.3856 99.584C23.0534 99.584 23.5906 100.121 23.5906 100.789Z" fill="#121212"/>
<path d="M29.4486 101.994C30.1141 101.994 30.6535 101.454 30.6535 100.789C30.6535 100.123 30.1141 99.584 29.4486 99.584C28.7831 99.584 28.2437 100.123 28.2437 100.789C28.2437 101.454 28.7831 101.994 29.4486 101.994Z" fill="#121212"/>
<path d="M36.5118 101.994C37.1773 101.994 37.7168 101.454 37.7168 100.789C37.7168 100.123 37.1773 99.584 36.5118 99.584C35.8464 99.584 35.3069 100.123 35.3069 100.789C35.3069 101.454 35.8464 101.994 36.5118 101.994Z" fill="#121212"/>
<path d="M44.7712 100.789C44.7712 101.457 44.2341 101.994 43.5663 101.994C42.8985 101.994 42.3613 101.457 42.3613 100.789C42.3613 100.121 42.8985 99.584 43.5663 99.584C44.2341 99.584 44.7712 100.121 44.7712 100.789Z" fill="#121212"/>
<path d="M51.8345 100.789C51.8345 101.457 51.2973 101.994 50.6295 101.994C49.9617 101.994 49.4246 101.457 49.4246 100.789C49.4246 100.121 49.9617 99.584 50.6295 99.584C51.2973 99.584 51.8345 100.121 51.8345 100.789Z" fill="#121212"/>
<path d="M57.6925 101.994C58.358 101.994 58.8974 101.454 58.8974 100.789C58.8974 100.123 58.358 99.584 57.6925 99.584C57.027 99.584 56.4875 100.123 56.4875 100.789C56.4875 101.454 57.027 101.994 57.6925 101.994Z" fill="#121212"/>
<path d="M65.9604 100.789C65.9604 101.457 65.4233 101.994 64.7555 101.994C64.0877 101.994 63.5505 101.457 63.5505 100.789C63.5505 100.121 64.0877 99.584 64.7555 99.584C65.4233 99.584 65.9604 100.121 65.9604 100.789Z" fill="#121212"/>
<path d="M2.40989 107.895C2.40989 108.563 1.87275 109.1 1.20495 109.1C0.537145 109.1 0 108.563 0 107.895C0 107.228 0.537145 106.69 1.20495 106.69C1.86549 106.698 2.40989 107.235 2.40989 107.895Z" fill="#121212"/>
<path d="M8.26793 109.1C8.93341 109.1 9.47288 108.561 9.47288 107.895C9.47288 107.23 8.93341 106.69 8.26793 106.69C7.60246 106.69 7.06299 107.23 7.06299 107.895C7.06299 108.561 7.60246 109.1 8.26793 109.1Z" fill="#121212"/>
<path d="M15.3226 109.1C15.9881 109.1 16.5276 108.561 16.5276 107.895C16.5276 107.23 15.9881 106.69 15.3226 106.69C14.6571 106.69 14.1177 107.23 14.1177 107.895C14.1177 108.561 14.6571 109.1 15.3226 109.1Z" fill="#121212"/>
<path d="M23.5906 107.895C23.5906 108.563 23.0534 109.1 22.3856 109.1C21.7178 109.1 21.1807 108.563 21.1807 107.895C21.1807 107.228 21.7178 106.69 22.3856 106.69C23.0534 106.698 23.5906 107.235 23.5906 107.895Z" fill="#121212"/>
<path d="M29.4486 109.1C30.1141 109.1 30.6535 108.561 30.6535 107.895C30.6535 107.23 30.1141 106.69 29.4486 106.69C28.7831 106.69 28.2437 107.23 28.2437 107.895C28.2437 108.561 28.7831 109.1 29.4486 109.1Z" fill="#121212"/>
<path d="M36.5118 109.1C37.1773 109.1 37.7168 108.561 37.7168 107.895C37.7168 107.23 37.1773 106.69 36.5118 106.69C35.8464 106.69 35.3069 107.23 35.3069 107.895C35.3069 108.561 35.8464 109.1 36.5118 109.1Z" fill="#121212"/>
<path d="M44.7712 107.895C44.7712 108.563 44.2341 109.1 43.5663 109.1C42.8985 109.1 42.3613 108.563 42.3613 107.895C42.3613 107.228 42.8985 106.69 43.5663 106.69C44.2341 106.698 44.7712 107.235 44.7712 107.895Z" fill="#121212"/>
<path d="M51.8345 107.895C51.8345 108.563 51.2973 109.1 50.6295 109.1C49.9617 109.1 49.4246 108.563 49.4246 107.895C49.4246 107.228 49.9617 106.69 50.6295 106.69C51.2973 106.698 51.8345 107.235 51.8345 107.895Z" fill="#121212"/>
<path d="M57.6925 109.1C58.358 109.1 58.8974 108.561 58.8974 107.895C58.8974 107.23 58.358 106.69 57.6925 106.69C57.027 106.69 56.4875 107.23 56.4875 107.895C56.4875 108.561 57.027 109.1 57.6925 109.1Z" fill="#121212"/>
<path d="M65.9604 107.895C65.9604 108.563 65.4233 109.1 64.7555 109.1C64.0877 109.1 63.5505 108.563 63.5505 107.895C63.5505 107.228 64.0877 106.69 64.7555 106.69C65.4233 106.698 65.9604 107.235 65.9604 107.895Z" fill="#121212"/>
</svg>
