<svg width="59" height="97" viewBox="0 0 59 97" fill="none" xmlns="http://www.w3.org/2000/svg">
<path d="M1.07116 2.1338C1.66275 2.1338 2.14232 1.65613 2.14232 1.0669C2.14232 0.477666 1.66275 0 1.07116 0C0.479575 0 0 0.477666 0 1.0669C0 1.65613 0.479575 2.1338 1.07116 2.1338Z" fill="#121212"/>
<path d="M8.41454 1.0669C8.41454 1.65819 7.93703 2.1338 7.34338 2.1338C6.74972 2.1338 6.27222 1.65819 6.27222 1.0669C6.27222 0.475605 6.75618 0 7.34983 0C7.93703 0 8.41454 0.475605 8.41454 1.0669Z" fill="#121212"/>
<path d="M14.6929 1.0669C14.6929 1.65819 14.2154 2.1338 13.6217 2.1338C13.028 2.1338 12.5505 1.65819 12.5505 1.0669C12.5505 0.475605 13.0345 0 13.6217 0C14.2154 0 14.6929 0.475605 14.6929 1.0669Z" fill="#121212"/>
<path d="M19.9003 2.1338C20.4919 2.1338 20.9714 1.65613 20.9714 1.0669C20.9714 0.477666 20.4919 0 19.9003 0C19.3087 0 18.8291 0.477666 18.8291 1.0669C18.8291 1.65613 19.3087 2.1338 19.9003 2.1338Z" fill="#121212"/>
<path d="M27.25 1.0669C27.25 1.65819 26.7725 2.1338 26.1788 2.1338C25.5852 2.1338 25.1077 1.65819 25.1077 1.0669C25.1077 0.475605 25.5916 0 26.1788 0C26.7725 0 27.25 0.475605 27.25 1.0669Z" fill="#121212"/>
<path d="M33.5283 1.0669C33.5283 1.65819 33.0508 2.1338 32.4571 2.1338C31.8635 2.1338 31.386 1.65819 31.386 1.0669C31.386 0.475605 31.8635 0 32.4571 0C33.0508 0 33.5283 0.475605 33.5283 1.0669Z" fill="#121212"/>
<path d="M38.736 2.1338C39.3275 2.1338 39.8071 1.65613 39.8071 1.0669C39.8071 0.477666 39.3275 0 38.736 0C38.1444 0 37.6648 0.477666 37.6648 1.0669C37.6648 1.65613 38.1444 2.1338 38.736 2.1338Z" fill="#121212"/>
<path d="M45.0145 2.1338C45.6061 2.1338 46.0857 1.65613 46.0857 1.0669C46.0857 0.477666 45.6061 0 45.0145 0C44.4229 0 43.9434 0.477666 43.9434 1.0669C43.9434 1.65613 44.4229 2.1338 45.0145 2.1338Z" fill="#121212"/>
<path d="M52.3579 1.0669C52.3579 1.65819 51.8804 2.1338 51.2867 2.1338C50.6931 2.1338 50.2156 1.65819 50.2156 1.0669C50.2156 0.475605 50.6995 0 51.2867 0C51.8804 0 52.3579 0.475605 52.3579 1.0669Z" fill="#121212"/>
<path d="M57.5653 2.1338C58.1569 2.1338 58.6365 1.65613 58.6365 1.0669C58.6365 0.477666 58.1569 0 57.5653 0C56.9737 0 56.4941 0.477666 56.4941 1.0669C56.4941 1.65613 56.9737 2.1338 57.5653 2.1338Z" fill="#121212"/>
<path d="M1.07116 8.42579C1.66275 8.42579 2.14232 7.94812 2.14232 7.35889C2.14232 6.76966 1.66275 6.29199 1.07116 6.29199C0.479575 6.29199 0 6.76966 0 7.35889C0 7.94812 0.479575 8.42579 1.07116 8.42579Z" fill="#121212"/>
<path d="M8.41454 7.35889C8.41454 7.95018 7.93703 8.42579 7.34338 8.42579C6.74972 8.42579 6.27222 7.95018 6.27222 7.35889C6.27222 6.7676 6.74972 6.29199 7.34338 6.29199C7.93703 6.29842 8.41454 6.77402 8.41454 7.35889Z" fill="#121212"/>
<path d="M14.6929 7.35889C14.6929 7.95018 14.2154 8.42579 13.6217 8.42579C13.028 8.42579 12.5505 7.95018 12.5505 7.35889C12.5505 6.7676 13.028 6.29199 13.6217 6.29199C14.2154 6.29842 14.6929 6.77402 14.6929 7.35889Z" fill="#121212"/>
<path d="M19.9003 8.42579C20.4919 8.42579 20.9714 7.94812 20.9714 7.35889C20.9714 6.76966 20.4919 6.29199 19.9003 6.29199C19.3087 6.29199 18.8291 6.76966 18.8291 7.35889C18.8291 7.94812 19.3087 8.42579 19.9003 8.42579Z" fill="#121212"/>
<path d="M27.25 7.35889C27.25 7.95018 26.7725 8.42579 26.1788 8.42579C25.5852 8.42579 25.1077 7.95018 25.1077 7.35889C25.1077 6.7676 25.5852 6.29199 26.1788 6.29199C26.7725 6.29842 27.25 6.77402 27.25 7.35889Z" fill="#121212"/>
<path d="M33.5283 7.35889C33.5283 7.95018 33.0508 8.42579 32.4571 8.42579C31.8635 8.42579 31.386 7.95018 31.386 7.35889C31.386 6.7676 31.8635 6.29199 32.4571 6.29199C33.0508 6.29199 33.5283 6.77402 33.5283 7.35889Z" fill="#121212"/>
<path d="M38.736 8.42579C39.3275 8.42579 39.8071 7.94812 39.8071 7.35889C39.8071 6.76966 39.3275 6.29199 38.736 6.29199C38.1444 6.29199 37.6648 6.76966 37.6648 7.35889C37.6648 7.94812 38.1444 8.42579 38.736 8.42579Z" fill="#121212"/>
<path d="M45.0145 8.42579C45.6061 8.42579 46.0857 7.94812 46.0857 7.35889C46.0857 6.76966 45.6061 6.29199 45.0145 6.29199C44.4229 6.29199 43.9434 6.76966 43.9434 7.35889C43.9434 7.94812 44.4229 8.42579 45.0145 8.42579Z" fill="#121212"/>
<path d="M52.3579 7.35889C52.3579 7.95018 51.8804 8.42579 51.2867 8.42579C50.6931 8.42579 50.2156 7.95018 50.2156 7.35889C50.2156 6.7676 50.6931 6.29199 51.2867 6.29199C51.8804 6.29842 52.3579 6.77402 52.3579 7.35889Z" fill="#121212"/>
<path d="M57.5653 8.42579C58.1569 8.42579 58.6365 7.94812 58.6365 7.35889C58.6365 6.76966 58.1569 6.29199 57.5653 6.29199C56.9737 6.29199 56.4941 6.76966 56.4941 7.35889C56.4941 7.94812 56.9737 8.42579 57.5653 8.42579Z" fill="#121212"/>
<path d="M1.07116 14.7246C1.66275 14.7246 2.14232 14.2469 2.14232 13.6577C2.14232 13.0685 1.66275 12.5908 1.07116 12.5908C0.479575 12.5908 0 13.0685 0 13.6577C0 14.2469 0.479575 14.7246 1.07116 14.7246Z" fill="#121212"/>
<path d="M8.41454 13.6577C8.41454 14.249 7.93703 14.7246 7.34338 14.7246C6.74972 14.7246 6.27222 14.249 6.27222 13.6577C6.27222 13.0664 6.74972 12.5908 7.34338 12.5908C7.93703 12.5908 8.41454 13.0664 8.41454 13.6577Z" fill="#121212"/>
<path d="M14.6929 13.6577C14.6929 14.249 14.2154 14.7246 13.6217 14.7246C13.028 14.7246 12.5505 14.249 12.5505 13.6577C12.5505 13.0664 13.028 12.5908 13.6217 12.5908C14.2154 12.5908 14.6929 13.0664 14.6929 13.6577Z" fill="#121212"/>
<path d="M19.9003 14.7246C20.4919 14.7246 20.9714 14.2469 20.9714 13.6577C20.9714 13.0685 20.4919 12.5908 19.9003 12.5908C19.3087 12.5908 18.8291 13.0685 18.8291 13.6577C18.8291 14.2469 19.3087 14.7246 19.9003 14.7246Z" fill="#121212"/>
<path d="M27.25 13.6577C27.25 14.249 26.7725 14.7246 26.1788 14.7246C25.5852 14.7246 25.1077 14.249 25.1077 13.6577C25.1077 13.0664 25.5852 12.5908 26.1788 12.5908C26.7725 12.5908 27.25 13.0664 27.25 13.6577Z" fill="#121212"/>
<path d="M33.5283 13.6577C33.5283 14.249 33.0508 14.7246 32.4571 14.7246C31.8635 14.7246 31.386 14.249 31.386 13.6577C31.386 13.0664 31.8635 12.5908 32.4571 12.5908C33.0508 12.5908 33.5283 13.0664 33.5283 13.6577Z" fill="#121212"/>
<path d="M38.736 14.7246C39.3275 14.7246 39.8071 14.2469 39.8071 13.6577C39.8071 13.0685 39.3275 12.5908 38.736 12.5908C38.1444 12.5908 37.6648 13.0685 37.6648 13.6577C37.6648 14.2469 38.1444 14.7246 38.736 14.7246Z" fill="#121212"/>
<path d="M45.0145 14.7246C45.6061 14.7246 46.0857 14.2469 46.0857 13.6577C46.0857 13.0685 45.6061 12.5908 45.0145 12.5908C44.4229 12.5908 43.9434 13.0685 43.9434 13.6577C43.9434 14.2469 44.4229 14.7246 45.0145 14.7246Z" fill="#121212"/>
<path d="M52.3579 13.6577C52.3579 14.249 51.8804 14.7246 51.2867 14.7246C50.6931 14.7246 50.2156 14.249 50.2156 13.6577C50.2156 13.0664 50.6931 12.5908 51.2867 12.5908C51.8804 12.5908 52.3579 13.0664 52.3579 13.6577Z" fill="#121212"/>
<path d="M57.5653 14.7246C58.1569 14.7246 58.6365 14.2469 58.6365 13.6577C58.6365 13.0685 58.1569 12.5908 57.5653 12.5908C56.9737 12.5908 56.4941 13.0685 56.4941 13.6577C56.4941 14.2469 56.9737 14.7246 57.5653 14.7246Z" fill="#121212"/>
<path d="M1.07116 21.0166C1.66275 21.0166 2.14232 20.5389 2.14232 19.9497C2.14232 19.3605 1.66275 18.8828 1.07116 18.8828C0.479575 18.8828 0 19.3605 0 19.9497C0 20.5389 0.479575 21.0166 1.07116 21.0166Z" fill="#121212"/>
<path d="M8.41454 19.9497C8.41454 20.541 7.93703 21.0166 7.34338 21.0166C6.74972 21.0166 6.27222 20.541 6.27222 19.9497C6.27222 19.3584 6.74972 18.8828 7.34338 18.8828C7.93703 18.8892 8.41454 19.3648 8.41454 19.9497Z" fill="#121212"/>
<path d="M14.6929 19.9497C14.6929 20.541 14.2154 21.0166 13.6217 21.0166C13.028 21.0166 12.5505 20.541 12.5505 19.9497C12.5505 19.3584 13.028 18.8828 13.6217 18.8828C14.2154 18.8892 14.6929 19.3648 14.6929 19.9497Z" fill="#121212"/>
<path d="M19.9003 21.0166C20.4919 21.0166 20.9714 20.5389 20.9714 19.9497C20.9714 19.3605 20.4919 18.8828 19.9003 18.8828C19.3087 18.8828 18.8291 19.3605 18.8291 19.9497C18.8291 20.5389 19.3087 21.0166 19.9003 21.0166Z" fill="#121212"/>
<path d="M27.25 19.9497C27.25 20.541 26.7725 21.0166 26.1788 21.0166C25.5852 21.0166 25.1077 20.541 25.1077 19.9497C25.1077 19.3584 25.5852 18.8828 26.1788 18.8828C26.7725 18.8892 27.25 19.3648 27.25 19.9497Z" fill="#121212"/>
<path d="M33.5283 19.9497C33.5283 20.541 33.0508 21.0166 32.4571 21.0166C31.8635 21.0166 31.386 20.541 31.386 19.9497C31.386 19.3584 31.8635 18.8828 32.4571 18.8828C33.0508 18.8828 33.5283 19.3648 33.5283 19.9497Z" fill="#121212"/>
<path d="M38.736 21.0166C39.3275 21.0166 39.8071 20.5389 39.8071 19.9497C39.8071 19.3605 39.3275 18.8828 38.736 18.8828C38.1444 18.8828 37.6648 19.3605 37.6648 19.9497C37.6648 20.5389 38.1444 21.0166 38.736 21.0166Z" fill="#121212"/>
<path d="M45.0145 21.0166C45.6061 21.0166 46.0857 20.5389 46.0857 19.9497C46.0857 19.3605 45.6061 18.8828 45.0145 18.8828C44.4229 18.8828 43.9434 19.3605 43.9434 19.9497C43.9434 20.5389 44.4229 21.0166 45.0145 21.0166Z" fill="#121212"/>
<path d="M52.3579 19.9497C52.3579 20.541 51.8804 21.0166 51.2867 21.0166C50.6931 21.0166 50.2156 20.541 50.2156 19.9497C50.2156 19.3584 50.6931 18.8828 51.2867 18.8828C51.8804 18.8892 52.3579 19.3648 52.3579 19.9497Z" fill="#121212"/>
<path d="M57.5653 21.0166C58.1569 21.0166 58.6365 20.5389 58.6365 19.9497C58.6365 19.3605 58.1569 18.8828 57.5653 18.8828C56.9737 18.8828 56.4941 19.3605 56.4941 19.9497C56.4941 20.5389 56.9737 21.0166 57.5653 21.0166Z" fill="#121212"/>
<path d="M1.07116 27.3149C1.66275 27.3149 2.14232 26.8373 2.14232 26.248C2.14232 25.6588 1.66275 25.1812 1.07116 25.1812C0.479575 25.1812 0 25.6588 0 26.248C0 26.8373 0.479575 27.3149 1.07116 27.3149Z" fill="#121212"/>
<path d="M8.41454 26.248C8.41454 26.8393 7.93703 27.3149 7.34338 27.3149C6.74972 27.3149 6.27222 26.8393 6.27222 26.248C6.27222 25.6568 6.74972 25.1812 7.34338 25.1812C7.93703 25.1812 8.41454 25.6568 8.41454 26.248Z" fill="#121212"/>
<path d="M14.6929 26.248C14.6929 26.8393 14.2154 27.3149 13.6217 27.3149C13.028 27.3149 12.5505 26.8393 12.5505 26.248C12.5505 25.6568 13.028 25.1812 13.6217 25.1812C14.2154 25.1812 14.6929 25.6568 14.6929 26.248Z" fill="#121212"/>
<path d="M19.9003 27.3149C20.4919 27.3149 20.9714 26.8373 20.9714 26.248C20.9714 25.6588 20.4919 25.1812 19.9003 25.1812C19.3087 25.1812 18.8291 25.6588 18.8291 26.248C18.8291 26.8373 19.3087 27.3149 19.9003 27.3149Z" fill="#121212"/>
<path d="M27.25 26.248C27.25 26.8393 26.7725 27.3149 26.1788 27.3149C25.5852 27.3149 25.1077 26.8393 25.1077 26.248C25.1077 25.6568 25.5852 25.1812 26.1788 25.1812C26.7725 25.1812 27.25 25.6568 27.25 26.248Z" fill="#121212"/>
<path d="M33.5283 26.248C33.5283 26.8393 33.0508 27.3149 32.4571 27.3149C31.8635 27.3149 31.386 26.8393 31.386 26.248C31.386 25.6568 31.8635 25.1812 32.4571 25.1812C33.0508 25.1812 33.5283 25.6568 33.5283 26.248Z" fill="#121212"/>
<path d="M38.736 27.3149C39.3275 27.3149 39.8071 26.8373 39.8071 26.248C39.8071 25.6588 39.3275 25.1812 38.736 25.1812C38.1444 25.1812 37.6648 25.6588 37.6648 26.248C37.6648 26.8373 38.1444 27.3149 38.736 27.3149Z" fill="#121212"/>
<path d="M45.0145 27.3149C45.6061 27.3149 46.0857 26.8373 46.0857 26.248C46.0857 25.6588 45.6061 25.1812 45.0145 25.1812C44.4229 25.1812 43.9434 25.6588 43.9434 26.248C43.9434 26.8373 44.4229 27.3149 45.0145 27.3149Z" fill="#121212"/>
<path d="M52.3579 26.248C52.3579 26.8393 51.8804 27.3149 51.2867 27.3149C50.6931 27.3149 50.2156 26.8393 50.2156 26.248C50.2156 25.6568 50.6931 25.1812 51.2867 25.1812C51.8804 25.1812 52.3579 25.6568 52.3579 26.248Z" fill="#121212"/>
<path d="M57.5653 27.3149C58.1569 27.3149 58.6365 26.8373 58.6365 26.248C58.6365 25.6588 58.1569 25.1812 57.5653 25.1812C56.9737 25.1812 56.4941 25.6588 56.4941 26.248C56.4941 26.8373 56.9737 27.3149 57.5653 27.3149Z" fill="#121212"/>
<path d="M1.07116 33.6074C1.66275 33.6074 2.14232 33.1298 2.14232 32.5405C2.14232 31.9513 1.66275 31.4736 1.07116 31.4736C0.479575 31.4736 0 31.9513 0 32.5405C0 33.1298 0.479575 33.6074 1.07116 33.6074Z" fill="#121212"/>
<path d="M8.41454 32.5405C8.41454 33.1318 7.93703 33.6074 7.34338 33.6074C6.74972 33.6074 6.27222 33.1318 6.27222 32.5405C6.27222 31.9492 6.74972 31.4736 7.34338 31.4736C7.93703 31.4801 8.41454 31.9557 8.41454 32.5405Z" fill="#121212"/>
<path d="M14.6929 32.5405C14.6929 33.1318 14.2154 33.6074 13.6217 33.6074C13.028 33.6074 12.5505 33.1318 12.5505 32.5405C12.5505 31.9492 13.028 31.4736 13.6217 31.4736C14.2154 31.4801 14.6929 31.9557 14.6929 32.5405Z" fill="#121212"/>
<path d="M19.9003 33.6074C20.4919 33.6074 20.9714 33.1298 20.9714 32.5405C20.9714 31.9513 20.4919 31.4736 19.9003 31.4736C19.3087 31.4736 18.8291 31.9513 18.8291 32.5405C18.8291 33.1298 19.3087 33.6074 19.9003 33.6074Z" fill="#121212"/>
<path d="M27.25 32.5405C27.25 33.1318 26.7725 33.6074 26.1788 33.6074C25.5852 33.6074 25.1077 33.1318 25.1077 32.5405C25.1077 31.9492 25.5852 31.4736 26.1788 31.4736C26.7725 31.4801 27.25 31.9557 27.25 32.5405Z" fill="#121212"/>
<path d="M33.5283 32.5405C33.5283 33.1318 33.0508 33.6074 32.4571 33.6074C31.8635 33.6074 31.386 33.1318 31.386 32.5405C31.386 31.9492 31.8635 31.4736 32.4571 31.4736C33.0508 31.4736 33.5283 31.9557 33.5283 32.5405Z" fill="#121212"/>
<path d="M38.736 33.6074C39.3275 33.6074 39.8071 33.1298 39.8071 32.5405C39.8071 31.9513 39.3275 31.4736 38.736 31.4736C38.1444 31.4736 37.6648 31.9513 37.6648 32.5405C37.6648 33.1298 38.1444 33.6074 38.736 33.6074Z" fill="#121212"/>
<path d="M45.0145 33.6074C45.6061 33.6074 46.0857 33.1298 46.0857 32.5405C46.0857 31.9513 45.6061 31.4736 45.0145 31.4736C44.4229 31.4736 43.9434 31.9513 43.9434 32.5405C43.9434 33.1298 44.4229 33.6074 45.0145 33.6074Z" fill="#121212"/>
<path d="M52.3579 32.5405C52.3579 33.1318 51.8804 33.6074 51.2867 33.6074C50.6931 33.6074 50.2156 33.1318 50.2156 32.5405C50.2156 31.9492 50.6931 31.4736 51.2867 31.4736C51.8804 31.4801 52.3579 31.9557 52.3579 32.5405Z" fill="#121212"/>
<path d="M57.5653 33.6074C58.1569 33.6074 58.6365 33.1298 58.6365 32.5405C58.6365 31.9513 58.1569 31.4736 57.5653 31.4736C56.9737 31.4736 56.4941 31.9513 56.4941 32.5405C56.4941 33.1298 56.9737 33.6074 57.5653 33.6074Z" fill="#121212"/>
<path d="M1.07116 39.9058C1.66275 39.9058 2.14232 39.4281 2.14232 38.8389C2.14232 38.2496 1.66275 37.772 1.07116 37.772C0.479575 37.772 0 38.2496 0 38.8389C0 39.4281 0.479575 39.9058 1.07116 39.9058Z" fill="#121212"/>
<path d="M8.41454 38.8389C8.41454 39.4302 7.93703 39.9058 7.34338 39.9058C6.74972 39.9058 6.27222 39.4302 6.27222 38.8389C6.27222 38.2476 6.74972 37.772 7.34338 37.772C7.93703 37.772 8.41454 38.254 8.41454 38.8389Z" fill="#121212"/>
<path d="M14.6929 38.8389C14.6929 39.4302 14.2154 39.9058 13.6217 39.9058C13.028 39.9058 12.5505 39.4302 12.5505 38.8389C12.5505 38.2476 13.028 37.772 13.6217 37.772C14.2154 37.772 14.6929 38.254 14.6929 38.8389Z" fill="#121212"/>
<path d="M19.9003 39.9058C20.4919 39.9058 20.9714 39.4281 20.9714 38.8389C20.9714 38.2496 20.4919 37.772 19.9003 37.772C19.3087 37.772 18.8291 38.2496 18.8291 38.8389C18.8291 39.4281 19.3087 39.9058 19.9003 39.9058Z" fill="#121212"/>
<path d="M27.25 38.8389C27.25 39.4302 26.7725 39.9058 26.1788 39.9058C25.5852 39.9058 25.1077 39.4302 25.1077 38.8389C25.1077 38.2476 25.5852 37.772 26.1788 37.772C26.7725 37.772 27.25 38.254 27.25 38.8389Z" fill="#121212"/>
<path d="M33.5283 38.8389C33.5283 39.4302 33.0508 39.9058 32.4571 39.9058C31.8635 39.9058 31.386 39.4302 31.386 38.8389C31.386 38.2476 31.8635 37.772 32.4571 37.772C33.0508 37.772 33.5283 38.254 33.5283 38.8389Z" fill="#121212"/>
<path d="M38.736 39.9058C39.3275 39.9058 39.8071 39.4281 39.8071 38.8389C39.8071 38.2496 39.3275 37.772 38.736 37.772C38.1444 37.772 37.6648 38.2496 37.6648 38.8389C37.6648 39.4281 38.1444 39.9058 38.736 39.9058Z" fill="#121212"/>
<path d="M45.0145 39.9058C45.6061 39.9058 46.0857 39.4281 46.0857 38.8389C46.0857 38.2496 45.6061 37.772 45.0145 37.772C44.4229 37.772 43.9434 38.2496 43.9434 38.8389C43.9434 39.4281 44.4229 39.9058 45.0145 39.9058Z" fill="#121212"/>
<path d="M52.3579 38.8389C52.3579 39.4302 51.8804 39.9058 51.2867 39.9058C50.6931 39.9058 50.2156 39.4302 50.2156 38.8389C50.2156 38.2476 50.6931 37.772 51.2867 37.772C51.8804 37.772 52.3579 38.254 52.3579 38.8389Z" fill="#121212"/>
<path d="M57.5653 39.9058C58.1569 39.9058 58.6365 39.4281 58.6365 38.8389C58.6365 38.2496 58.1569 37.772 57.5653 37.772C56.9737 37.772 56.4941 38.2496 56.4941 38.8389C56.4941 39.4281 56.9737 39.9058 57.5653 39.9058Z" fill="#121212"/>
<path d="M2.13587 45.1377C2.13587 45.729 1.65836 46.2046 1.06471 46.2046C0.471053 46.2046 0 45.7226 0 45.1377C0 44.5464 0.477506 44.0708 1.07116 44.0708C1.66482 44.0708 2.13587 44.5464 2.13587 45.1377Z" fill="#121212"/>
<path d="M8.41454 45.1377C8.41454 45.729 7.93703 46.2046 7.34338 46.2046C6.74972 46.2046 6.27222 45.729 6.27222 45.1377C6.27222 44.5464 6.74972 44.0708 7.34338 44.0708C7.93703 44.0708 8.41454 44.5464 8.41454 45.1377Z" fill="#121212"/>
<path d="M14.6929 45.1377C14.6929 45.729 14.2154 46.2046 13.6217 46.2046C13.028 46.2046 12.5505 45.729 12.5505 45.1377C12.5505 44.5464 13.028 44.0708 13.6217 44.0708C14.2154 44.0708 14.6929 44.5464 14.6929 45.1377Z" fill="#121212"/>
<path d="M20.9714 45.1377C20.9714 45.729 20.4939 46.2046 19.9003 46.2046C19.3066 46.2046 18.8291 45.729 18.8291 45.1377C18.8291 44.5464 19.3066 44.0708 19.9003 44.0708C20.4939 44.0708 20.9714 44.5464 20.9714 45.1377Z" fill="#121212"/>
<path d="M27.25 45.1377C27.25 45.729 26.7725 46.2046 26.1788 46.2046C25.5852 46.2046 25.1077 45.729 25.1077 45.1377C25.1077 44.5464 25.5852 44.0708 26.1788 44.0708C26.7725 44.0708 27.25 44.5464 27.25 45.1377Z" fill="#121212"/>
<path d="M33.5283 45.1377C33.5283 45.729 33.0508 46.2046 32.4571 46.2046C31.8635 46.2046 31.386 45.729 31.386 45.1377C31.386 44.5464 31.8635 44.0708 32.4571 44.0708C33.0508 44.0708 33.5283 44.5464 33.5283 45.1377Z" fill="#121212"/>
<path d="M39.801 45.1377C39.801 45.729 39.3235 46.2046 38.7299 46.2046C38.1362 46.2046 37.6587 45.729 37.6587 45.1377C37.6587 44.5464 38.1362 44.0708 38.7299 44.0708C39.3235 44.0708 39.801 44.5464 39.801 45.1377Z" fill="#121212"/>
<path d="M46.0793 45.1377C46.0793 45.729 45.6018 46.2046 45.0082 46.2046C44.4145 46.2046 43.937 45.729 43.937 45.1377C43.937 44.5464 44.4145 44.0708 45.0082 44.0708C45.6018 44.0708 46.0793 44.5464 46.0793 45.1377Z" fill="#121212"/>
<path d="M52.3579 45.1377C52.3579 45.729 51.8804 46.2046 51.2867 46.2046C50.6931 46.2046 50.2156 45.729 50.2156 45.1377C50.2156 44.5464 50.6931 44.0708 51.2867 44.0708C51.8804 44.0708 52.3579 44.5464 52.3579 45.1377Z" fill="#121212"/>
<path d="M58.6365 45.1377C58.6365 45.729 58.159 46.2046 57.5653 46.2046C56.9716 46.2046 56.4941 45.729 56.4941 45.1377C56.4941 44.5464 56.9716 44.0708 57.5653 44.0708C58.159 44.0708 58.6365 44.5464 58.6365 45.1377Z" fill="#121212"/>
<path d="M2.13587 51.4297C2.13587 52.021 1.65836 52.4966 1.06471 52.4966C0.471053 52.4966 0 52.021 0 51.4297C0 50.8384 0.477506 50.3628 1.07116 50.3628C1.66482 50.3628 2.13587 50.8448 2.13587 51.4297Z" fill="#121212"/>
<path d="M8.41454 51.4297C8.41454 52.021 7.93703 52.4966 7.34338 52.4966C6.74972 52.4966 6.27222 52.021 6.27222 51.4297C6.27222 50.8384 6.74972 50.3628 7.34338 50.3628C7.93703 50.3628 8.41454 50.8448 8.41454 51.4297Z" fill="#121212"/>
<path d="M14.6929 51.4297C14.6929 52.021 14.2154 52.4966 13.6217 52.4966C13.028 52.4966 12.5505 52.021 12.5505 51.4297C12.5505 50.8384 13.028 50.3628 13.6217 50.3628C14.2154 50.3628 14.6929 50.8448 14.6929 51.4297Z" fill="#121212"/>
<path d="M20.9714 51.4297C20.9714 52.021 20.4939 52.4966 19.9003 52.4966C19.3066 52.4966 18.8291 52.021 18.8291 51.4297C18.8291 50.8384 19.3066 50.3628 19.9003 50.3628C20.4939 50.3628 20.9714 50.8448 20.9714 51.4297Z" fill="#121212"/>
<path d="M27.25 51.4297C27.25 52.021 26.7725 52.4966 26.1788 52.4966C25.5852 52.4966 25.1077 52.021 25.1077 51.4297C25.1077 50.8384 25.5852 50.3628 26.1788 50.3628C26.7725 50.3628 27.25 50.8448 27.25 51.4297Z" fill="#121212"/>
<path d="M33.5283 51.4297C33.5283 52.021 33.0508 52.4966 32.4571 52.4966C31.8635 52.4966 31.386 52.021 31.386 51.4297C31.386 50.8384 31.8635 50.3628 32.4571 50.3628C33.0508 50.3628 33.5283 50.8448 33.5283 51.4297Z" fill="#121212"/>
<path d="M39.801 51.4297C39.801 52.021 39.3235 52.4966 38.7299 52.4966C38.1362 52.4966 37.6587 52.021 37.6587 51.4297C37.6587 50.8384 38.1362 50.3628 38.7299 50.3628C39.3235 50.3628 39.801 50.8448 39.801 51.4297Z" fill="#121212"/>
<path d="M46.0793 51.4297C46.0793 52.021 45.6018 52.4966 45.0082 52.4966C44.4145 52.4966 43.937 52.021 43.937 51.4297C43.937 50.8384 44.4145 50.3628 45.0082 50.3628C45.6018 50.3628 46.0793 50.8448 46.0793 51.4297Z" fill="#121212"/>
<path d="M52.3579 51.4297C52.3579 52.021 51.8804 52.4966 51.2867 52.4966C50.6931 52.4966 50.2156 52.021 50.2156 51.4297C50.2156 50.8384 50.6931 50.3628 51.2867 50.3628C51.8804 50.3628 52.3579 50.8448 52.3579 51.4297Z" fill="#121212"/>
<path d="M58.6365 51.4297C58.6365 52.021 58.159 52.4966 57.5653 52.4966C56.9716 52.4966 56.4941 52.021 56.4941 51.4297C56.4941 50.8384 56.9716 50.3628 57.5653 50.3628C58.159 50.3628 58.6365 50.8448 58.6365 51.4297Z" fill="#121212"/>
<path d="M1.07116 58.7949C1.66275 58.7949 2.14232 58.3173 2.14232 57.728C2.14232 57.1388 1.66275 56.6611 1.07116 56.6611C0.479575 56.6611 0 57.1388 0 57.728C0 58.3173 0.479575 58.7949 1.07116 58.7949Z" fill="#121212"/>
<path d="M8.41454 57.728C8.41454 58.3193 7.93703 58.7949 7.34338 58.7949C6.74972 58.7949 6.27222 58.3193 6.27222 57.728C6.27222 57.1367 6.74972 56.6611 7.34338 56.6611C7.93703 56.6611 8.41454 57.1367 8.41454 57.728Z" fill="#121212"/>
<path d="M14.6929 57.728C14.6929 58.3193 14.2154 58.7949 13.6217 58.7949C13.028 58.7949 12.5505 58.3193 12.5505 57.728C12.5505 57.1367 13.028 56.6611 13.6217 56.6611C14.2154 56.6611 14.6929 57.1367 14.6929 57.728Z" fill="#121212"/>
<path d="M19.9003 58.7949C20.4919 58.7949 20.9714 58.3173 20.9714 57.728C20.9714 57.1388 20.4919 56.6611 19.9003 56.6611C19.3087 56.6611 18.8291 57.1388 18.8291 57.728C18.8291 58.3173 19.3087 58.7949 19.9003 58.7949Z" fill="#121212"/>
<path d="M27.25 57.728C27.25 58.3193 26.7725 58.7949 26.1788 58.7949C25.5852 58.7949 25.1077 58.3193 25.1077 57.728C25.1077 57.1367 25.5852 56.6611 26.1788 56.6611C26.7725 56.6611 27.25 57.1367 27.25 57.728Z" fill="#121212"/>
<path d="M33.5283 57.728C33.5283 58.3193 33.0508 58.7949 32.4571 58.7949C31.8635 58.7949 31.386 58.3193 31.386 57.728C31.386 57.1367 31.8635 56.6611 32.4571 56.6611C33.0508 56.6611 33.5283 57.1367 33.5283 57.728Z" fill="#121212"/>
<path d="M38.736 58.7949C39.3275 58.7949 39.8071 58.3173 39.8071 57.728C39.8071 57.1388 39.3275 56.6611 38.736 56.6611C38.1444 56.6611 37.6648 57.1388 37.6648 57.728C37.6648 58.3173 38.1444 58.7949 38.736 58.7949Z" fill="#121212"/>
<path d="M45.0145 58.7949C45.6061 58.7949 46.0857 58.3173 46.0857 57.728C46.0857 57.1388 45.6061 56.6611 45.0145 56.6611C44.4229 56.6611 43.9434 57.1388 43.9434 57.728C43.9434 58.3173 44.4229 58.7949 45.0145 58.7949Z" fill="#121212"/>
<path d="M52.3579 57.728C52.3579 58.3193 51.8804 58.7949 51.2867 58.7949C50.6931 58.7949 50.2156 58.3193 50.2156 57.728C50.2156 57.1367 50.6931 56.6611 51.2867 56.6611C51.8804 56.6611 52.3579 57.1367 52.3579 57.728Z" fill="#121212"/>
<path d="M57.5653 58.7949C58.1569 58.7949 58.6365 58.3173 58.6365 57.728C58.6365 57.1388 58.1569 56.6611 57.5653 56.6611C56.9737 56.6611 56.4941 57.1388 56.4941 57.728C56.4941 58.3173 56.9737 58.7949 57.5653 58.7949Z" fill="#121212"/>
<path d="M1.07116 65.0874C1.66275 65.0874 2.14232 64.6097 2.14232 64.0205C2.14232 63.4313 1.66275 62.9536 1.07116 62.9536C0.479575 62.9536 0 63.4313 0 64.0205C0 64.6097 0.479575 65.0874 1.07116 65.0874Z" fill="#121212"/>
<path d="M8.41454 64.0205C8.41454 64.6118 7.93703 65.0874 7.34338 65.0874C6.74972 65.0874 6.27222 64.6118 6.27222 64.0205C6.27222 63.4292 6.74972 62.9536 7.34338 62.9536C7.93703 62.96 8.41454 63.4356 8.41454 64.0205Z" fill="#121212"/>
<path d="M14.6929 64.0205C14.6929 64.6118 14.2154 65.0874 13.6217 65.0874C13.028 65.0874 12.5505 64.6118 12.5505 64.0205C12.5505 63.4292 13.028 62.9536 13.6217 62.9536C14.2154 62.96 14.6929 63.4356 14.6929 64.0205Z" fill="#121212"/>
<path d="M19.9003 65.0874C20.4919 65.0874 20.9714 64.6097 20.9714 64.0205C20.9714 63.4313 20.4919 62.9536 19.9003 62.9536C19.3087 62.9536 18.8291 63.4313 18.8291 64.0205C18.8291 64.6097 19.3087 65.0874 19.9003 65.0874Z" fill="#121212"/>
<path d="M27.25 64.0205C27.25 64.6118 26.7725 65.0874 26.1788 65.0874C25.5852 65.0874 25.1077 64.6118 25.1077 64.0205C25.1077 63.4292 25.5852 62.9536 26.1788 62.9536C26.7725 62.96 27.25 63.4356 27.25 64.0205Z" fill="#121212"/>
<path d="M33.5283 64.0205C33.5283 64.6118 33.0508 65.0874 32.4571 65.0874C31.8635 65.0874 31.386 64.6118 31.386 64.0205C31.386 63.4292 31.8635 62.9536 32.4571 62.9536C33.0508 62.9536 33.5283 63.4356 33.5283 64.0205Z" fill="#121212"/>
<path d="M38.736 65.0874C39.3275 65.0874 39.8071 64.6097 39.8071 64.0205C39.8071 63.4313 39.3275 62.9536 38.736 62.9536C38.1444 62.9536 37.6648 63.4313 37.6648 64.0205C37.6648 64.6097 38.1444 65.0874 38.736 65.0874Z" fill="#121212"/>
<path d="M45.0145 65.0874C45.6061 65.0874 46.0857 64.6097 46.0857 64.0205C46.0857 63.4313 45.6061 62.9536 45.0145 62.9536C44.4229 62.9536 43.9434 63.4313 43.9434 64.0205C43.9434 64.6097 44.4229 65.0874 45.0145 65.0874Z" fill="#121212"/>
<path d="M52.3579 64.0205C52.3579 64.6118 51.8804 65.0874 51.2867 65.0874C50.6931 65.0874 50.2156 64.6118 50.2156 64.0205C50.2156 63.4292 50.6931 62.9536 51.2867 62.9536C51.8804 62.96 52.3579 63.4356 52.3579 64.0205Z" fill="#121212"/>
<path d="M57.5653 65.0874C58.1569 65.0874 58.6365 64.6097 58.6365 64.0205C58.6365 63.4313 58.1569 62.9536 57.5653 62.9536C56.9737 62.9536 56.4941 63.4313 56.4941 64.0205C56.4941 64.6097 56.9737 65.0874 57.5653 65.0874Z" fill="#121212"/>
<path d="M1.07116 71.3858C1.66275 71.3858 2.14232 70.9081 2.14232 70.3189C2.14232 69.7296 1.66275 69.252 1.07116 69.252C0.479575 69.252 0 69.7296 0 70.3189C0 70.9081 0.479575 71.3858 1.07116 71.3858Z" fill="#121212"/>
<path d="M8.41454 70.3189C8.41454 70.9102 7.93703 71.3858 7.34338 71.3858C6.74972 71.3858 6.27222 70.9102 6.27222 70.3189C6.27222 69.7276 6.74972 69.252 7.34338 69.252C7.93703 69.252 8.41454 69.7276 8.41454 70.3189Z" fill="#121212"/>
<path d="M14.6929 70.3189C14.6929 70.9102 14.2154 71.3858 13.6217 71.3858C13.028 71.3858 12.5505 70.9102 12.5505 70.3189C12.5505 69.7276 13.028 69.252 13.6217 69.252C14.2154 69.252 14.6929 69.7276 14.6929 70.3189Z" fill="#121212"/>
<path d="M19.9003 71.3858C20.4919 71.3858 20.9714 70.9081 20.9714 70.3189C20.9714 69.7296 20.4919 69.252 19.9003 69.252C19.3087 69.252 18.8291 69.7296 18.8291 70.3189C18.8291 70.9081 19.3087 71.3858 19.9003 71.3858Z" fill="#121212"/>
<path d="M27.25 70.3189C27.25 70.9102 26.7725 71.3858 26.1788 71.3858C25.5852 71.3858 25.1077 70.9102 25.1077 70.3189C25.1077 69.7276 25.5852 69.252 26.1788 69.252C26.7725 69.252 27.25 69.7276 27.25 70.3189Z" fill="#121212"/>
<path d="M33.5283 70.3189C33.5283 70.9102 33.0508 71.3858 32.4571 71.3858C31.8635 71.3858 31.386 70.9102 31.386 70.3189C31.386 69.7276 31.8635 69.252 32.4571 69.252C33.0508 69.252 33.5283 69.7276 33.5283 70.3189Z" fill="#121212"/>
<path d="M38.736 71.3858C39.3275 71.3858 39.8071 70.9081 39.8071 70.3189C39.8071 69.7296 39.3275 69.252 38.736 69.252C38.1444 69.252 37.6648 69.7296 37.6648 70.3189C37.6648 70.9081 38.1444 71.3858 38.736 71.3858Z" fill="#121212"/>
<path d="M45.0145 71.3858C45.6061 71.3858 46.0857 70.9081 46.0857 70.3189C46.0857 69.7296 45.6061 69.252 45.0145 69.252C44.4229 69.252 43.9434 69.7296 43.9434 70.3189C43.9434 70.9081 44.4229 71.3858 45.0145 71.3858Z" fill="#121212"/>
<path d="M52.3579 70.3189C52.3579 70.9102 51.8804 71.3858 51.2867 71.3858C50.6931 71.3858 50.2156 70.9102 50.2156 70.3189C50.2156 69.7276 50.6931 69.252 51.2867 69.252C51.8804 69.252 52.3579 69.7276 52.3579 70.3189Z" fill="#121212"/>
<path d="M57.5653 71.3858C58.1569 71.3858 58.6365 70.9081 58.6365 70.3189C58.6365 69.7296 58.1569 69.252 57.5653 69.252C56.9737 69.252 56.4941 69.7296 56.4941 70.3189C56.4941 70.9081 56.9737 71.3858 57.5653 71.3858Z" fill="#121212"/>
<path d="M2.13587 76.6108C2.13587 77.2021 1.65836 77.6777 1.06471 77.6777C0.471053 77.6777 0 77.2021 0 76.6108C0 76.0195 0.477506 75.5439 1.07116 75.5439C1.66482 75.5439 2.13587 76.026 2.13587 76.6108Z" fill="#121212"/>
<path d="M8.41454 76.6108C8.41454 77.2021 7.93703 77.6777 7.34338 77.6777C6.74972 77.6777 6.27222 77.2021 6.27222 76.6108C6.27222 76.0195 6.74972 75.5439 7.34338 75.5439C7.93703 75.5504 8.41454 76.026 8.41454 76.6108Z" fill="#121212"/>
<path d="M14.6929 76.6108C14.6929 77.2021 14.2154 77.6777 13.6217 77.6777C13.028 77.6777 12.5505 77.2021 12.5505 76.6108C12.5505 76.0195 13.028 75.5439 13.6217 75.5439C14.2154 75.5504 14.6929 76.026 14.6929 76.6108Z" fill="#121212"/>
<path d="M20.9714 76.6108C20.9714 77.2021 20.4939 77.6777 19.9003 77.6777C19.3066 77.6777 18.8291 77.2021 18.8291 76.6108C18.8291 76.0195 19.3066 75.5439 19.9003 75.5439C20.4939 75.5439 20.9714 76.026 20.9714 76.6108Z" fill="#121212"/>
<path d="M27.25 76.6108C27.25 77.2021 26.7725 77.6777 26.1788 77.6777C25.5852 77.6777 25.1077 77.2021 25.1077 76.6108C25.1077 76.0195 25.5852 75.5439 26.1788 75.5439C26.7725 75.5504 27.25 76.026 27.25 76.6108Z" fill="#121212"/>
<path d="M33.5283 76.6108C33.5283 77.2021 33.0508 77.6777 32.4571 77.6777C31.8635 77.6777 31.386 77.2021 31.386 76.6108C31.386 76.0195 31.8635 75.5439 32.4571 75.5439C33.0508 75.5439 33.5283 76.026 33.5283 76.6108Z" fill="#121212"/>
<path d="M39.801 76.6108C39.801 77.2021 39.3235 77.6777 38.7299 77.6777C38.1362 77.6777 37.6587 77.2021 37.6587 76.6108C37.6587 76.0195 38.1362 75.5439 38.7299 75.5439C39.3235 75.5504 39.801 76.026 39.801 76.6108Z" fill="#121212"/>
<path d="M46.0793 76.6108C46.0793 77.2021 45.6018 77.6777 45.0082 77.6777C44.4145 77.6777 43.937 77.2021 43.937 76.6108C43.937 76.0195 44.4145 75.5439 45.0082 75.5439C45.6018 75.5504 46.0793 76.026 46.0793 76.6108Z" fill="#121212"/>
<path d="M52.3579 76.6108C52.3579 77.2021 51.8804 77.6777 51.2867 77.6777C50.6931 77.6777 50.2156 77.2021 50.2156 76.6108C50.2156 76.0195 50.6931 75.5439 51.2867 75.5439C51.8804 75.5504 52.3579 76.026 52.3579 76.6108Z" fill="#121212"/>
<path d="M58.6365 76.6108C58.6365 77.2021 58.159 77.6777 57.5653 77.6777C56.9716 77.6777 56.4941 77.2021 56.4941 76.6108C56.4941 76.0195 56.9716 75.5439 57.5653 75.5439C58.159 75.5504 58.6365 76.026 58.6365 76.6108Z" fill="#121212"/>
<path d="M2.13587 82.9097C2.13587 83.501 1.65836 83.9766 1.06471 83.9766C0.471053 83.9766 0 83.4945 0 82.9097C0 82.3184 0.477506 81.8428 1.07116 81.8428C1.66482 81.8428 2.13587 82.3184 2.13587 82.9097Z" fill="#121212"/>
<path d="M8.41454 82.9097C8.41454 83.501 7.93703 83.9766 7.34338 83.9766C6.74972 83.9766 6.27222 83.501 6.27222 82.9097C6.27222 82.3184 6.74972 81.8428 7.34338 81.8428C7.93703 81.8428 8.41454 82.3184 8.41454 82.9097Z" fill="#121212"/>
<path d="M14.6929 82.9097C14.6929 83.501 14.2154 83.9766 13.6217 83.9766C13.028 83.9766 12.5505 83.501 12.5505 82.9097C12.5505 82.3184 13.028 81.8428 13.6217 81.8428C14.2154 81.8428 14.6929 82.3184 14.6929 82.9097Z" fill="#121212"/>
<path d="M20.9714 82.9097C20.9714 83.501 20.4939 83.9766 19.9003 83.9766C19.3066 83.9766 18.8291 83.501 18.8291 82.9097C18.8291 82.3184 19.3066 81.8428 19.9003 81.8428C20.4939 81.8428 20.9714 82.3184 20.9714 82.9097Z" fill="#121212"/>
<path d="M27.25 82.9097C27.25 83.501 26.7725 83.9766 26.1788 83.9766C25.5852 83.9766 25.1077 83.501 25.1077 82.9097C25.1077 82.3184 25.5852 81.8428 26.1788 81.8428C26.7725 81.8428 27.25 82.3184 27.25 82.9097Z" fill="#121212"/>
<path d="M33.5283 82.9097C33.5283 83.501 33.0508 83.9766 32.4571 83.9766C31.8635 83.9766 31.386 83.501 31.386 82.9097C31.386 82.3184 31.8635 81.8428 32.4571 81.8428C33.0508 81.8428 33.5283 82.3184 33.5283 82.9097Z" fill="#121212"/>
<path d="M39.801 82.9097C39.801 83.501 39.3235 83.9766 38.7299 83.9766C38.1362 83.9766 37.6587 83.501 37.6587 82.9097C37.6587 82.3184 38.1362 81.8428 38.7299 81.8428C39.3235 81.8428 39.801 82.3184 39.801 82.9097Z" fill="#121212"/>
<path d="M46.0793 82.9097C46.0793 83.501 45.6018 83.9766 45.0082 83.9766C44.4145 83.9766 43.937 83.501 43.937 82.9097C43.937 82.3184 44.4145 81.8428 45.0082 81.8428C45.6018 81.8428 46.0793 82.3184 46.0793 82.9097Z" fill="#121212"/>
<path d="M52.3579 82.9097C52.3579 83.501 51.8804 83.9766 51.2867 83.9766C50.6931 83.9766 50.2156 83.501 50.2156 82.9097C50.2156 82.3184 50.6931 81.8428 51.2867 81.8428C51.8804 81.8428 52.3579 82.3184 52.3579 82.9097Z" fill="#121212"/>
<path d="M58.6365 82.9097C58.6365 83.501 58.159 83.9766 57.5653 83.9766C56.9716 83.9766 56.4941 83.501 56.4941 82.9097C56.4941 82.3184 56.9716 81.8428 57.5653 81.8428C58.159 81.8428 58.6365 82.3184 58.6365 82.9097Z" fill="#121212"/>
<path d="M2.13587 89.2017C2.13587 89.7929 1.65836 90.2686 1.06471 90.2686C0.471053 90.2686 0 89.7929 0 89.2017C0 88.6104 0.477506 88.1348 1.07116 88.1348C1.66482 88.1348 2.13587 88.6168 2.13587 89.2017Z" fill="#121212"/>
<path d="M8.41454 89.2017C8.41454 89.7929 7.93703 90.2686 7.34338 90.2686C6.74972 90.2686 6.27222 89.7929 6.27222 89.2017C6.27222 88.6104 6.74972 88.1348 7.34338 88.1348C7.93703 88.1412 8.41454 88.6168 8.41454 89.2017Z" fill="#121212"/>
<path d="M14.6929 89.2017C14.6929 89.7929 14.2154 90.2686 13.6217 90.2686C13.028 90.2686 12.5505 89.7929 12.5505 89.2017C12.5505 88.6104 13.028 88.1348 13.6217 88.1348C14.2154 88.1412 14.6929 88.6168 14.6929 89.2017Z" fill="#121212"/>
<path d="M20.9714 89.2017C20.9714 89.7929 20.4939 90.2686 19.9003 90.2686C19.3066 90.2686 18.8291 89.7929 18.8291 89.2017C18.8291 88.6104 19.3066 88.1348 19.9003 88.1348C20.4939 88.1348 20.9714 88.6168 20.9714 89.2017Z" fill="#121212"/>
<path d="M27.25 89.2017C27.25 89.7929 26.7725 90.2686 26.1788 90.2686C25.5852 90.2686 25.1077 89.7929 25.1077 89.2017C25.1077 88.6104 25.5852 88.1348 26.1788 88.1348C26.7725 88.1412 27.25 88.6168 27.25 89.2017Z" fill="#121212"/>
<path d="M33.5283 89.2017C33.5283 89.7929 33.0508 90.2686 32.4571 90.2686C31.8635 90.2686 31.386 89.7929 31.386 89.2017C31.386 88.6104 31.8635 88.1348 32.4571 88.1348C33.0508 88.1348 33.5283 88.6168 33.5283 89.2017Z" fill="#121212"/>
<path d="M39.801 89.2017C39.801 89.7929 39.3235 90.2686 38.7299 90.2686C38.1362 90.2686 37.6587 89.7929 37.6587 89.2017C37.6587 88.6104 38.1362 88.1348 38.7299 88.1348C39.3235 88.1412 39.801 88.6168 39.801 89.2017Z" fill="#121212"/>
<path d="M46.0793 89.2017C46.0793 89.7929 45.6018 90.2686 45.0082 90.2686C44.4145 90.2686 43.937 89.7929 43.937 89.2017C43.937 88.6104 44.4145 88.1348 45.0082 88.1348C45.6018 88.1412 46.0793 88.6168 46.0793 89.2017Z" fill="#121212"/>
<path d="M52.3579 89.2017C52.3579 89.7929 51.8804 90.2686 51.2867 90.2686C50.6931 90.2686 50.2156 89.7929 50.2156 89.2017C50.2156 88.6104 50.6931 88.1348 51.2867 88.1348C51.8804 88.1412 52.3579 88.6168 52.3579 89.2017Z" fill="#121212"/>
<path d="M58.6365 89.2017C58.6365 89.7929 58.159 90.2686 57.5653 90.2686C56.9716 90.2686 56.4941 89.7929 56.4941 89.2017C56.4941 88.6104 56.9716 88.1348 57.5653 88.1348C58.159 88.1412 58.6365 88.6168 58.6365 89.2017Z" fill="#121212"/>
<path d="M2.13587 95.5C2.13587 96.0913 1.65836 96.5669 1.06471 96.5669C0.471053 96.5669 0 96.0913 0 95.5C0 94.9087 0.477506 94.4331 1.07116 94.4331C1.66482 94.4331 2.13587 94.9087 2.13587 95.5Z" fill="#121212"/>
<path d="M8.41454 95.5C8.41454 96.0913 7.93703 96.5669 7.34338 96.5669C6.74972 96.5669 6.27222 96.0913 6.27222 95.5C6.27222 94.9087 6.74972 94.4331 7.34338 94.4331C7.93703 94.4331 8.41454 94.9087 8.41454 95.5Z" fill="#121212"/>
<path d="M14.6929 95.5C14.6929 96.0913 14.2154 96.5669 13.6217 96.5669C13.028 96.5669 12.5505 96.0913 12.5505 95.5C12.5505 94.9087 13.028 94.4331 13.6217 94.4331C14.2154 94.4331 14.6929 94.9087 14.6929 95.5Z" fill="#121212"/>
<path d="M20.9714 95.5C20.9714 96.0913 20.4939 96.5669 19.9003 96.5669C19.3066 96.5669 18.8291 96.0913 18.8291 95.5C18.8291 94.9087 19.3066 94.4331 19.9003 94.4331C20.4939 94.4331 20.9714 94.9087 20.9714 95.5Z" fill="#121212"/>
<path d="M27.25 95.5C27.25 96.0913 26.7725 96.5669 26.1788 96.5669C25.5852 96.5669 25.1077 96.0913 25.1077 95.5C25.1077 94.9087 25.5852 94.4331 26.1788 94.4331C26.7725 94.4331 27.25 94.9087 27.25 95.5Z" fill="#121212"/>
<path d="M33.5283 95.5C33.5283 96.0913 33.0508 96.5669 32.4571 96.5669C31.8635 96.5669 31.386 96.0913 31.386 95.5C31.386 94.9087 31.8635 94.4331 32.4571 94.4331C33.0508 94.4331 33.5283 94.9087 33.5283 95.5Z" fill="#121212"/>
<path d="M39.801 95.5C39.801 96.0913 39.3235 96.5669 38.7299 96.5669C38.1362 96.5669 37.6587 96.0913 37.6587 95.5C37.6587 94.9087 38.1362 94.4331 38.7299 94.4331C39.3235 94.4331 39.801 94.9087 39.801 95.5Z" fill="#121212"/>
<path d="M46.0793 95.5C46.0793 96.0913 45.6018 96.5669 45.0082 96.5669C44.4145 96.5669 43.937 96.0913 43.937 95.5C43.937 94.9087 44.4145 94.4331 45.0082 94.4331C45.6018 94.4331 46.0793 94.9087 46.0793 95.5Z" fill="#121212"/>
<path d="M52.3579 95.5C52.3579 96.0913 51.8804 96.5669 51.2867 96.5669C50.6931 96.5669 50.2156 96.0913 50.2156 95.5C50.2156 94.9087 50.6931 94.4331 51.2867 94.4331C51.8804 94.4331 52.3579 94.9087 52.3579 95.5Z" fill="#121212"/>
<path d="M58.6365 95.5C58.6365 96.0913 58.159 96.5669 57.5653 96.5669C56.9716 96.5669 56.4941 96.0913 56.4941 95.5C56.4941 94.9087 56.9716 94.4331 57.5653 94.4331C58.159 94.4331 58.6365 94.9087 58.6365 95.5Z" fill="#121212"/>
</svg>
