<svg width="121" height="9" viewBox="0 0 121 9" fill="none" xmlns="http://www.w3.org/2000/svg">
<path d="M7.71312 4.75256C7.71312 6.88581 5.98222 8.60912 3.85656 8.60912C1.7233 8.60912 0 6.87822 0 4.75256C0 2.6193 1.7309 0.895996 3.85656 0.895996C5.98981 0.895996 7.71312 2.62689 7.71312 4.75256Z" fill="#121212"/>
<path d="M30.3591 4.75256C30.3591 6.88581 28.6282 8.60912 26.5026 8.60912C24.3693 8.60912 22.646 6.87822 22.646 4.75256C22.646 2.6193 24.3769 0.895996 26.5026 0.895996C28.6282 0.895996 30.3591 2.62689 30.3591 4.75256Z" fill="#121212"/>
<path d="M53.0051 4.75256C53.0051 6.88581 51.2742 8.60912 49.1486 8.60912C47.0153 8.60912 45.292 6.87822 45.292 4.75256C45.292 2.6193 47.0229 0.895996 49.1486 0.895996C51.2742 0.895996 53.0051 2.62689 53.0051 4.75256Z" fill="#121212"/>
<path d="M75.6511 4.75256C75.6511 6.88581 73.9202 8.60912 71.7945 8.60912C69.6613 8.60912 67.938 6.87822 67.938 4.75256C67.938 2.6193 69.6689 0.895996 71.7945 0.895996C73.9202 0.895996 75.6511 2.62689 75.6511 4.75256Z" fill="#121212"/>
<path d="M98.2895 4.75256C98.2895 6.88581 96.5586 8.60912 94.433 8.60912C92.2997 8.60912 90.5764 6.87822 90.5764 4.75256C90.5764 2.6193 92.3073 0.895996 94.433 0.895996C96.5662 0.895996 98.2895 2.62689 98.2895 4.75256Z" fill="#121212"/>
<path d="M120.936 4.75256C120.936 6.88581 119.205 8.60912 117.079 8.60912C114.953 8.60912 113.222 6.87822 113.222 4.75256C113.222 2.6193 114.953 0.895996 117.079 0.895996C119.205 0.895996 120.936 2.62689 120.936 4.75256Z" fill="#121212"/>
</svg>
