<svg width="258" height="258" viewBox="0 0 258 258" fill="none" xmlns="http://www.w3.org/2000/svg">
<path d="M128.742 4C197.63 4 253.484 59.8538 253.484 128.742C253.484 197.63 197.63 253.484 128.742 253.484" stroke="#EE4074" stroke-width="8" stroke-miterlimit="10"/>
<path d="M128.742 37.0268C179.402 37.0268 220.474 78.0983 220.474 128.759C220.474 179.419 179.402 220.474 128.742 220.474" stroke="#EE4074" stroke-width="8" stroke-miterlimit="10"/>
<path d="M128.742 70.0367C161.158 70.0367 187.447 96.3259 187.447 128.742C187.447 161.158 161.158 187.447 128.742 187.447" stroke="#EE4074" stroke-width="8" stroke-miterlimit="10"/>
<path d="M128.742 103.064C142.93 103.064 154.42 114.571 154.42 128.742C154.42 142.93 142.913 154.42 128.742 154.42" stroke="#EE4074" stroke-width="8" stroke-miterlimit="10"/>
<path d="M128.742 253.484C59.8536 253.484 3.99976 197.63 3.99976 128.742C3.99976 59.8538 59.8536 4 128.742 4" stroke="#EE4074" stroke-width="8" stroke-miterlimit="10"/>
<path d="M128.742 220.457C78.0812 220.457 37.0097 179.386 37.0097 128.725C37.0097 78.0646 78.0812 37.0101 128.742 37.0101" stroke="#EE4074" stroke-width="8" stroke-miterlimit="10"/>
<path d="M128.742 187.447C96.3258 187.447 70.0366 161.158 70.0366 128.742C70.0366 96.3262 96.3258 70.037 128.742 70.037" stroke="#EE4074" stroke-width="8" stroke-miterlimit="10"/>
<path d="M128.742 154.42C114.553 154.42 103.064 142.913 103.064 128.742C103.064 114.554 114.57 103.064 128.742 103.064" stroke="#EE4074" stroke-width="8" stroke-miterlimit="10"/>
</svg>
