<svg width="115" height="123" viewBox="0 0 115 123" fill="none" xmlns="http://www.w3.org/2000/svg">
<g clip-path="url(#clip0)">
<path d="M115 30.0026L92.9974 8L57.5 43.4974L22.0026 8L0 30.0026L35.4974 65.5L0 100.997L22.0026 123L57.5 87.5025L92.9974 123L115 100.997L79.5025 65.5L115 30.0026Z" fill="#F9E95E"/>
<path d="M78.4419 56.5607L112.879 90.9974L92.9974 110.879L58.5607 76.4419L57.5 75.3812L56.4393 76.4419L22.0026 110.879L2.12132 90.9974L36.5581 56.5607L37.6188 55.5L36.5581 54.4393L2.12132 20.0026L22.0026 0.12132L56.4393 34.5581L57.5 35.6188L58.5607 34.5581L92.9974 0.121321L112.879 20.0026L78.4419 54.4393L77.3812 55.5L78.4419 56.5607Z" stroke="#121212" stroke-width="3"/>
</g>
<defs>
<clipPath id="clip0">
<rect width="115" height="123" fill="white"/>
</clipPath>
</defs>
</svg>
