<svg width="91" height="82" viewBox="0 0 91 82" fill="none" xmlns="http://www.w3.org/2000/svg">
<path d="M3.31 1.66C3.31 2.58 2.57 3.32 1.65 3.32C0.73 3.32 0 2.57 0 1.66C0 0.740004 0.74 0 1.66 0C2.58 0 3.31 0.740004 3.31 1.66Z" fill="#121212"/>
<path d="M13.0397 1.66C13.0397 2.58 12.2997 3.32 11.3797 3.32C10.4597 3.32 9.71973 2.58 9.71973 1.66C9.71973 0.740004 10.4597 0 11.3797 0C12.2997 0 13.0397 0.740004 13.0397 1.66Z" fill="#121212"/>
<path d="M22.7702 1.66C22.7702 2.58 22.0302 3.32 21.1102 3.32C20.1902 3.32 19.4502 2.58 19.4502 1.66C19.4502 0.740004 20.1902 0 21.1102 0C22.0302 0 22.7702 0.740004 22.7702 1.66Z" fill="#121212"/>
<path d="M32.4997 1.66C32.4997 2.58 31.7597 3.32 30.8397 3.32C29.9197 3.32 29.1797 2.58 29.1797 1.66C29.1797 0.740004 29.9197 0 30.8397 0C31.7597 0 32.4997 0.740004 32.4997 1.66Z" fill="#121212"/>
<path d="M42.2302 1.66C42.2302 2.58 41.4902 3.32 40.5702 3.32C39.6502 3.32 38.9102 2.58 38.9102 1.66C38.9102 0.740004 39.6502 0 40.5702 0C41.4902 0 42.2302 0.740004 42.2302 1.66Z" fill="#121212"/>
<path d="M51.9596 1.66C51.9596 2.58 51.2196 3.32 50.2996 3.32C49.3796 3.32 48.6396 2.58 48.6396 1.66C48.6396 0.740004 49.3796 0 50.2996 0C51.2196 0 51.9596 0.740004 51.9596 1.66Z" fill="#121212"/>
<path d="M61.6804 1.66C61.6804 2.58 60.9404 3.32 60.0204 3.32C59.1004 3.32 58.3604 2.58 58.3604 1.66C58.3604 0.740004 59.1004 0 60.0204 0C60.9404 0 61.6804 0.740004 61.6804 1.66Z" fill="#121212"/>
<path d="M71.4099 1.66C71.4099 2.58 70.6698 3.32 69.7498 3.32C68.8298 3.32 68.0898 2.58 68.0898 1.66C68.0898 0.740004 68.8298 0 69.7498 0C70.6698 0 71.4099 0.740004 71.4099 1.66Z" fill="#121212"/>
<path d="M81.1403 1.66C81.1403 2.58 80.4003 3.32 79.4803 3.32C78.5603 3.32 77.8203 2.58 77.8203 1.66C77.8203 0.740004 78.5603 0 79.4803 0C80.4003 0 81.1403 0.740004 81.1403 1.66Z" fill="#121212"/>
<path d="M90.8698 1.66C90.8698 2.58 90.1298 3.32 89.2098 3.32C88.2898 3.32 87.5498 2.58 87.5498 1.66C87.5498 0.740004 88.2898 0 89.2098 0C90.1298 0 90.8698 0.740004 90.8698 1.66Z" fill="#121212"/>
<path d="M3.31 11.45C3.31 12.37 2.57 13.11 1.65 13.11C0.73 13.11 0 12.37 0 11.45C0 10.53 0.74 9.79001 1.66 9.79001C2.58 9.79001 3.31 10.54 3.31 11.45Z" fill="#121212"/>
<path d="M13.0397 11.45C13.0397 12.37 12.2997 13.11 11.3797 13.11C10.4597 13.11 9.71973 12.37 9.71973 11.45C9.71973 10.53 10.4597 9.79001 11.3797 9.79001C12.2997 9.79001 13.0397 10.54 13.0397 11.45Z" fill="#121212"/>
<path d="M22.7702 11.45C22.7702 12.37 22.0302 13.11 21.1102 13.11C20.1902 13.11 19.4502 12.37 19.4502 11.45C19.4502 10.53 20.1902 9.79001 21.1102 9.79001C22.0302 9.79001 22.7702 10.54 22.7702 11.45Z" fill="#121212"/>
<path d="M32.4997 11.45C32.4997 12.37 31.7597 13.11 30.8397 13.11C29.9197 13.11 29.1797 12.37 29.1797 11.45C29.1797 10.53 29.9197 9.79001 30.8397 9.79001C31.7597 9.79001 32.4997 10.54 32.4997 11.45Z" fill="#121212"/>
<path d="M42.2302 11.45C42.2302 12.37 41.4902 13.11 40.5702 13.11C39.6502 13.11 38.9102 12.37 38.9102 11.45C38.9102 10.53 39.6502 9.79001 40.5702 9.79001C41.4902 9.79001 42.2302 10.54 42.2302 11.45Z" fill="#121212"/>
<path d="M51.9596 11.45C51.9596 12.37 51.2196 13.11 50.2996 13.11C49.3796 13.11 48.6396 12.37 48.6396 11.45C48.6396 10.53 49.3796 9.79001 50.2996 9.79001C51.2196 9.79001 51.9596 10.54 51.9596 11.45Z" fill="#121212"/>
<path d="M61.6804 11.45C61.6804 12.37 60.9404 13.11 60.0204 13.11C59.1004 13.11 58.3604 12.37 58.3604 11.45C58.3604 10.53 59.1004 9.79001 60.0204 9.79001C60.9404 9.79001 61.6804 10.54 61.6804 11.45Z" fill="#121212"/>
<path d="M71.4099 11.45C71.4099 12.37 70.6698 13.11 69.7498 13.11C68.8298 13.11 68.0898 12.37 68.0898 11.45C68.0898 10.53 68.8298 9.79001 69.7498 9.79001C70.6698 9.79001 71.4099 10.54 71.4099 11.45Z" fill="#121212"/>
<path d="M81.1403 11.45C81.1403 12.37 80.4003 13.11 79.4803 13.11C78.5603 13.11 77.8203 12.37 77.8203 11.45C77.8203 10.53 78.5603 9.79001 79.4803 9.79001C80.4003 9.79001 81.1403 10.54 81.1403 11.45Z" fill="#121212"/>
<path d="M90.8698 11.45C90.8698 12.37 90.1298 13.11 89.2098 13.11C88.2898 13.11 87.5498 12.37 87.5498 11.45C87.5498 10.53 88.2898 9.79001 89.2098 9.79001C90.1298 9.79001 90.8698 10.54 90.8698 11.45Z" fill="#121212"/>
<path d="M1.66 22.91C2.57679 22.91 3.32 22.1668 3.32 21.25C3.32 20.3332 2.57679 19.59 1.66 19.59C0.743207 19.59 0 20.3332 0 21.25C0 22.1668 0.743207 22.91 1.66 22.91Z" fill="#121212"/>
<path d="M13.0397 21.25C13.0397 22.17 12.2997 22.91 11.3797 22.91C10.4597 22.91 9.71973 22.17 9.71973 21.25C9.71973 20.33 10.4597 19.59 11.3797 19.59C12.2997 19.59 13.0397 20.33 13.0397 21.25Z" fill="#121212"/>
<path d="M22.7702 21.25C22.7702 22.17 22.0302 22.91 21.1102 22.91C20.1902 22.91 19.4502 22.17 19.4502 21.25C19.4502 20.33 20.1902 19.59 21.1102 19.59C22.0302 19.59 22.7702 20.33 22.7702 21.25Z" fill="#121212"/>
<path d="M30.8397 22.91C31.7565 22.91 32.4997 22.1668 32.4997 21.25C32.4997 20.3332 31.7565 19.59 30.8397 19.59C29.9229 19.59 29.1797 20.3332 29.1797 21.25C29.1797 22.1668 29.9229 22.91 30.8397 22.91Z" fill="#121212"/>
<path d="M42.2302 21.25C42.2302 22.17 41.4902 22.91 40.5702 22.91C39.6502 22.91 38.9102 22.17 38.9102 21.25C38.9102 20.33 39.6502 19.59 40.5702 19.59C41.4902 19.59 42.2302 20.33 42.2302 21.25Z" fill="#121212"/>
<path d="M51.9596 21.25C51.9596 22.17 51.2196 22.91 50.2996 22.91C49.3796 22.91 48.6396 22.17 48.6396 21.25C48.6396 20.33 49.3796 19.59 50.2996 19.59C51.2196 19.59 51.9596 20.33 51.9596 21.25Z" fill="#121212"/>
<path d="M60.0301 22.91C60.9469 22.91 61.6901 22.1668 61.6901 21.25C61.6901 20.3332 60.9469 19.59 60.0301 19.59C59.1133 19.59 58.3701 20.3332 58.3701 21.25C58.3701 22.1668 59.1133 22.91 60.0301 22.91Z" fill="#121212"/>
<path d="M69.7596 22.91C70.6764 22.91 71.4196 22.1668 71.4196 21.25C71.4196 20.3332 70.6764 19.59 69.7596 19.59C68.8428 19.59 68.0996 20.3332 68.0996 21.25C68.0996 22.1668 68.8428 22.91 69.7596 22.91Z" fill="#121212"/>
<path d="M81.1403 21.25C81.1403 22.17 80.4003 22.91 79.4803 22.91C78.5603 22.91 77.8203 22.17 77.8203 21.25C77.8203 20.33 78.5603 19.59 79.4803 19.59C80.4003 19.59 81.1403 20.33 81.1403 21.25Z" fill="#121212"/>
<path d="M89.2098 22.91C90.1266 22.91 90.8698 22.1668 90.8698 21.25C90.8698 20.3332 90.1266 19.59 89.2098 19.59C88.293 19.59 87.5498 20.3332 87.5498 21.25C87.5498 22.1668 88.293 22.91 89.2098 22.91Z" fill="#121212"/>
<path d="M1.66 32.7C2.57679 32.7 3.32 31.9568 3.32 31.04C3.32 30.1232 2.57679 29.38 1.66 29.38C0.743207 29.38 0 30.1232 0 31.04C0 31.9568 0.743207 32.7 1.66 32.7Z" fill="#121212"/>
<path d="M13.0397 31.04C13.0397 31.96 12.2997 32.7 11.3797 32.7C10.4597 32.7 9.71973 31.96 9.71973 31.04C9.71973 30.12 10.4597 29.38 11.3797 29.38C12.2997 29.39 13.0397 30.13 13.0397 31.04Z" fill="#121212"/>
<path d="M22.7702 31.04C22.7702 31.96 22.0302 32.7 21.1102 32.7C20.1902 32.7 19.4502 31.96 19.4502 31.04C19.4502 30.12 20.1902 29.38 21.1102 29.38C22.0302 29.39 22.7702 30.13 22.7702 31.04Z" fill="#121212"/>
<path d="M30.8397 32.7C31.7565 32.7 32.4997 31.9568 32.4997 31.04C32.4997 30.1232 31.7565 29.38 30.8397 29.38C29.9229 29.38 29.1797 30.1232 29.1797 31.04C29.1797 31.9568 29.9229 32.7 30.8397 32.7Z" fill="#121212"/>
<path d="M42.2302 31.04C42.2302 31.96 41.4902 32.7 40.5702 32.7C39.6502 32.7 38.9102 31.96 38.9102 31.04C38.9102 30.12 39.6502 29.38 40.5702 29.38C41.4902 29.39 42.2302 30.13 42.2302 31.04Z" fill="#121212"/>
<path d="M51.9596 31.04C51.9596 31.96 51.2196 32.7 50.2996 32.7C49.3796 32.7 48.6396 31.96 48.6396 31.04C48.6396 30.12 49.3796 29.38 50.2996 29.38C51.2196 29.38 51.9596 30.13 51.9596 31.04Z" fill="#121212"/>
<path d="M60.0301 32.7C60.9469 32.7 61.6901 31.9568 61.6901 31.04C61.6901 30.1232 60.9469 29.38 60.0301 29.38C59.1133 29.38 58.3701 30.1232 58.3701 31.04C58.3701 31.9568 59.1133 32.7 60.0301 32.7Z" fill="#121212"/>
<path d="M69.7596 32.7C70.6764 32.7 71.4196 31.9568 71.4196 31.04C71.4196 30.1232 70.6764 29.38 69.7596 29.38C68.8428 29.38 68.0996 30.1232 68.0996 31.04C68.0996 31.9568 68.8428 32.7 69.7596 32.7Z" fill="#121212"/>
<path d="M81.1403 31.04C81.1403 31.96 80.4003 32.7 79.4803 32.7C78.5603 32.7 77.8203 31.96 77.8203 31.04C77.8203 30.12 78.5603 29.38 79.4803 29.38C80.4003 29.39 81.1403 30.13 81.1403 31.04Z" fill="#121212"/>
<path d="M89.2098 32.7C90.1266 32.7 90.8698 31.9568 90.8698 31.04C90.8698 30.1232 90.1266 29.38 89.2098 29.38C88.293 29.38 87.5498 30.1232 87.5498 31.04C87.5498 31.9568 88.293 32.7 89.2098 32.7Z" fill="#121212"/>
<path d="M1.66 42.5C2.57679 42.5 3.32 41.7568 3.32 40.84C3.32 39.9232 2.57679 39.18 1.66 39.18C0.743207 39.18 0 39.9232 0 40.84C0 41.7568 0.743207 42.5 1.66 42.5Z" fill="#121212"/>
<path d="M13.0397 40.84C13.0397 41.76 12.2997 42.5 11.3797 42.5C10.4597 42.5 9.71973 41.76 9.71973 40.84C9.71973 39.92 10.4597 39.18 11.3797 39.18C12.2997 39.18 13.0397 39.92 13.0397 40.84Z" fill="#121212"/>
<path d="M22.7702 40.84C22.7702 41.76 22.0302 42.5 21.1102 42.5C20.1902 42.5 19.4502 41.76 19.4502 40.84C19.4502 39.92 20.1902 39.18 21.1102 39.18C22.0302 39.18 22.7702 39.92 22.7702 40.84Z" fill="#121212"/>
<path d="M30.8397 42.5C31.7565 42.5 32.4997 41.7568 32.4997 40.84C32.4997 39.9232 31.7565 39.18 30.8397 39.18C29.9229 39.18 29.1797 39.9232 29.1797 40.84C29.1797 41.7568 29.9229 42.5 30.8397 42.5Z" fill="#121212"/>
<path d="M42.2302 40.84C42.2302 41.76 41.4902 42.5 40.5702 42.5C39.6502 42.5 38.9102 41.76 38.9102 40.84C38.9102 39.92 39.6502 39.18 40.5702 39.18C41.4902 39.18 42.2302 39.92 42.2302 40.84Z" fill="#121212"/>
<path d="M51.9596 40.84C51.9596 41.76 51.2196 42.5 50.2996 42.5C49.3796 42.5 48.6396 41.76 48.6396 40.84C48.6396 39.92 49.3796 39.18 50.2996 39.18C51.2196 39.18 51.9596 39.92 51.9596 40.84Z" fill="#121212"/>
<path d="M60.0301 42.5C60.9469 42.5 61.6901 41.7568 61.6901 40.84C61.6901 39.9232 60.9469 39.18 60.0301 39.18C59.1133 39.18 58.3701 39.9232 58.3701 40.84C58.3701 41.7568 59.1133 42.5 60.0301 42.5Z" fill="#121212"/>
<path d="M69.7596 42.5C70.6764 42.5 71.4196 41.7568 71.4196 40.84C71.4196 39.9232 70.6764 39.18 69.7596 39.18C68.8428 39.18 68.0996 39.9232 68.0996 40.84C68.0996 41.7568 68.8428 42.5 69.7596 42.5Z" fill="#121212"/>
<path d="M81.1403 40.84C81.1403 41.76 80.4003 42.5 79.4803 42.5C78.5603 42.5 77.8203 41.76 77.8203 40.84C77.8203 39.92 78.5603 39.18 79.4803 39.18C80.4003 39.18 81.1403 39.92 81.1403 40.84Z" fill="#121212"/>
<path d="M89.2098 42.5C90.1266 42.5 90.8698 41.7568 90.8698 40.84C90.8698 39.9232 90.1266 39.18 89.2098 39.18C88.293 39.18 87.5498 39.9232 87.5498 40.84C87.5498 41.7568 88.293 42.5 89.2098 42.5Z" fill="#121212"/>
<path d="M3.31 50.63C3.31 51.55 2.57 52.29 1.65 52.29C0.73 52.29 0 51.55 0 50.63C0 49.71 0.74 48.97 1.66 48.97C2.58 48.97 3.31 49.72 3.31 50.63Z" fill="#121212"/>
<path d="M13.0397 50.63C13.0397 51.55 12.2997 52.29 11.3797 52.29C10.4597 52.29 9.71973 51.55 9.71973 50.63C9.71973 49.71 10.4597 48.97 11.3797 48.97C12.2997 48.98 13.0397 49.72 13.0397 50.63Z" fill="#121212"/>
<path d="M22.7702 50.63C22.7702 51.55 22.0302 52.29 21.1102 52.29C20.1902 52.29 19.4502 51.55 19.4502 50.63C19.4502 49.71 20.1902 48.97 21.1102 48.97C22.0302 48.98 22.7702 49.72 22.7702 50.63Z" fill="#121212"/>
<path d="M32.4997 50.63C32.4997 51.55 31.7597 52.29 30.8397 52.29C29.9197 52.29 29.1797 51.55 29.1797 50.63C29.1797 49.71 29.9197 48.97 30.8397 48.97C31.7597 48.97 32.4997 49.72 32.4997 50.63Z" fill="#121212"/>
<path d="M42.2302 50.63C42.2302 51.55 41.4902 52.29 40.5702 52.29C39.6502 52.29 38.9102 51.55 38.9102 50.63C38.9102 49.71 39.6502 48.97 40.5702 48.97C41.4902 48.98 42.2302 49.72 42.2302 50.63Z" fill="#121212"/>
<path d="M51.9596 50.63C51.9596 51.55 51.2196 52.29 50.2996 52.29C49.3796 52.29 48.6396 51.55 48.6396 50.63C48.6396 49.71 49.3796 48.97 50.2996 48.97C51.2196 48.97 51.9596 49.72 51.9596 50.63Z" fill="#121212"/>
<path d="M61.6804 50.63C61.6804 51.55 60.9404 52.29 60.0204 52.29C59.1004 52.29 58.3604 51.55 58.3604 50.63C58.3604 49.71 59.1004 48.97 60.0204 48.97C60.9404 48.98 61.6804 49.72 61.6804 50.63Z" fill="#121212"/>
<path d="M71.4099 50.63C71.4099 51.55 70.6698 52.29 69.7498 52.29C68.8298 52.29 68.0898 51.55 68.0898 50.63C68.0898 49.71 68.8298 48.97 69.7498 48.97C70.6698 48.98 71.4099 49.72 71.4099 50.63Z" fill="#121212"/>
<path d="M81.1403 50.63C81.1403 51.55 80.4003 52.29 79.4803 52.29C78.5603 52.29 77.8203 51.55 77.8203 50.63C77.8203 49.71 78.5603 48.97 79.4803 48.97C80.4003 48.98 81.1403 49.72 81.1403 50.63Z" fill="#121212"/>
<path d="M90.8698 50.63C90.8698 51.55 90.1298 52.29 89.2098 52.29C88.2898 52.29 87.5498 51.55 87.5498 50.63C87.5498 49.71 88.2898 48.97 89.2098 48.97C90.1298 48.98 90.8698 49.72 90.8698 50.63Z" fill="#121212"/>
<path d="M3.31 60.43C3.31 61.35 2.57 62.09 1.65 62.09C0.73 62.09 0 61.34 0 60.43C0 59.51 0.74 58.77 1.66 58.77C2.58 58.77 3.31 59.51 3.31 60.43Z" fill="#121212"/>
<path d="M13.0397 60.43C13.0397 61.35 12.2997 62.09 11.3797 62.09C10.4597 62.09 9.71973 61.35 9.71973 60.43C9.71973 59.51 10.4597 58.77 11.3797 58.77C12.2997 58.77 13.0397 59.51 13.0397 60.43Z" fill="#121212"/>
<path d="M22.7702 60.43C22.7702 61.35 22.0302 62.09 21.1102 62.09C20.1902 62.09 19.4502 61.35 19.4502 60.43C19.4502 59.51 20.1902 58.77 21.1102 58.77C22.0302 58.77 22.7702 59.51 22.7702 60.43Z" fill="#121212"/>
<path d="M32.4997 60.43C32.4997 61.35 31.7597 62.09 30.8397 62.09C29.9197 62.09 29.1797 61.35 29.1797 60.43C29.1797 59.51 29.9197 58.77 30.8397 58.77C31.7597 58.77 32.4997 59.51 32.4997 60.43Z" fill="#121212"/>
<path d="M42.2302 60.43C42.2302 61.35 41.4902 62.09 40.5702 62.09C39.6502 62.09 38.9102 61.35 38.9102 60.43C38.9102 59.51 39.6502 58.77 40.5702 58.77C41.4902 58.77 42.2302 59.51 42.2302 60.43Z" fill="#121212"/>
<path d="M51.9596 60.43C51.9596 61.35 51.2196 62.09 50.2996 62.09C49.3796 62.09 48.6396 61.35 48.6396 60.43C48.6396 59.51 49.3796 58.77 50.2996 58.77C51.2196 58.77 51.9596 59.51 51.9596 60.43Z" fill="#121212"/>
<path d="M61.6804 60.43C61.6804 61.35 60.9404 62.09 60.0204 62.09C59.1004 62.09 58.3604 61.35 58.3604 60.43C58.3604 59.51 59.1004 58.77 60.0204 58.77C60.9404 58.77 61.6804 59.51 61.6804 60.43Z" fill="#121212"/>
<path d="M71.4099 60.43C71.4099 61.35 70.6698 62.09 69.7498 62.09C68.8298 62.09 68.0898 61.35 68.0898 60.43C68.0898 59.51 68.8298 58.77 69.7498 58.77C70.6698 58.77 71.4099 59.51 71.4099 60.43Z" fill="#121212"/>
<path d="M81.1403 60.43C81.1403 61.35 80.4003 62.09 79.4803 62.09C78.5603 62.09 77.8203 61.35 77.8203 60.43C77.8203 59.51 78.5603 58.77 79.4803 58.77C80.4003 58.77 81.1403 59.51 81.1403 60.43Z" fill="#121212"/>
<path d="M90.8698 60.43C90.8698 61.35 90.1298 62.09 89.2098 62.09C88.2898 62.09 87.5498 61.35 87.5498 60.43C87.5498 59.51 88.2898 58.77 89.2098 58.77C90.1298 58.77 90.8698 59.51 90.8698 60.43Z" fill="#121212"/>
<path d="M3.31 70.22C3.31 71.14 2.57 71.88 1.65 71.88C0.73 71.88 0 71.14 0 70.22C0 69.3 0.74 68.56 1.66 68.56C2.58 68.56 3.31 69.31 3.31 70.22Z" fill="#121212"/>
<path d="M13.0397 70.22C13.0397 71.14 12.2997 71.88 11.3797 71.88C10.4597 71.88 9.71973 71.14 9.71973 70.22C9.71973 69.3 10.4597 68.56 11.3797 68.56C12.2997 68.57 13.0397 69.31 13.0397 70.22Z" fill="#121212"/>
<path d="M22.7702 70.22C22.7702 71.14 22.0302 71.88 21.1102 71.88C20.1902 71.88 19.4502 71.14 19.4502 70.22C19.4502 69.3 20.1902 68.56 21.1102 68.56C22.0302 68.57 22.7702 69.31 22.7702 70.22Z" fill="#121212"/>
<path d="M32.4997 70.22C32.4997 71.14 31.7597 71.88 30.8397 71.88C29.9197 71.88 29.1797 71.14 29.1797 70.22C29.1797 69.3 29.9197 68.56 30.8397 68.56C31.7597 68.56 32.4997 69.31 32.4997 70.22Z" fill="#121212"/>
<path d="M42.2302 70.22C42.2302 71.14 41.4902 71.88 40.5702 71.88C39.6502 71.88 38.9102 71.14 38.9102 70.22C38.9102 69.3 39.6502 68.56 40.5702 68.56C41.4902 68.57 42.2302 69.31 42.2302 70.22Z" fill="#121212"/>
<path d="M51.9596 70.22C51.9596 71.14 51.2196 71.88 50.2996 71.88C49.3796 71.88 48.6396 71.14 48.6396 70.22C48.6396 69.3 49.3796 68.56 50.2996 68.56C51.2196 68.56 51.9596 69.31 51.9596 70.22Z" fill="#121212"/>
<path d="M61.6804 70.22C61.6804 71.14 60.9404 71.88 60.0204 71.88C59.1004 71.88 58.3604 71.14 58.3604 70.22C58.3604 69.3 59.1004 68.56 60.0204 68.56C60.9404 68.57 61.6804 69.31 61.6804 70.22Z" fill="#121212"/>
<path d="M71.4099 70.22C71.4099 71.14 70.6698 71.88 69.7498 71.88C68.8298 71.88 68.0898 71.14 68.0898 70.22C68.0898 69.3 68.8298 68.56 69.7498 68.56C70.6698 68.57 71.4099 69.31 71.4099 70.22Z" fill="#121212"/>
<path d="M81.1403 70.22C81.1403 71.14 80.4003 71.88 79.4803 71.88C78.5603 71.88 77.8203 71.14 77.8203 70.22C77.8203 69.3 78.5603 68.56 79.4803 68.56C80.4003 68.57 81.1403 69.31 81.1403 70.22Z" fill="#121212"/>
<path d="M90.8698 70.22C90.8698 71.14 90.1298 71.88 89.2098 71.88C88.2898 71.88 87.5498 71.14 87.5498 70.22C87.5498 69.3 88.2898 68.56 89.2098 68.56C90.1298 68.57 90.8698 69.31 90.8698 70.22Z" fill="#121212"/>
<path d="M3.31 80.02C3.31 80.94 2.57 81.68 1.65 81.68C0.73 81.68 0 80.94 0 80.02C0 79.1 0.74 78.36 1.66 78.36C2.58 78.36 3.31 79.1 3.31 80.02Z" fill="#121212"/>
<path d="M13.0397 80.02C13.0397 80.94 12.2997 81.68 11.3797 81.68C10.4597 81.68 9.71973 80.94 9.71973 80.02C9.71973 79.1 10.4597 78.36 11.3797 78.36C12.2997 78.36 13.0397 79.1 13.0397 80.02Z" fill="#121212"/>
<path d="M22.7702 80.02C22.7702 80.94 22.0302 81.68 21.1102 81.68C20.1902 81.68 19.4502 80.94 19.4502 80.02C19.4502 79.1 20.1902 78.36 21.1102 78.36C22.0302 78.36 22.7702 79.1 22.7702 80.02Z" fill="#121212"/>
<path d="M32.4997 80.02C32.4997 80.94 31.7597 81.68 30.8397 81.68C29.9197 81.68 29.1797 80.94 29.1797 80.02C29.1797 79.1 29.9197 78.36 30.8397 78.36C31.7597 78.36 32.4997 79.1 32.4997 80.02Z" fill="#121212"/>
<path d="M42.2302 80.02C42.2302 80.94 41.4902 81.68 40.5702 81.68C39.6502 81.68 38.9102 80.94 38.9102 80.02C38.9102 79.1 39.6502 78.36 40.5702 78.36C41.4902 78.36 42.2302 79.1 42.2302 80.02Z" fill="#121212"/>
<path d="M51.9596 80.02C51.9596 80.94 51.2196 81.68 50.2996 81.68C49.3796 81.68 48.6396 80.94 48.6396 80.02C48.6396 79.1 49.3796 78.36 50.2996 78.36C51.2196 78.36 51.9596 79.1 51.9596 80.02Z" fill="#121212"/>
<path d="M61.6804 80.02C61.6804 80.94 60.9404 81.68 60.0204 81.68C59.1004 81.68 58.3604 80.94 58.3604 80.02C58.3604 79.1 59.1004 78.36 60.0204 78.36C60.9404 78.36 61.6804 79.1 61.6804 80.02Z" fill="#121212"/>
<path d="M71.4099 80.02C71.4099 80.94 70.6698 81.68 69.7498 81.68C68.8298 81.68 68.0898 80.94 68.0898 80.02C68.0898 79.1 68.8298 78.36 69.7498 78.36C70.6698 78.36 71.4099 79.1 71.4099 80.02Z" fill="#121212"/>
<path d="M81.1403 80.02C81.1403 80.94 80.4003 81.68 79.4803 81.68C78.5603 81.68 77.8203 80.94 77.8203 80.02C77.8203 79.1 78.5603 78.36 79.4803 78.36C80.4003 78.36 81.1403 79.1 81.1403 80.02Z" fill="#121212"/>
<path d="M90.8698 80.02C90.8698 80.94 90.1298 81.68 89.2098 81.68C88.2898 81.68 87.5498 80.94 87.5498 80.02C87.5498 79.1 88.2898 78.36 89.2098 78.36C90.1298 78.36 90.8698 79.1 90.8698 80.02Z" fill="#121212"/>
</svg>
