<svg width="256" height="256" viewBox="0 0 256 256" fill="none" xmlns="http://www.w3.org/2000/svg">
<path d="M128.242 3C197.131 3 252.984 58.8538 252.984 127.742C252.984 196.63 197.131 252.484 128.242 252.484" stroke="#F9E95E" stroke-width="6" stroke-miterlimit="10"/>
<path d="M128.242 36.0269C178.903 36.0269 219.974 77.0984 219.974 127.759C219.974 178.419 178.903 219.474 128.242 219.474" stroke="#F9E95E" stroke-width="6" stroke-miterlimit="10"/>
<path d="M128.242 69.0366C160.658 69.0366 186.948 95.3258 186.948 127.742C186.948 160.158 160.658 186.447 128.242 186.447" stroke="#F9E95E" stroke-width="6" stroke-miterlimit="10"/>
<path d="M128.242 102.064C142.431 102.064 153.921 113.571 153.921 127.742C153.921 141.93 142.414 153.42 128.242 153.42" stroke="#F9E95E" stroke-width="6" stroke-miterlimit="10"/>
<path d="M128.242 252.484C59.3543 252.484 3.5005 196.63 3.5005 127.742C3.5005 58.8538 59.3543 3 128.242 3" stroke="#F9E95E" stroke-width="6" stroke-miterlimit="10"/>
<path d="M128.242 219.457C77.5819 219.457 36.5104 178.386 36.5104 127.725C36.5104 77.0645 77.5819 36.01 128.242 36.01" stroke="#F9E95E" stroke-width="6" stroke-miterlimit="10"/>
<path d="M128.242 186.447C95.8265 186.447 69.5374 160.158 69.5374 127.742C69.5374 95.3263 95.8265 69.0371 128.242 69.0371" stroke="#F9E95E" stroke-width="6" stroke-miterlimit="10"/>
<path d="M128.242 153.42C114.054 153.42 102.564 141.913 102.564 127.742C102.564 113.553 114.071 102.064 128.242 102.064" stroke="#F9E95E" stroke-width="6" stroke-miterlimit="10"/>
</svg>
