<svg width="160" height="11" viewBox="0 0 160 11" fill="none" xmlns="http://www.w3.org/2000/svg">
<path d="M10.16 5.08C10.16 7.89 7.88 10.16 5.08 10.16C2.28 10.16 0 7.89 0 5.08C0 2.27 2.28 0 5.08 0C7.89 0 10.16 2.28 10.16 5.08Z" fill="#83E573"/>
<path d="M39.9901 5.08C39.9901 7.89 37.7101 10.16 34.9101 10.16C32.1001 10.16 29.8301 7.88 29.8301 5.08C29.8301 2.28 32.1001 0 34.9101 0C37.7201 0 39.9901 2.28 39.9901 5.08Z" fill="#83E573"/>
<path d="M69.8199 5.08C69.8199 7.89 67.5399 10.16 64.7399 10.16C61.9299 10.16 59.6599 7.88 59.6599 5.08C59.6599 2.28 61.9299 0 64.7399 0C67.5399 0 69.8199 2.28 69.8199 5.08Z" fill="#83E573"/>
<path d="M99.65 5.08C99.65 7.89 97.37 10.16 94.57 10.16C91.76 10.16 89.49 7.88 89.49 5.08C89.49 2.28 91.76 0 94.57 0C97.37 0 99.65 2.28 99.65 5.08Z" fill="#83E573"/>
<path d="M129.48 5.08C129.48 7.89 127.2 10.16 124.4 10.16C121.59 10.16 119.32 7.88 119.32 5.08C119.32 2.28 121.59 0 124.39 0C127.2 0 129.48 2.28 129.48 5.08Z" fill="#83E573"/>
<path d="M159.3 5.08C159.3 7.89 157.02 10.16 154.22 10.16C151.42 10.16 149.14 7.88 149.14 5.08C149.14 2.28 151.41 0 154.22 0C157.03 0 159.3 2.28 159.3 5.08Z" fill="#83E573"/>
</svg>
