<svg width="207" height="63" viewBox="0 0 207 63" fill="none" xmlns="http://www.w3.org/2000/svg">
<g clip-path="url(#clip0)">
<path d="M56.1771 30.8944C58.2891 30.8944 59.8611 31.5184 60.8931 32.7664C61.9251 33.9904 62.4411 35.8504 62.4411 38.3464V46.6624C62.4411 47.4544 62.1891 48.0784 61.6851 48.5344C61.2051 48.9904 60.5451 49.2184 59.7051 49.2184C58.8651 49.2184 58.2051 48.9904 57.7251 48.5344C57.2451 48.0784 57.0051 47.4544 57.0051 46.6624V38.5984C57.0051 37.3984 56.7771 36.5224 56.3211 35.9704C55.8891 35.4184 55.2051 35.1424 54.2691 35.1424C53.1411 35.1424 52.2291 35.5024 51.5331 36.2224C50.8611 36.9424 50.5251 37.9024 50.5251 39.1024V46.6624C50.5251 47.4544 50.2851 48.0784 49.8051 48.5344C49.3251 48.9904 48.6651 49.2184 47.8251 49.2184C46.9851 49.2184 46.3131 48.9904 45.8091 48.5344C45.3291 48.0784 45.0891 47.4544 45.0891 46.6624V33.4504C45.0891 32.7064 45.3411 32.1064 45.8451 31.6504C46.3731 31.1944 47.0451 30.9664 47.8611 30.9664C48.6051 30.9664 49.2051 31.1944 49.6611 31.6504C50.1411 32.0824 50.3811 32.6464 50.3811 33.3424V33.8464C51.0051 32.8864 51.8091 32.1544 52.7931 31.6504C53.8011 31.1464 54.9291 30.8944 56.1771 30.8944ZM69.2352 49.2184C68.4432 49.2184 67.7832 49.0024 67.2552 48.5704C66.7512 48.1384 66.4992 47.5024 66.4992 46.6624V33.5224C66.4992 32.6824 66.7632 32.0464 67.2912 31.6144C67.8192 31.1824 68.4672 30.9664 69.2352 30.9664C70.0032 30.9664 70.6392 31.1824 71.1432 31.6144C71.6712 32.0464 71.9352 32.6824 71.9352 33.5224V46.6624C71.9352 47.5024 71.6712 48.1384 71.1432 48.5704C70.6392 49.0024 70.0032 49.2184 69.2352 49.2184ZM69.2352 28.0864C68.2752 28.0864 67.5192 27.8464 66.9672 27.3664C66.4152 26.8624 66.1392 26.1904 66.1392 25.3504C66.1392 24.5104 66.4152 23.8504 66.9672 23.3704C67.5192 22.8904 68.2752 22.6504 69.2352 22.6504C70.1712 22.6504 70.9152 22.9024 71.4672 23.4064C72.0432 23.8864 72.3312 24.5344 72.3312 25.3504C72.3312 26.1904 72.0552 26.8624 71.5032 27.3664C70.9512 27.8464 70.1952 28.0864 69.2352 28.0864ZM97.8769 30.8944C99.7969 30.8944 101.273 31.4824 102.305 32.6584C103.337 33.8104 103.853 35.7064 103.853 38.3464V46.6624C103.853 47.5024 103.601 48.1384 103.097 48.5704C102.593 49.0024 101.945 49.2184 101.153 49.2184C100.385 49.2184 99.7369 49.0024 99.2089 48.5704C98.6809 48.1384 98.4169 47.5024 98.4169 46.6624V38.2744C98.4169 37.1224 98.2129 36.3184 97.8049 35.8624C97.4209 35.3824 96.8209 35.1424 96.0049 35.1424C94.9969 35.1424 94.1929 35.4904 93.5929 36.1864C92.9929 36.8824 92.6929 37.8544 92.6929 39.1024V46.6624C92.6929 47.5024 92.4409 48.1384 91.9369 48.5704C91.4329 49.0024 90.7849 49.2184 89.9929 49.2184C89.2249 49.2184 88.5769 49.0024 88.0489 48.5704C87.5209 48.1384 87.2569 47.5024 87.2569 46.6624V38.2744C87.2569 37.1224 87.0529 36.3184 86.6449 35.8624C86.2609 35.3824 85.6609 35.1424 84.8449 35.1424C83.8369 35.1424 83.0329 35.4904 82.4329 36.1864C81.8329 36.8824 81.5329 37.8544 81.5329 39.1024V46.6624C81.5329 47.5024 81.2689 48.1384 80.7409 48.5704C80.2369 49.0024 79.6009 49.2184 78.8329 49.2184C78.0649 49.2184 77.4169 49.0024 76.8889 48.5704C76.3609 48.1384 76.0969 47.5024 76.0969 46.6624V33.4504C76.0969 32.6584 76.3609 32.0464 76.8889 31.6144C77.4409 31.1824 78.1009 30.9664 78.8689 30.9664C79.5889 30.9664 80.1889 31.1824 80.6689 31.6144C81.1489 32.0224 81.3889 32.5984 81.3889 33.3424V33.7024C81.9649 32.7904 82.7089 32.0944 83.6209 31.6144C84.5569 31.1344 85.6129 30.8944 86.7889 30.8944C88.0609 30.8944 89.1289 31.1584 89.9929 31.6864C90.8809 32.1904 91.5649 33.0184 92.0449 34.1704C92.5969 33.1624 93.3769 32.3704 94.3849 31.7944C95.4169 31.1944 96.5809 30.8944 97.8769 30.8944ZM115.904 30.8944C118.496 30.8944 120.416 31.5304 121.664 32.8024C122.912 34.0504 123.536 35.9704 123.536 38.5624V46.6984C123.536 47.4904 123.308 48.1144 122.852 48.5704C122.396 49.0024 121.76 49.2184 120.944 49.2184C120.176 49.2184 119.552 48.9904 119.072 48.5344C118.616 48.0544 118.388 47.4424 118.388 46.6984V46.4464C118.028 47.3344 117.428 48.0304 116.588 48.5344C115.748 49.0384 114.764 49.2904 113.636 49.2904C112.436 49.2904 111.344 49.0504 110.36 48.5704C109.4 48.0904 108.632 47.4184 108.056 46.5544C107.504 45.6904 107.228 44.7304 107.228 43.6744C107.228 42.3784 107.552 41.3584 108.2 40.6144C108.872 39.8704 109.94 39.3304 111.404 38.9944C112.868 38.6584 114.872 38.4904 117.416 38.4904H118.352V37.8424C118.352 36.8344 118.124 36.1024 117.668 35.6464C117.236 35.1904 116.504 34.9624 115.472 34.9624C114.44 34.9624 112.952 35.3224 111.008 36.0424C110.456 36.3064 109.988 36.4384 109.604 36.4384C109.076 36.4384 108.656 36.2584 108.344 35.8984C108.032 35.5144 107.876 35.0224 107.876 34.4224C107.876 33.9424 107.984 33.5464 108.2 33.2344C108.416 32.9224 108.764 32.6344 109.244 32.3704C110.084 31.9144 111.104 31.5544 112.304 31.2904C113.528 31.0264 114.728 30.8944 115.904 30.8944ZM114.824 45.5464C115.88 45.5464 116.732 45.1984 117.38 44.5024C118.028 43.7824 118.352 42.8584 118.352 41.7304V41.1184H117.74C115.796 41.1184 114.428 41.2744 113.636 41.5864C112.868 41.8984 112.484 42.4624 112.484 43.2784C112.484 43.9504 112.7 44.5024 113.132 44.9344C113.588 45.3424 114.152 45.5464 114.824 45.5464ZM130.337 49.2184C129.545 49.2184 128.885 49.0024 128.357 48.5704C127.853 48.1384 127.601 47.5024 127.601 46.6624V25.9984C127.601 25.1584 127.853 24.5224 128.357 24.0904C128.885 23.6584 129.545 23.4424 130.337 23.4424C131.105 23.4424 131.741 23.6584 132.245 24.0904C132.773 24.5224 133.037 25.1584 133.037 25.9984V46.6624C133.037 47.5024 132.773 48.1384 132.245 48.5704C131.741 49.0024 131.105 49.2184 130.337 49.2184ZM145.154 30.8944C147.746 30.8944 149.666 31.5304 150.914 32.8024C152.162 34.0504 152.786 35.9704 152.786 38.5624V46.6984C152.786 47.4904 152.558 48.1144 152.102 48.5704C151.646 49.0024 151.01 49.2184 150.194 49.2184C149.426 49.2184 148.802 48.9904 148.322 48.5344C147.866 48.0544 147.638 47.4424 147.638 46.6984V46.4464C147.278 47.3344 146.678 48.0304 145.838 48.5344C144.998 49.0384 144.014 49.2904 142.886 49.2904C141.686 49.2904 140.594 49.0504 139.61 48.5704C138.65 48.0904 137.882 47.4184 137.306 46.5544C136.754 45.6904 136.478 44.7304 136.478 43.6744C136.478 42.3784 136.802 41.3584 137.45 40.6144C138.122 39.8704 139.19 39.3304 140.654 38.9944C142.118 38.6584 144.122 38.4904 146.666 38.4904H147.602V37.8424C147.602 36.8344 147.374 36.1024 146.918 35.6464C146.486 35.1904 145.754 34.9624 144.722 34.9624C143.69 34.9624 142.202 35.3224 140.258 36.0424C139.706 36.3064 139.238 36.4384 138.854 36.4384C138.326 36.4384 137.906 36.2584 137.594 35.8984C137.282 35.5144 137.126 35.0224 137.126 34.4224C137.126 33.9424 137.234 33.5464 137.45 33.2344C137.666 32.9224 138.014 32.6344 138.494 32.3704C139.334 31.9144 140.354 31.5544 141.554 31.2904C142.778 31.0264 143.978 30.8944 145.154 30.8944ZM144.074 45.5464C145.13 45.5464 145.982 45.1984 146.63 44.5024C147.278 43.7824 147.602 42.8584 147.602 41.7304V41.1184H146.99C145.046 41.1184 143.678 41.2744 142.886 41.5864C142.118 41.8984 141.734 42.4624 141.734 43.2784C141.734 43.9504 141.95 44.5024 142.382 44.9344C142.838 45.3424 143.402 45.5464 144.074 45.5464ZM178.631 30.8944C180.551 30.8944 182.027 31.4824 183.059 32.6584C184.091 33.8104 184.607 35.7064 184.607 38.3464V46.6624C184.607 47.5024 184.355 48.1384 183.851 48.5704C183.347 49.0024 182.699 49.2184 181.907 49.2184C181.139 49.2184 180.491 49.0024 179.963 48.5704C179.435 48.1384 179.171 47.5024 179.171 46.6624V38.2744C179.171 37.1224 178.967 36.3184 178.559 35.8624C178.175 35.3824 177.575 35.1424 176.759 35.1424C175.751 35.1424 174.947 35.4904 174.347 36.1864C173.747 36.8824 173.447 37.8544 173.447 39.1024V46.6624C173.447 47.5024 173.195 48.1384 172.691 48.5704C172.187 49.0024 171.539 49.2184 170.747 49.2184C169.979 49.2184 169.331 49.0024 168.803 48.5704C168.275 48.1384 168.011 47.5024 168.011 46.6624V38.2744C168.011 37.1224 167.807 36.3184 167.399 35.8624C167.015 35.3824 166.415 35.1424 165.599 35.1424C164.591 35.1424 163.787 35.4904 163.187 36.1864C162.587 36.8824 162.287 37.8544 162.287 39.1024V46.6624C162.287 47.5024 162.023 48.1384 161.495 48.5704C160.991 49.0024 160.355 49.2184 159.587 49.2184C158.819 49.2184 158.171 49.0024 157.643 48.5704C157.115 48.1384 156.851 47.5024 156.851 46.6624V33.4504C156.851 32.6584 157.115 32.0464 157.643 31.6144C158.195 31.1824 158.855 30.9664 159.623 30.9664C160.343 30.9664 160.943 31.1824 161.423 31.6144C161.903 32.0224 162.143 32.5984 162.143 33.3424V33.7024C162.719 32.7904 163.463 32.0944 164.375 31.6144C165.311 31.1344 166.367 30.8944 167.543 30.8944C168.815 30.8944 169.883 31.1584 170.747 31.6864C171.635 32.1904 172.319 33.0184 172.799 34.1704C173.351 33.1624 174.131 32.3704 175.139 31.7944C176.171 31.1944 177.335 30.8944 178.631 30.8944ZM196.658 30.8944C199.25 30.8944 201.17 31.5304 202.418 32.8024C203.666 34.0504 204.29 35.9704 204.29 38.5624V46.6984C204.29 47.4904 204.062 48.1144 203.606 48.5704C203.15 49.0024 202.514 49.2184 201.698 49.2184C200.93 49.2184 200.306 48.9904 199.826 48.5344C199.37 48.0544 199.142 47.4424 199.142 46.6984V46.4464C198.782 47.3344 198.182 48.0304 197.342 48.5344C196.502 49.0384 195.518 49.2904 194.39 49.2904C193.19 49.2904 192.098 49.0504 191.114 48.5704C190.154 48.0904 189.386 47.4184 188.81 46.5544C188.258 45.6904 187.982 44.7304 187.982 43.6744C187.982 42.3784 188.306 41.3584 188.954 40.6144C189.626 39.8704 190.694 39.3304 192.158 38.9944C193.622 38.6584 195.626 38.4904 198.17 38.4904H199.106V37.8424C199.106 36.8344 198.878 36.1024 198.422 35.6464C197.99 35.1904 197.258 34.9624 196.226 34.9624C195.194 34.9624 193.706 35.3224 191.762 36.0424C191.21 36.3064 190.742 36.4384 190.358 36.4384C189.83 36.4384 189.41 36.2584 189.098 35.8984C188.786 35.5144 188.63 35.0224 188.63 34.4224C188.63 33.9424 188.738 33.5464 188.954 33.2344C189.17 32.9224 189.518 32.6344 189.998 32.3704C190.838 31.9144 191.858 31.5544 193.058 31.2904C194.282 31.0264 195.482 30.8944 196.658 30.8944ZM195.578 45.5464C196.634 45.5464 197.486 45.1984 198.134 44.5024C198.782 43.7824 199.106 42.8584 199.106 41.7304V41.1184H198.494C196.55 41.1184 195.182 41.2744 194.39 41.5864C193.622 41.8984 193.238 42.4624 193.238 43.2784C193.238 43.9504 193.454 44.5024 193.886 44.9344C194.342 45.3424 194.906 45.5464 195.578 45.5464Z" fill="white"/>
<path d="M28.7085 53.0248C23.7485 54.532 25.0393 40.6176 25.0393 40.6176C25.0393 40.6176 22.196 40.3319 19.7363 39.6816C17.7518 39.1562 14.4054 37.9525 14.4054 37.9525C14.4054 37.9525 16.4991 52.8947 8.54079 53.9735C3.3572 54.6748 -1.22925 41.4617 0.297871 24.4895C1.64967 9.48352 11.5722 2.66657 15.2312 0.92727C17.4317 -0.118352 19.8583 0.0193639 19.8583 0.0193639C19.8583 0.0193639 22.1858 -0.179559 24.5438 0.697743C28.8838 2.31463 39.2535 11.2177 39.9243 25.7646C40.5952 40.3141 36.8498 50.551 28.7085 53.0248Z" fill="white"/>
<path d="M38.6517 29.9351C38.6517 32.9751 38.4535 35.9691 38.0571 38.754C38.0571 38.7668 38.0545 38.7795 38.052 38.7923C36.7586 47.8305 33.3817 54.6322 27.9389 53.4769C23.853 52.6072 25.8502 41.1488 25.8502 41.1488C25.8502 41.1488 25.802 41.1437 25.713 41.136C25.7003 41.136 25.6876 41.136 25.6724 41.1335C24.9965 41.0697 22.5368 40.83 20.5599 40.4296C20.1661 40.3429 19.7722 40.2511 19.3835 40.1541C17.5921 39.6619 14.144 38.471 13.7146 38.3205C13.7044 38.3179 13.6968 38.3128 13.6891 38.3128C13.6815 38.3077 13.6739 38.3052 13.6688 38.3052C13.6688 38.3052 15.8998 53.3086 8.87654 53.9691C6.19835 54.219 3.70058 50.6359 2.21157 44.6835C1.74149 42.809 1.37304 40.6999 1.12911 38.3995C0.8928 35.4233 1.07067 32.5288 1.78976 30.259C1.95239 29.7413 2.1455 29.2593 2.36656 28.813C3.78951 25.9541 8.17015 24.2913 13.3436 26.6452C17.6937 28.6243 26.1907 30.004 26.7599 26.0076C27.5654 20.374 19.9603 16.6175 17.7598 16.3701C17.6759 18.168 14.1643 17.4718 13.989 17.3774C13.5392 17.1403 12.5305 15.8065 12.2764 15.0414C12.0553 14.3757 13.3766 12.5446 13.7222 12.0856C13.7679 12.0244 13.7603 11.9377 13.7069 11.8816C10.0987 8.11219 16.3419 5.60525 16.3419 5.60525C15.3255 4.84016 12.1595 5.23801 12.1595 5.23801C13.8873 2.78207 16.8272 3.56246 17.2592 3.69253C16.7968 3.20797 14.581 2.39443 13.961 2.17C15.0384 1.7084 17.3202 1.63699 18.484 1.94557C20.2245 2.44543 21.0503 3.53696 21.0503 3.53696C21.7796 3.10086 22.8443 2.65201 23.9648 2.79992C24.4552 2.86623 25.0524 3.08046 25.7206 3.4324C28.531 5.1513 32.4593 8.82372 35.2391 14.2023C35.3052 14.3324 35.3687 14.4625 35.4348 14.5925C37.1322 18.0507 38.3671 22.1592 38.5754 26.7651C38.6008 27.3185 38.6186 27.8617 38.6313 28.3973C38.639 28.6906 38.644 28.9813 38.6466 29.2669C38.6517 29.4914 38.6542 29.7132 38.6517 29.9351Z" fill="#121212"/>
<path d="M20.2143 19.5833C17.1778 18.8642 14.182 25.4745 15.5338 26.5763C16.8018 27.6117 24.4908 28.4635 25.0523 26.4589C26.0306 22.9523 21.7135 19.9404 20.2143 19.5833Z" fill="#121212"/>
<path d="M20.0874 4.23851C20.555 3.7667 21.1038 3.37141 21.7035 3.06027C22.0058 2.9098 22.3209 2.77719 22.6563 2.69048C22.9867 2.59357 23.3373 2.54511 23.6905 2.54256C24.4096 2.53746 25.0906 2.77719 25.7131 3.05262C26.3382 3.3357 26.9277 3.67744 27.4994 4.04723C29.7482 5.57231 31.659 7.52839 33.2903 9.68339C36.5656 13.9909 38.6924 19.2164 39.2972 24.6435C39.3836 25.3193 39.4166 26.0028 39.4598 26.6812C39.4852 27.3519 39.5132 28.0201 39.5182 28.6908C39.5335 30.0323 39.5233 31.3737 39.4547 32.7152C39.3175 35.3955 39.0253 38.081 38.4205 40.7129C38.1156 42.0289 37.7599 43.3372 37.2644 44.6047C36.7664 45.8696 36.1692 47.1116 35.3383 48.2235C34.9191 48.7744 34.4388 49.2921 33.8646 49.7053C33.2954 50.1184 32.6144 50.427 31.9004 50.4856C31.537 50.5188 31.1356 50.455 30.8154 50.251C30.4952 50.0444 30.2742 49.741 30.1293 49.4247C29.987 49.1059 29.9057 48.7718 29.8575 48.4403C29.8092 48.1062 29.7939 47.7721 29.8117 47.4406C29.8829 48.096 30.0379 48.7565 30.3682 49.2998C30.5308 49.5675 30.7468 49.7945 31.0034 49.9195C31.2601 50.0419 31.5497 50.0572 31.8369 49.9985C32.434 49.871 32.9752 49.5726 33.4377 49.1646C33.9027 48.7591 34.2889 48.2567 34.6243 47.7211C34.9597 47.1856 35.2494 46.6168 35.506 46.0303C35.7551 45.4412 35.9736 44.8342 36.1642 44.217C36.5428 42.9827 36.8375 41.7177 37.0586 40.4375C37.4931 37.8744 37.704 35.2655 37.7675 32.6514C37.8031 31.3457 37.8005 30.0348 37.7599 28.7265C37.7472 28.0736 37.7167 27.4157 37.6913 26.7653C37.6455 26.1227 37.61 25.4825 37.5287 24.845C37.2542 22.287 36.6241 19.7724 35.7271 17.3598C34.8225 14.9447 33.613 12.6443 32.1697 10.497C31.4456 9.42326 30.6401 8.40824 29.7863 7.43403C28.9325 6.45982 27.9949 5.56211 26.9912 4.75622C26.4856 4.35837 25.9621 3.98348 25.4082 3.66979C24.8543 3.35865 24.2749 3.10362 23.6702 3.03477C23.0578 2.96591 22.4175 3.08832 21.8127 3.30765C21.2004 3.52442 20.621 3.84576 20.0874 4.23851Z" fill="white"/>
<path d="M21.0529 3.54484C20.8242 3.31021 20.5676 3.10874 20.3008 2.92512C20.0289 2.74915 19.7494 2.58848 19.4547 2.46096C18.8702 2.19573 18.2502 2.03251 17.6201 1.94836C17.3024 1.9254 16.9874 1.88715 16.6672 1.90755C16.3496 1.89735 16.032 1.9407 15.7169 1.97641C15.5568 1.98661 15.4018 2.02741 15.2468 2.05802L14.7767 2.14983C14.4667 2.23144 14.1618 2.3258 13.8518 2.41251L13.8112 2.03251C14.2406 2.09627 14.6446 2.19828 15.0511 2.3207C15.4552 2.44566 15.849 2.60633 16.2251 2.80781C16.5961 3.01438 16.9594 3.24901 17.244 3.57289C17.5311 3.88913 17.7497 4.26913 17.8259 4.68227C17.6811 4.28698 17.4397 3.95289 17.1347 3.68511C16.8324 3.41733 16.4741 3.2184 16.1057 3.05263C15.7372 2.88431 15.351 2.75425 14.9571 2.65224C14.5658 2.54768 14.1618 2.46607 13.768 2.41761L12.8303 2.3054L13.7273 2.04272C14.0449 1.94836 14.3625 1.84634 14.6827 1.75708C15.0105 1.69588 15.3332 1.60917 15.6686 1.57856C16.3318 1.49185 17.0077 1.4995 17.6734 1.59896C18.3341 1.71628 18.9795 1.92795 19.5614 2.25439C20.1382 2.58338 20.6692 3.00928 21.0529 3.54484Z" fill="white"/>
<path d="M17.3175 3.71569C16.8576 3.58052 16.3799 3.51422 15.9022 3.49891C15.4245 3.48616 14.9443 3.53717 14.4843 3.66213C14.0219 3.77945 13.5848 3.98857 13.2037 4.2691C12.8073 4.53433 12.5049 4.90923 12.2203 5.28412L12.1543 5.17191C12.8632 5.0801 13.5772 5.03164 14.2963 5.04184C14.6546 5.04439 15.0154 5.07245 15.3762 5.126C15.7345 5.18466 16.1029 5.26627 16.4358 5.49325L16.6442 5.63606L16.4028 5.74573C15.6506 6.08747 14.9239 6.53122 14.2887 7.05658C13.6611 7.58194 13.1097 8.23737 12.9191 8.98715C12.8225 9.3595 12.8454 9.74714 12.9775 10.1016C13.1021 10.4561 13.318 10.7774 13.5671 11.0733C13.623 11.1523 13.6865 11.2263 13.7551 11.2952C13.7881 11.3309 13.8211 11.3666 13.8542 11.4048L13.9787 11.5553C14.121 11.744 14.1743 12.0067 14.0956 12.2439C14.0651 12.3586 13.966 12.4887 13.9533 12.504L13.8593 12.629C13.6153 12.963 13.3739 13.3022 13.1554 13.6465C12.9369 13.9883 12.7234 14.3453 12.6142 14.6845L12.5837 14.8018L12.571 14.9013C12.5735 14.9115 12.5735 14.9217 12.5735 14.9319C12.5735 14.9421 12.5684 14.9523 12.5786 14.9778C12.5939 15.0211 12.604 15.0645 12.6218 15.1104C12.6853 15.2915 12.7743 15.4751 12.8683 15.6562C13.0563 16.0183 13.285 16.3702 13.5366 16.6967C13.6611 16.8599 13.7983 17.0155 13.9431 17.143C13.9787 17.1761 14.0143 17.2042 14.0473 17.2246C14.0549 17.2297 14.0676 17.2399 14.0702 17.2399C14.0727 17.2399 14.0702 17.2424 14.0854 17.245C14.1057 17.2526 14.1286 17.2603 14.1515 17.2654C14.248 17.2935 14.3471 17.3164 14.4488 17.3368C14.8553 17.4184 15.272 17.4643 15.6862 17.4618C16.0979 17.4567 16.5146 17.4159 16.8805 17.2705C17.2464 17.1328 17.5488 16.865 17.6174 16.4825C17.6961 16.105 17.6275 15.6868 17.5488 15.2634C17.78 15.6256 17.9324 16.0642 17.8715 16.5309C17.841 16.763 17.7317 16.9925 17.5691 17.1685C17.4039 17.3445 17.1981 17.4669 16.9872 17.5485C16.5603 17.7117 16.1182 17.7474 15.6837 17.75C15.2492 17.7474 14.8198 17.7066 14.3929 17.6428C14.2861 17.625 14.1794 17.6071 14.0702 17.5842C14.0422 17.5791 14.0143 17.5714 13.9838 17.5638C13.9736 17.5612 13.9457 17.551 13.9253 17.5434C13.9025 17.5332 13.8948 17.5281 13.8796 17.5179C13.8211 17.4873 13.7703 17.4516 13.7271 17.4159C13.5416 17.273 13.3917 17.1149 13.2393 16.9568C12.942 16.6355 12.6701 16.2963 12.4211 15.9316C12.2966 15.748 12.1797 15.5592 12.0755 15.3476C12.0501 15.2966 12.0272 15.2379 12.0018 15.1844C11.9764 15.1333 11.9561 15.0262 11.9434 14.9497C11.9408 14.8758 11.9383 14.8018 11.9434 14.7304L11.9713 14.534C12.0806 14.0495 12.2737 13.6491 12.4795 13.2563C12.6904 12.8687 12.9216 12.4989 13.1707 12.1419C13.224 12.0679 13.3307 11.9072 13.2774 11.9914C13.2647 12.0271 13.2774 12.0577 13.2901 12.0755C13.2901 12.0755 13.2952 12.0832 13.2926 12.0781L13.2647 12.0398L13.2088 11.9735L13.1021 11.8409C13.0309 11.7517 12.9598 11.6598 12.8988 11.5604C12.3779 10.8055 12.1492 9.75479 12.4312 8.85709C12.5634 8.40824 12.8022 8.00784 13.0843 7.66355C13.3663 7.31671 13.6916 7.01577 14.0371 6.75054C14.7334 6.22263 15.4855 5.80438 16.291 5.47794L16.2579 5.73042C16.0089 5.53915 15.6659 5.43969 15.3305 5.37338C14.99 5.30707 14.6393 5.27137 14.2887 5.25607C13.5848 5.22547 12.8734 5.24842 12.1721 5.31728L12.0018 5.33258L12.1035 5.20506C12.4084 4.82507 12.7336 4.45273 13.1478 4.1926C13.5493 3.91971 13.9965 3.71314 14.4666 3.60603C14.9341 3.49126 15.4194 3.45046 15.8997 3.47086C16.3799 3.49381 16.8602 3.57032 17.3175 3.71569Z" fill="white"/>
<path d="M17.7395 16.3755C18.4992 16.4392 19.2361 16.6841 19.9501 16.9518C20.6641 17.2324 21.3553 17.5665 22.0236 17.949C23.3576 18.7141 24.6052 19.6756 25.6114 20.8997C26.1094 21.5143 26.5439 22.1978 26.8438 22.9552C27.1462 23.7101 27.3139 24.5313 27.3113 25.3602C27.324 25.5667 27.291 25.7733 27.2808 25.9799C27.2783 26.0793 27.2529 26.1941 27.2325 26.3063C27.2097 26.4185 27.1919 26.5308 27.1487 26.6404C27.0191 27.0842 26.7548 27.4999 26.4296 27.8212C25.7689 28.4766 24.933 28.7852 24.1402 28.9714C22.5317 29.331 20.9411 29.2494 19.3911 29.0555C17.8411 28.849 16.3191 28.5021 14.8301 28.0125C14.4591 27.8875 14.0881 27.76 13.7222 27.6121C13.5392 27.5407 13.3563 27.4616 13.1733 27.3826C12.9853 27.2984 12.8329 27.2423 12.6626 27.1709L12.162 26.9669C11.9918 26.9082 11.8215 26.8572 11.6513 26.8011C11.4811 26.7501 11.3134 26.6838 11.138 26.6455L10.6197 26.5231C10.5333 26.5027 10.4469 26.4797 10.3605 26.4644L10.0988 26.4262L9.57535 26.3471L9.04937 26.3114L8.78765 26.2936L8.52592 26.2987L8.00247 26.3114L7.48667 26.3701C7.31388 26.3803 7.14618 26.4236 6.97593 26.4568C6.80823 26.4925 6.63544 26.518 6.47536 26.5741C5.15659 26.9209 3.95471 27.6962 3.24832 28.7878C3.16955 28.9306 3.08316 29.0606 3.00693 29.2111C2.9307 29.3667 2.85701 29.5248 2.79095 29.688C2.65374 30.0119 2.53431 30.3485 2.43267 30.6903C2.22177 31.3763 2.07948 32.0904 1.96513 32.8147C1.52554 35.722 1.71103 38.7492 2.15825 41.705C2.39202 43.1842 2.72488 44.6506 3.14923 46.0864C3.57357 47.5222 4.10209 48.93 4.8034 50.2409C5.15151 50.8963 5.5479 51.5262 6.01798 52.0873C6.48552 52.6483 7.042 53.1406 7.69249 53.4287C8.02027 53.569 8.36584 53.6506 8.7292 53.6506C9.07223 53.6481 9.44067 53.5614 9.75067 53.3854C10.0657 53.2145 10.33 52.9442 10.4926 52.6101C10.6578 52.276 10.7289 51.8986 10.7569 51.5186C10.7645 51.8986 10.7366 52.2888 10.5968 52.656C10.4596 53.0232 10.2029 53.3522 9.8701 53.5792C9.53723 53.8087 9.14846 53.9362 8.73682 53.9771C8.34043 54.0128 7.92371 53.9541 7.54257 53.824C6.77011 53.5639 6.1247 53.0487 5.58094 52.4851C5.03209 51.9164 4.56963 51.2788 4.15799 50.6183C3.34234 49.2871 2.72234 47.8563 2.20144 46.3976C1.68308 44.9362 1.29686 43.4341 0.991934 41.9167C0.687018 40.3967 0.478658 38.8563 0.399888 37.3032C0.318576 35.7501 0.336363 34.1816 0.542182 32.6107C0.64128 31.8252 0.801361 31.0422 1.02751 30.2695C1.13932 29.8818 1.27145 29.4993 1.42899 29.1193C1.50522 28.928 1.59161 28.7419 1.678 28.5557C1.77202 28.367 1.8889 28.1757 1.99562 27.987C2.46316 27.2474 3.09078 26.6302 3.79209 26.1508C4.49593 25.6739 5.26839 25.3092 6.07643 25.1C6.27462 25.0337 6.48044 25.0031 6.68372 24.9623C6.887 24.9241 7.09027 24.8756 7.29609 24.8629L7.91101 24.7991L8.52592 24.7889L8.83337 24.7863L9.1383 24.8093L9.74813 24.8552L10.3503 24.9496L10.6476 24.9955C10.7467 25.0133 10.8433 25.0414 10.9424 25.0643L11.5293 25.2071C11.725 25.2531 11.913 25.327 12.1061 25.3857C12.2967 25.4494 12.4898 25.5081 12.6779 25.5769L13.2318 25.8065C13.4097 25.883 13.6129 25.962 13.7705 26.0334C13.9356 26.1074 14.1008 26.1814 14.271 26.2477C14.609 26.3854 14.9495 26.518 15.2976 26.643C16.6824 27.1352 18.1282 27.5024 19.5817 27.7294C20.3084 27.8416 21.0402 27.913 21.7644 27.9385C22.4886 27.9615 23.2127 27.9385 23.8963 27.8059C24.5772 27.6784 25.2277 27.4387 25.6673 27.0281C25.8909 26.8266 26.0586 26.5843 26.1526 26.3012C26.1857 26.2349 26.1984 26.1584 26.2162 26.0844C26.2339 26.0105 26.2568 25.9391 26.2644 25.8498C26.2797 25.6764 26.3203 25.5055 26.3178 25.3321C26.3559 24.6384 26.2543 23.9345 26.0281 23.2613C25.8045 22.5854 25.4437 21.9504 25.0219 21.3562C24.1758 20.1601 23.0349 19.1578 21.7999 18.3086C21.1825 17.8801 20.532 17.5001 19.8561 17.1635C19.1853 16.8294 18.4865 16.5157 17.7395 16.3755Z" fill="white"/>
<path d="M8.82837 36.0509C10.259 36.8032 11.7505 37.4255 13.2598 37.9891C14.7692 38.5553 16.3014 39.0501 17.8514 39.4632C19.4014 39.8763 20.9742 40.2079 22.5547 40.4221C24.1352 40.6338 25.7284 40.7333 27.2987 40.6414C28.8665 40.5573 30.4216 40.2818 31.8394 39.7029C33.2548 39.1291 34.51 38.234 35.4375 37.0583C36.3725 35.8877 36.9671 34.4646 37.3152 32.9778C37.6761 31.4884 37.7828 29.9251 37.7675 28.3618H39.5005C39.4649 30.0348 39.3048 31.7256 38.8525 33.3756C38.4002 35.018 37.6532 36.6324 36.5098 37.9534C35.3765 39.2821 33.8697 40.2589 32.2689 40.8327C30.6655 41.4142 28.9834 41.6361 27.3318 41.6565C25.675 41.6692 24.0387 41.483 22.4302 41.1847C20.8243 40.8863 19.2464 40.468 17.6989 39.9733C14.6142 38.9735 11.6108 37.706 8.82837 36.0509Z" fill="white"/>
<path d="M7.71781 25.8672C8.9331 25.8672 9.91829 25.0349 9.91829 24.0081C9.91829 22.9813 8.9331 22.1489 7.71781 22.1489C6.50252 22.1489 5.51733 22.9813 5.51733 24.0081C5.51733 25.0349 6.50252 25.8672 7.71781 25.8672Z" fill="#121212"/>
<path d="M15.9941 11.8142C16.3718 11.735 16.631 11.4449 16.573 11.1664C16.515 10.888 16.1617 10.7265 15.784 10.8058C15.4062 10.885 15.1471 11.1751 15.2051 11.4536C15.2631 11.732 15.6164 11.8935 15.9941 11.8142Z" fill="white"/>
</g>
<defs>
<clipPath id="clip0">
<rect width="205" height="54" fill="white"/>
</clipPath>
</defs>
</svg>
