<svg width="40" height="40" viewBox="0 0 40 40" fill="none" xmlns="http://www.w3.org/2000/svg">
<path d="M33.6584 31.3024H6.34196C5.45406 31.3014 4.60283 30.9482 3.97501 30.3204C3.3472 29.6925 2.9941 28.8412 2.99316 27.9533V11.0829C2.9941 10.195 3.3472 9.34374 3.97501 8.71587C4.60283 8.088 5.45406 7.73481 6.34196 7.7338H33.6584C34.5463 7.73481 35.3976 8.088 36.0254 8.71587C36.6532 9.34374 37.0063 10.195 37.0072 11.0829V27.9533C37.0063 28.8412 36.6532 29.6925 36.0254 30.3204C35.3976 30.9482 34.5463 31.3014 33.6584 31.3024ZM6.34196 9.0138C5.79341 9.01439 5.2675 9.23259 4.87964 9.6205C4.49179 10.0084 4.27367 10.5344 4.27316 11.0829V27.9533C4.27367 28.5019 4.49179 29.0278 4.87964 29.4157C5.2675 29.8036 5.79341 30.0218 6.34196 30.0224H33.6584C34.207 30.0218 34.7329 29.8036 35.1208 29.4157C35.5086 29.0278 35.7267 28.5019 35.7272 27.9533V11.0829C35.7267 10.5344 35.5086 10.0084 35.1208 9.6205C34.7329 9.23259 34.207 9.01439 33.6584 9.0138H6.34196Z" fill="black"/>
<path d="M20 23.2845C19.844 23.2846 19.6933 23.2277 19.5763 23.1245L4.15234 9.50913L4.99938 8.54913L20 21.792L35.0013 8.55073L35.8483 9.51073L20.4243 23.1261C20.307 23.229 20.1561 23.2854 20 23.2845Z" fill="black"/>
<path d="M3.80371 29.2926L14.1654 17.4866L15.128 18.3314L4.76627 30.1374L3.80371 29.2926Z" fill="black"/>
<path d="M24.9043 18.3189L25.8669 17.4741L36.2287 29.2804L35.2662 30.1252L24.9043 18.3189Z" fill="black"/>
</svg>
