<svg width="80" height="80" viewBox="0 0 80 80" fill="none" xmlns="http://www.w3.org/2000/svg">
<path d="M76 37.3333H66.6667V33.3333C66.6597 31.6443 65.5925 30.1417 64 29.5787V4C64 1.79086 62.2091 0 60 0H4C1.79086 0 0 1.79086 0 4V46.6667C0 48.8758 1.79086 50.6667 4 50.6667H18.5747C18.3853 52.1867 17.8747 54.0773 16.8573 54.7147C14.7547 54.9589 13.2089 56.8028 13.3354 58.9157C13.4618 61.0287 15.2166 62.675 17.3333 62.6667H24V76C24 78.2091 25.7909 80 28 80H76C78.2091 80 80 78.2091 80 76V41.3333C80 39.1242 78.2091 37.3333 76 37.3333ZM62.6667 32C63.403 32 64 32.597 64 33.3333V34.6667H61.3333V33.3333C61.3333 32.597 61.9303 32 62.6667 32ZM61.3333 37.3333H64V57.0187L62.6667 59.6853L61.3333 57.0187V37.3333ZM58.8 57.9293L61.4667 63.2627C61.6922 63.7152 62.1544 64.0013 62.66 64.0013C63.1656 64.0013 63.6278 63.7152 63.8533 63.2627L66.52 57.9293C66.6146 57.7448 66.6648 57.5407 66.6667 57.3333V45.3333H72V72H40V45.3333H58.6667V57.3333C58.6665 57.5402 58.7144 57.7442 58.8067 57.9293H58.8ZM4 2.66667H60C60.7364 2.66667 61.3333 3.26362 61.3333 4V29.5787C59.7409 30.1417 58.6737 31.6443 58.6667 33.3333V37.3333H28C26.311 37.3403 24.8083 38.4075 24.2453 40H2.66667V4C2.66667 3.26362 3.26362 2.66667 4 2.66667ZM2.66667 46.6667V42.6667H24V48H4C3.26362 48 2.66667 47.403 2.66667 46.6667ZM24 50.6667V54.6667H20.228C20.7924 53.4002 21.1407 52.0482 21.2587 50.6667H24ZM17.3333 60C16.597 60 16 59.403 16 58.6667C16 57.9303 16.597 57.3333 17.3333 57.3333H24V60H17.3333ZM77.3333 76C77.3333 76.7364 76.7364 77.3333 76 77.3333H28C27.2636 77.3333 26.6667 76.7364 26.6667 76V41.3333C26.6667 40.597 27.2636 40 28 40H58.6667V42.6667H40C38.5272 42.6667 37.3333 43.8606 37.3333 45.3333V72C37.3333 73.4728 38.5272 74.6667 40 74.6667H72C73.4728 74.6667 74.6667 73.4728 74.6667 72V45.3333C74.6667 43.8606 73.4728 42.6667 72 42.6667H66.6667V40H76C76.7364 40 77.3333 40.597 77.3333 41.3333V76Z" fill="black"/>
<path d="M32.0001 45.3333C31.2637 45.3333 30.6667 45.9302 30.6667 46.6666V47.9999C30.6667 48.7363 31.2637 49.3332 32.0001 49.3332C32.7365 49.3332 33.3334 48.7363 33.3334 47.9999V46.6666C33.3334 45.9302 32.7365 45.3333 32.0001 45.3333Z" fill="black"/>
<path d="M32.0001 68C31.2637 68 30.6667 68.597 30.6667 69.3333V70.6667C30.6667 71.403 31.2637 72 32.0001 72C32.7365 72 33.3334 71.403 33.3334 70.6667V69.3333C33.3334 68.597 32.7365 68 32.0001 68Z" fill="black"/>
<path d="M7.99992 37.3333H21.3333C22.0696 37.3333 22.6666 36.7363 22.6666 35.9999C22.6666 35.2635 22.0696 34.6666 21.3333 34.6666H7.99992V7.99992H55.9999V26.6666C55.9999 27.403 56.5969 27.9999 57.3333 27.9999C58.0696 27.9999 58.6666 27.403 58.6666 26.6666V7.99992C58.6666 6.52716 57.4727 5.33325 55.9999 5.33325H7.99992C6.52716 5.33325 5.33325 6.52716 5.33325 7.99992V34.6666C5.33325 36.1393 6.52716 37.3333 7.99992 37.3333Z" fill="black"/>
<path d="M42.3892 15.1867C42.1273 14.8746 41.7407 14.6943 41.3332 14.6943C40.9258 14.6943 40.5392 14.8746 40.2772 15.1867L32.3066 25.5467L26.3892 17.8533C26.1369 17.5256 25.7468 17.3335 25.3332 17.3333C24.9215 17.3331 24.5327 17.523 24.2799 17.848L14.9466 29.848C14.4944 30.4297 14.5995 31.2679 15.1812 31.72C15.763 32.1721 16.6011 32.0671 17.0532 31.4853L25.3332 20.8453L30.6252 27.7333L26.9439 32.52C26.5171 33.104 26.6338 33.9217 27.2068 34.363C27.7798 34.8044 28.6002 34.7084 29.0559 34.1467L41.3332 18.1867L53.6106 34.1467C54.0662 34.7084 54.8866 34.8044 55.4596 34.363C56.0327 33.9217 56.1493 33.104 55.7226 32.52L42.3892 15.1867Z" fill="black"/>
<path d="M18.6666 14.6666C18.6666 13.0488 17.692 11.5902 16.1974 10.9711C14.7027 10.352 12.9822 10.6942 11.8382 11.8382C10.6942 12.9822 10.352 14.7027 10.9711 16.1974C11.5902 17.692 13.0488 18.6666 14.6666 18.6666C16.8758 18.6666 18.6666 16.8758 18.6666 14.6666ZM14.6666 16C13.9302 16 13.3333 15.403 13.3333 14.6666C13.3333 13.9302 13.9302 13.3333 14.6666 13.3333C15.403 13.3333 16 13.9302 16 14.6666C16 15.403 15.403 16 14.6666 16Z" fill="black"/>
</svg>
