<svg width="48" height="48" viewBox="0 0 48 48" fill="none" xmlns="http://www.w3.org/2000/svg">
<path d="M31.6331 14H0V48H31.6331V14Z" fill="#45ABF4"/>
<path d="M19.8497 0.539865C19.8497 0.839067 19.6118 1.07973 19.316 1.07973C19.0202 1.07973 18.7822 0.839067 18.7822 0.539865C18.7822 0.240663 19.0202 0 19.316 0C19.6086 0 19.8497 0.243915 19.8497 0.539865Z" fill="#121212"/>
<path d="M22.4444 1.07973C22.7392 1.07973 22.9781 0.838024 22.9781 0.539865C22.9781 0.241706 22.7392 0 22.4444 0C22.1496 0 21.9106 0.241706 21.9106 0.539865C21.9106 0.838024 22.1496 1.07973 22.4444 1.07973Z" fill="#121212"/>
<path d="M25.5696 1.07973C25.8644 1.07973 26.1034 0.838024 26.1034 0.539865C26.1034 0.241706 25.8644 0 25.5696 0C25.2749 0 25.0359 0.241706 25.0359 0.539865C25.0359 0.838024 25.2749 1.07973 25.5696 1.07973Z" fill="#121212"/>
<path d="M29.232 0.539865C29.232 0.839067 28.9941 1.07973 28.6983 1.07973C28.4025 1.07973 28.1646 0.839067 28.1646 0.539865C28.1646 0.240663 28.4025 0 28.6983 0C28.9941 0 29.232 0.243915 29.232 0.539865Z" fill="#121212"/>
<path d="M31.8267 1.07973C32.1215 1.07973 32.3605 0.838024 32.3605 0.539865C32.3605 0.241706 32.1215 0 31.8267 0C31.5319 0 31.293 0.241706 31.293 0.539865C31.293 0.838024 31.5319 1.07973 31.8267 1.07973Z" fill="#121212"/>
<path d="M34.9551 1.07973C35.2499 1.07973 35.4889 0.838024 35.4889 0.539865C35.4889 0.241706 35.2499 0 34.9551 0C34.6604 0 34.4214 0.241706 34.4214 0.539865C34.4214 0.838024 34.6604 1.07973 34.9551 1.07973Z" fill="#121212"/>
<path d="M38.6144 0.539865C38.6144 0.839067 38.3764 1.07973 38.0806 1.07973C37.7848 1.07973 37.5469 0.839067 37.5469 0.539865C37.5469 0.240663 37.7848 0 38.0806 0C38.3764 0 38.6144 0.243915 38.6144 0.539865Z" fill="#121212"/>
<path d="M41.7428 0.539865C41.7428 0.839067 41.5049 1.07973 41.209 1.07973C40.9132 1.07973 40.6753 0.839067 40.6753 0.539865C40.6753 0.240663 40.9132 0 41.209 0C41.5049 0 41.7428 0.243915 41.7428 0.539865Z" fill="#121212"/>
<path d="M44.3377 1.07973C44.6325 1.07973 44.8715 0.838024 44.8715 0.539865C44.8715 0.241706 44.6325 0 44.3377 0C44.0429 0 43.804 0.241706 43.804 0.539865C43.804 0.838024 44.0429 1.07973 44.3377 1.07973Z" fill="#121212"/>
<path d="M48.0001 0.539865C48.0001 0.839067 47.7622 1.07973 47.4664 1.07973C47.1706 1.07973 46.9326 0.839067 46.9326 0.539865C46.9326 0.240663 47.1706 0 47.4664 0C47.7622 0 48.0001 0.243915 48.0001 0.539865Z" fill="#121212"/>
<path d="M19.8497 3.72688C19.8497 4.02608 19.6118 4.26674 19.316 4.26674C19.0202 4.26349 18.7822 4.02283 18.7822 3.72688C18.7822 3.42767 19.0202 3.18701 19.316 3.18701C19.6086 3.18701 19.8497 3.42767 19.8497 3.72688Z" fill="#121212"/>
<path d="M22.4444 4.26674C22.7392 4.26674 22.9781 4.02503 22.9781 3.72688C22.9781 3.42872 22.7392 3.18701 22.4444 3.18701C22.1496 3.18701 21.9106 3.42872 21.9106 3.72688C21.9106 4.02503 22.1496 4.26674 22.4444 4.26674Z" fill="#121212"/>
<path d="M25.5696 4.26674C25.8644 4.26674 26.1034 4.02503 26.1034 3.72688C26.1034 3.42872 25.8644 3.18701 25.5696 3.18701C25.2749 3.18701 25.0359 3.42872 25.0359 3.72688C25.0359 4.02503 25.2749 4.26674 25.5696 4.26674Z" fill="#121212"/>
<path d="M29.232 3.72688C29.232 4.02608 28.9941 4.26674 28.6983 4.26674C28.4025 4.26674 28.1646 4.02608 28.1646 3.72688C28.1646 3.42767 28.4025 3.18701 28.6983 3.18701C28.9941 3.18701 29.232 3.42767 29.232 3.72688Z" fill="#121212"/>
<path d="M31.8267 4.26674C32.1215 4.26674 32.3605 4.02503 32.3605 3.72688C32.3605 3.42872 32.1215 3.18701 31.8267 3.18701C31.5319 3.18701 31.293 3.42872 31.293 3.72688C31.293 4.02503 31.5319 4.26674 31.8267 4.26674Z" fill="#121212"/>
<path d="M34.9551 4.26674C35.2499 4.26674 35.4889 4.02503 35.4889 3.72688C35.4889 3.42872 35.2499 3.18701 34.9551 3.18701C34.6604 3.18701 34.4214 3.42872 34.4214 3.72688C34.4214 4.02503 34.6604 4.26674 34.9551 4.26674Z" fill="#121212"/>
<path d="M38.6144 3.72688C38.6144 4.02608 38.3764 4.26674 38.0806 4.26674C37.7848 4.26674 37.5469 4.02608 37.5469 3.72688C37.5469 3.42767 37.7848 3.18701 38.0806 3.18701C38.3764 3.18701 38.6144 3.42767 38.6144 3.72688Z" fill="#121212"/>
<path d="M41.7428 3.72688C41.7428 4.02608 41.5049 4.26674 41.209 4.26674C40.9132 4.26674 40.6753 4.02608 40.6753 3.72688C40.6753 3.42767 40.9132 3.18701 41.209 3.18701C41.5049 3.18701 41.7428 3.42767 41.7428 3.72688Z" fill="#121212"/>
<path d="M44.3377 4.26674C44.6325 4.26674 44.8715 4.02503 44.8715 3.72688C44.8715 3.42872 44.6325 3.18701 44.3377 3.18701C44.0429 3.18701 43.804 3.42872 43.804 3.72688C43.804 4.02503 44.0429 4.26674 44.3377 4.26674Z" fill="#121212"/>
<path d="M48.0001 3.72688C48.0001 4.02608 47.7622 4.26674 47.4664 4.26674C47.1706 4.26674 46.9326 4.02608 46.9326 3.72688C46.9326 3.42767 47.1706 3.18701 47.4664 3.18701C47.7622 3.18701 48.0001 3.42767 48.0001 3.72688Z" fill="#121212"/>
<path d="M19.8497 6.91071C19.8497 7.20992 19.6118 7.45058 19.316 7.45058C19.0202 7.45058 18.7822 7.20992 18.7822 6.91071C18.7822 6.61151 19.0202 6.37085 19.316 6.37085C19.6086 6.37085 19.8497 6.61476 19.8497 6.91071Z" fill="#121212"/>
<path d="M22.4444 7.45058C22.7392 7.45058 22.9781 7.20887 22.9781 6.91071C22.9781 6.61256 22.7392 6.37085 22.4444 6.37085C22.1496 6.37085 21.9106 6.61256 21.9106 6.91071C21.9106 7.20887 22.1496 7.45058 22.4444 7.45058Z" fill="#121212"/>
<path d="M25.5696 7.45058C25.8644 7.45058 26.1034 7.20887 26.1034 6.91071C26.1034 6.61256 25.8644 6.37085 25.5696 6.37085C25.2749 6.37085 25.0359 6.61256 25.0359 6.91071C25.0359 7.20887 25.2749 7.45058 25.5696 7.45058Z" fill="#121212"/>
<path d="M29.232 6.91071C29.232 7.20992 28.9941 7.45058 28.6983 7.45058C28.4025 7.45058 28.1646 7.20992 28.1646 6.91071C28.1646 6.61151 28.4025 6.37085 28.6983 6.37085C28.9941 6.37085 29.232 6.61476 29.232 6.91071Z" fill="#121212"/>
<path d="M31.8267 7.45058C32.1215 7.45058 32.3605 7.20887 32.3605 6.91071C32.3605 6.61256 32.1215 6.37085 31.8267 6.37085C31.5319 6.37085 31.293 6.61256 31.293 6.91071C31.293 7.20887 31.5319 7.45058 31.8267 7.45058Z" fill="#121212"/>
<path d="M34.9551 7.45058C35.2499 7.45058 35.4889 7.20887 35.4889 6.91071C35.4889 6.61256 35.2499 6.37085 34.9551 6.37085C34.6604 6.37085 34.4214 6.61256 34.4214 6.91071C34.4214 7.20887 34.6604 7.45058 34.9551 7.45058Z" fill="#121212"/>
<path d="M38.6144 6.91071C38.6144 7.20992 38.3764 7.45058 38.0806 7.45058C37.7848 7.45058 37.5469 7.20992 37.5469 6.91071C37.5469 6.61151 37.7848 6.37085 38.0806 6.37085C38.3764 6.37085 38.6144 6.61476 38.6144 6.91071Z" fill="#121212"/>
<path d="M41.7428 6.91071C41.7428 7.20992 41.5049 7.45058 41.209 7.45058C40.9132 7.45058 40.6753 7.20992 40.6753 6.91071C40.6753 6.61151 40.9132 6.37085 41.209 6.37085C41.5049 6.37085 41.7428 6.61476 41.7428 6.91071Z" fill="#121212"/>
<path d="M44.3377 7.45058C44.6325 7.45058 44.8715 7.20887 44.8715 6.91071C44.8715 6.61256 44.6325 6.37085 44.3377 6.37085C44.0429 6.37085 43.804 6.61256 43.804 6.91071C43.804 7.20887 44.0429 7.45058 44.3377 7.45058Z" fill="#121212"/>
<path d="M48.0001 6.91071C48.0001 7.20992 47.7622 7.45058 47.4664 7.45058C47.1706 7.45058 46.9326 7.20992 46.9326 6.91071C46.9326 6.61151 47.1706 6.37085 47.4664 6.37085C47.7622 6.37085 48.0001 6.61476 48.0001 6.91071Z" fill="#121212"/>
<path d="M19.8497 10.0977C19.8497 10.3969 19.6118 10.6376 19.316 10.6376C19.0202 10.6376 18.7822 10.3937 18.7822 10.0977C18.7822 9.79852 19.0202 9.55786 19.316 9.55786C19.6086 9.55786 19.8497 9.79852 19.8497 10.0977Z" fill="#121212"/>
<path d="M22.4444 10.6378C22.7392 10.6378 22.9781 10.3961 22.9781 10.098C22.9781 9.79981 22.7392 9.55811 22.4444 9.55811C22.1496 9.55811 21.9106 9.79981 21.9106 10.098C21.9106 10.3961 22.1496 10.6378 22.4444 10.6378Z" fill="#121212"/>
<path d="M25.5696 10.6378C25.8644 10.6378 26.1034 10.3961 26.1034 10.098C26.1034 9.79981 25.8644 9.55811 25.5696 9.55811C25.2749 9.55811 25.0359 9.79981 25.0359 10.098C25.0359 10.3961 25.2749 10.6378 25.5696 10.6378Z" fill="#121212"/>
<path d="M29.232 10.098C29.232 10.3972 28.9941 10.6378 28.6983 10.6378C28.4025 10.6378 28.1646 10.3972 28.1646 10.098C28.1646 9.79877 28.4025 9.55811 28.6983 9.55811C28.9941 9.55811 29.232 9.79877 29.232 10.098Z" fill="#121212"/>
<path d="M31.8267 10.6378C32.1215 10.6378 32.3605 10.3961 32.3605 10.098C32.3605 9.79981 32.1215 9.55811 31.8267 9.55811C31.5319 9.55811 31.293 9.79981 31.293 10.098C31.293 10.3961 31.5319 10.6378 31.8267 10.6378Z" fill="#121212"/>
<path d="M34.9551 10.6378C35.2499 10.6378 35.4889 10.3961 35.4889 10.098C35.4889 9.79981 35.2499 9.55811 34.9551 9.55811C34.6604 9.55811 34.4214 9.79981 34.4214 10.098C34.4214 10.3961 34.6604 10.6378 34.9551 10.6378Z" fill="#121212"/>
<path d="M38.6144 10.098C38.6144 10.3972 38.3764 10.6378 38.0806 10.6378C37.7848 10.6378 37.5469 10.3972 37.5469 10.098C37.5469 9.79877 37.7848 9.55811 38.0806 9.55811C38.3764 9.55811 38.6144 9.79877 38.6144 10.098Z" fill="#121212"/>
<path d="M41.7428 10.098C41.7428 10.3972 41.5049 10.6378 41.209 10.6378C40.9132 10.6378 40.6753 10.3972 40.6753 10.098C40.6753 9.79877 40.9132 9.55811 41.209 9.55811C41.5049 9.55811 41.7428 9.79877 41.7428 10.098Z" fill="#121212"/>
<path d="M44.3377 10.6378C44.6325 10.6378 44.8715 10.3961 44.8715 10.098C44.8715 9.79981 44.6325 9.55811 44.3377 9.55811C44.0429 9.55811 43.804 9.79981 43.804 10.098C43.804 10.3961 44.0429 10.6378 44.3377 10.6378Z" fill="#121212"/>
<path d="M48.0001 10.098C48.0001 10.3972 47.7622 10.6378 47.4664 10.6378C47.1706 10.6378 46.9326 10.3972 46.9326 10.098C46.9326 9.79877 47.1706 9.55811 47.4664 9.55811C47.7622 9.55811 48.0001 9.79877 48.0001 10.098Z" fill="#121212"/>
<path d="M19.8497 13.2818C19.8497 13.581 19.6118 13.8217 19.316 13.8217C19.0202 13.8217 18.7822 13.581 18.7822 13.2818C18.7822 12.9826 19.0202 12.7419 19.316 12.7419C19.6086 12.7452 19.8497 12.9859 19.8497 13.2818Z" fill="#121212"/>
<path d="M22.4444 13.8214C22.7392 13.8214 22.9781 13.5797 22.9781 13.2816C22.9781 12.9834 22.7392 12.7417 22.4444 12.7417C22.1496 12.7417 21.9106 12.9834 21.9106 13.2816C21.9106 13.5797 22.1496 13.8214 22.4444 13.8214Z" fill="#121212"/>
<path d="M25.5696 13.8214C25.8644 13.8214 26.1034 13.5797 26.1034 13.2816C26.1034 12.9834 25.8644 12.7417 25.5696 12.7417C25.2749 12.7417 25.0359 12.9834 25.0359 13.2816C25.0359 13.5797 25.2749 13.8214 25.5696 13.8214Z" fill="#121212"/>
<path d="M29.232 13.2816C29.232 13.5808 28.9941 13.8214 28.6983 13.8214C28.4025 13.8214 28.1646 13.5808 28.1646 13.2816C28.1646 12.9824 28.4025 12.7417 28.6983 12.7417C28.9941 12.745 29.232 12.9856 29.232 13.2816Z" fill="#121212"/>
<path d="M31.8267 13.8214C32.1215 13.8214 32.3605 13.5797 32.3605 13.2816C32.3605 12.9834 32.1215 12.7417 31.8267 12.7417C31.5319 12.7417 31.293 12.9834 31.293 13.2816C31.293 13.5797 31.5319 13.8214 31.8267 13.8214Z" fill="#121212"/>
<path d="M34.9551 13.8214C35.2499 13.8214 35.4889 13.5797 35.4889 13.2816C35.4889 12.9834 35.2499 12.7417 34.9551 12.7417C34.6604 12.7417 34.4214 12.9834 34.4214 13.2816C34.4214 13.5797 34.6604 13.8214 34.9551 13.8214Z" fill="#121212"/>
<path d="M38.6144 13.2816C38.6144 13.5808 38.3764 13.8214 38.0806 13.8214C37.7848 13.8214 37.5469 13.5808 37.5469 13.2816C37.5469 12.9824 37.7848 12.7417 38.0806 12.7417C38.3764 12.745 38.6144 12.9856 38.6144 13.2816Z" fill="#121212"/>
<path d="M41.7428 13.2816C41.7428 13.5808 41.5049 13.8214 41.209 13.8214C40.9132 13.8214 40.6753 13.5808 40.6753 13.2816C40.6753 12.9824 40.9132 12.7417 41.209 12.7417C41.5049 12.745 41.7428 12.9856 41.7428 13.2816Z" fill="#121212"/>
<path d="M44.3377 13.8214C44.6325 13.8214 44.8715 13.5797 44.8715 13.2816C44.8715 12.9834 44.6325 12.7417 44.3377 12.7417C44.0429 12.7417 43.804 12.9834 43.804 13.2816C43.804 13.5797 44.0429 13.8214 44.3377 13.8214Z" fill="#121212"/>
<path d="M48.0001 13.2816C48.0001 13.5808 47.7622 13.8214 47.4664 13.8214C47.1706 13.8214 46.9326 13.5808 46.9326 13.2816C46.9326 12.9824 47.1706 12.7417 47.4664 12.7417C47.7622 12.745 48.0001 12.9856 48.0001 13.2816Z" fill="#121212"/>
<path d="M19.8497 16.4693C19.8497 16.7685 19.6118 17.0092 19.316 17.0092C19.0202 17.0092 18.7822 16.7653 18.7822 16.4693C18.7822 16.1701 19.0202 15.9294 19.316 15.9294C19.6086 15.9294 19.8497 16.1701 19.8497 16.4693Z" fill="#121212"/>
<path d="M22.4444 17.0089C22.7392 17.0089 22.9781 16.7672 22.9781 16.4691C22.9781 16.1709 22.7392 15.9292 22.4444 15.9292C22.1496 15.9292 21.9106 16.1709 21.9106 16.4691C21.9106 16.7672 22.1496 17.0089 22.4444 17.0089Z" fill="#121212"/>
<path d="M25.5696 17.0089C25.8644 17.0089 26.1034 16.7672 26.1034 16.4691C26.1034 16.1709 25.8644 15.9292 25.5696 15.9292C25.2749 15.9292 25.0359 16.1709 25.0359 16.4691C25.0359 16.7672 25.2749 17.0089 25.5696 17.0089Z" fill="#121212"/>
<path d="M29.232 16.4691C29.232 16.7683 28.9941 17.0089 28.6983 17.0089C28.4025 17.0089 28.1646 16.7683 28.1646 16.4691C28.1646 16.1699 28.4025 15.9292 28.6983 15.9292C28.9941 15.9292 29.232 16.1699 29.232 16.4691Z" fill="#121212"/>
<path d="M31.8267 17.0089C32.1215 17.0089 32.3605 16.7672 32.3605 16.4691C32.3605 16.1709 32.1215 15.9292 31.8267 15.9292C31.5319 15.9292 31.293 16.1709 31.293 16.4691C31.293 16.7672 31.5319 17.0089 31.8267 17.0089Z" fill="#121212"/>
<path d="M34.9551 17.0089C35.2499 17.0089 35.4889 16.7672 35.4889 16.4691C35.4889 16.1709 35.2499 15.9292 34.9551 15.9292C34.6604 15.9292 34.4214 16.1709 34.4214 16.4691C34.4214 16.7672 34.6604 17.0089 34.9551 17.0089Z" fill="#121212"/>
<path d="M38.6144 16.4691C38.6144 16.7683 38.3764 17.0089 38.0806 17.0089C37.7848 17.0089 37.5469 16.7683 37.5469 16.4691C37.5469 16.1699 37.7848 15.9292 38.0806 15.9292C38.3764 15.9292 38.6144 16.1699 38.6144 16.4691Z" fill="#121212"/>
<path d="M41.7428 16.4691C41.7428 16.7683 41.5049 17.0089 41.209 17.0089C40.9132 17.0089 40.6753 16.7683 40.6753 16.4691C40.6753 16.1699 40.9132 15.9292 41.209 15.9292C41.5049 15.9292 41.7428 16.1699 41.7428 16.4691Z" fill="#121212"/>
<path d="M44.3377 17.0089C44.6325 17.0089 44.8715 16.7672 44.8715 16.4691C44.8715 16.1709 44.6325 15.9292 44.3377 15.9292C44.0429 15.9292 43.804 16.1709 43.804 16.4691C43.804 16.7672 44.0429 17.0089 44.3377 17.0089Z" fill="#121212"/>
<path d="M48.0001 16.4691C48.0001 16.7683 47.7622 17.0089 47.4664 17.0089C47.1706 17.0089 46.9326 16.7683 46.9326 16.4691C46.9326 16.1699 47.1706 15.9292 47.4664 15.9292C47.7622 15.9292 48.0001 16.1699 48.0001 16.4691Z" fill="#121212"/>
<path d="M19.8497 19.6529C19.8497 19.9521 19.6118 20.1928 19.316 20.1928C19.0202 20.1928 18.7822 19.9521 18.7822 19.6529C18.7822 19.3537 19.0202 19.113 19.316 19.113C19.6086 19.1163 19.8497 19.357 19.8497 19.6529Z" fill="#121212"/>
<path d="M22.4444 20.1928C22.7392 20.1928 22.9781 19.9511 22.9781 19.6529C22.9781 19.3547 22.7392 19.113 22.4444 19.113C22.1496 19.113 21.9106 19.3547 21.9106 19.6529C21.9106 19.9511 22.1496 20.1928 22.4444 20.1928Z" fill="#121212"/>
<path d="M25.5696 20.1928C25.8644 20.1928 26.1034 19.9511 26.1034 19.6529C26.1034 19.3547 25.8644 19.113 25.5696 19.113C25.2749 19.113 25.0359 19.3547 25.0359 19.6529C25.0359 19.9511 25.2749 20.1928 25.5696 20.1928Z" fill="#121212"/>
<path d="M29.232 19.6529C29.232 19.9521 28.9941 20.1928 28.6983 20.1928C28.4025 20.1928 28.1646 19.9521 28.1646 19.6529C28.1646 19.3537 28.4025 19.113 28.6983 19.113C28.9941 19.1163 29.232 19.357 29.232 19.6529Z" fill="#121212"/>
<path d="M31.8267 20.1928C32.1215 20.1928 32.3605 19.9511 32.3605 19.6529C32.3605 19.3547 32.1215 19.113 31.8267 19.113C31.5319 19.113 31.293 19.3547 31.293 19.6529C31.293 19.9511 31.5319 20.1928 31.8267 20.1928Z" fill="#121212"/>
<path d="M34.9551 20.1928C35.2499 20.1928 35.4889 19.9511 35.4889 19.6529C35.4889 19.3547 35.2499 19.113 34.9551 19.113C34.6604 19.113 34.4214 19.3547 34.4214 19.6529C34.4214 19.9511 34.6604 20.1928 34.9551 20.1928Z" fill="#121212"/>
<path d="M38.6144 19.6529C38.6144 19.9521 38.3764 20.1928 38.0806 20.1928C37.7848 20.1928 37.5469 19.9521 37.5469 19.6529C37.5469 19.3537 37.7848 19.113 38.0806 19.113C38.3764 19.1163 38.6144 19.357 38.6144 19.6529Z" fill="#121212"/>
<path d="M41.7428 19.6529C41.7428 19.9521 41.5049 20.1928 41.209 20.1928C40.9132 20.1928 40.6753 19.9521 40.6753 19.6529C40.6753 19.3537 40.9132 19.113 41.209 19.113C41.5049 19.1163 41.7428 19.357 41.7428 19.6529Z" fill="#121212"/>
<path d="M44.3377 20.1928C44.6325 20.1928 44.8715 19.9511 44.8715 19.6529C44.8715 19.3547 44.6325 19.113 44.3377 19.113C44.0429 19.113 43.804 19.3547 43.804 19.6529C43.804 19.9511 44.0429 20.1928 44.3377 20.1928Z" fill="#121212"/>
<path d="M48.0001 19.6529C48.0001 19.9521 47.7622 20.1928 47.4664 20.1928C47.1706 20.1928 46.9326 19.9521 46.9326 19.6529C46.9326 19.3537 47.1706 19.113 47.4664 19.113C47.7622 19.1163 48.0001 19.357 48.0001 19.6529Z" fill="#121212"/>
<path d="M19.8497 22.8402C19.8497 23.1394 19.6118 23.38 19.316 23.38C19.0202 23.38 18.7822 23.1394 18.7822 22.8402C18.7822 22.541 19.0202 22.3003 19.316 22.3003C19.6086 22.3003 19.8497 22.541 19.8497 22.8402Z" fill="#121212"/>
<path d="M22.4444 23.3798C22.7392 23.3798 22.9781 23.1381 22.9781 22.8399C22.9781 22.5418 22.7392 22.3 22.4444 22.3C22.1496 22.3 21.9106 22.5418 21.9106 22.8399C21.9106 23.1381 22.1496 23.3798 22.4444 23.3798Z" fill="#121212"/>
<path d="M25.5696 23.3798C25.8644 23.3798 26.1034 23.1381 26.1034 22.8399C26.1034 22.5418 25.8644 22.3 25.5696 22.3C25.2749 22.3 25.0359 22.5418 25.0359 22.8399C25.0359 23.1381 25.2749 23.3798 25.5696 23.3798Z" fill="#121212"/>
<path d="M29.232 22.8399C29.232 23.1391 28.9941 23.3798 28.6983 23.3798C28.4025 23.3798 28.1646 23.1391 28.1646 22.8399C28.1646 22.5407 28.4025 22.3 28.6983 22.3C28.9941 22.3 29.232 22.5407 29.232 22.8399Z" fill="#121212"/>
<path d="M31.8267 23.3798C32.1215 23.3798 32.3605 23.1381 32.3605 22.8399C32.3605 22.5418 32.1215 22.3 31.8267 22.3C31.5319 22.3 31.293 22.5418 31.293 22.8399C31.293 23.1381 31.5319 23.3798 31.8267 23.3798Z" fill="#121212"/>
<path d="M34.9551 23.3798C35.2499 23.3798 35.4889 23.1381 35.4889 22.8399C35.4889 22.5418 35.2499 22.3 34.9551 22.3C34.6604 22.3 34.4214 22.5418 34.4214 22.8399C34.4214 23.1381 34.6604 23.3798 34.9551 23.3798Z" fill="#121212"/>
<path d="M38.6144 22.8399C38.6144 23.1391 38.3764 23.3798 38.0806 23.3798C37.7848 23.3798 37.5469 23.1391 37.5469 22.8399C37.5469 22.5407 37.7848 22.3 38.0806 22.3C38.3764 22.3 38.6144 22.5407 38.6144 22.8399Z" fill="#121212"/>
<path d="M41.7428 22.8399C41.7428 23.1391 41.5049 23.3798 41.209 23.3798C40.9132 23.3798 40.6753 23.1391 40.6753 22.8399C40.6753 22.5407 40.9132 22.3 41.209 22.3C41.5049 22.3 41.7428 22.5407 41.7428 22.8399Z" fill="#121212"/>
<path d="M44.3377 23.3798C44.6325 23.3798 44.8715 23.1381 44.8715 22.8399C44.8715 22.5418 44.6325 22.3 44.3377 22.3C44.0429 22.3 43.804 22.5418 43.804 22.8399C43.804 23.1381 44.0429 23.3798 44.3377 23.3798Z" fill="#121212"/>
<path d="M48.0001 22.8399C48.0001 23.1391 47.7622 23.3798 47.4664 23.3798C47.1706 23.3798 46.9326 23.1391 46.9326 22.8399C46.9326 22.5407 47.1706 22.3 47.4664 22.3C47.7622 22.3 48.0001 22.5407 48.0001 22.8399Z" fill="#121212"/>
<path d="M19.8497 26.0272C19.8497 26.3264 19.6118 26.567 19.316 26.567C19.0202 26.567 18.7822 26.3264 18.7822 26.0272C18.7822 25.728 19.0202 25.4873 19.316 25.4873C19.6086 25.4873 19.8497 25.728 19.8497 26.0272Z" fill="#121212"/>
<path d="M22.4444 26.567C22.7392 26.567 22.9781 26.3253 22.9781 26.0272C22.9781 25.729 22.7392 25.4873 22.4444 25.4873C22.1496 25.4873 21.9106 25.729 21.9106 26.0272C21.9106 26.3253 22.1496 26.567 22.4444 26.567Z" fill="#121212"/>
<path d="M25.5696 26.567C25.8644 26.567 26.1034 26.3253 26.1034 26.0272C26.1034 25.729 25.8644 25.4873 25.5696 25.4873C25.2749 25.4873 25.0359 25.729 25.0359 26.0272C25.0359 26.3253 25.2749 26.567 25.5696 26.567Z" fill="#121212"/>
<path d="M29.232 26.0272C29.232 26.3264 28.9941 26.567 28.6983 26.567C28.4025 26.567 28.1646 26.3264 28.1646 26.0272C28.1646 25.728 28.4025 25.4873 28.6983 25.4873C28.9941 25.4873 29.232 25.728 29.232 26.0272Z" fill="#121212"/>
<path d="M31.8267 26.567C32.1215 26.567 32.3605 26.3253 32.3605 26.0272C32.3605 25.729 32.1215 25.4873 31.8267 25.4873C31.5319 25.4873 31.293 25.729 31.293 26.0272C31.293 26.3253 31.5319 26.567 31.8267 26.567Z" fill="#121212"/>
<path d="M34.9551 26.567C35.2499 26.567 35.4889 26.3253 35.4889 26.0272C35.4889 25.729 35.2499 25.4873 34.9551 25.4873C34.6604 25.4873 34.4214 25.729 34.4214 26.0272C34.4214 26.3253 34.6604 26.567 34.9551 26.567Z" fill="#121212"/>
<path d="M38.6144 26.0272C38.6144 26.3264 38.3764 26.567 38.0806 26.567C37.7848 26.567 37.5469 26.3264 37.5469 26.0272C37.5469 25.728 37.7848 25.4873 38.0806 25.4873C38.3764 25.4873 38.6144 25.728 38.6144 26.0272Z" fill="#121212"/>
<path d="M41.7428 26.0272C41.7428 26.3264 41.5049 26.567 41.209 26.567C40.9132 26.567 40.6753 26.3264 40.6753 26.0272C40.6753 25.728 40.9132 25.4873 41.209 25.4873C41.5049 25.4873 41.7428 25.728 41.7428 26.0272Z" fill="#121212"/>
<path d="M44.3377 26.567C44.6325 26.567 44.8715 26.3253 44.8715 26.0272C44.8715 25.729 44.6325 25.4873 44.3377 25.4873C44.0429 25.4873 43.804 25.729 43.804 26.0272C43.804 26.3253 44.0429 26.567 44.3377 26.567Z" fill="#121212"/>
<path d="M48.0001 26.0272C48.0001 26.3264 47.7622 26.567 47.4664 26.567C47.1706 26.567 46.9326 26.3264 46.9326 26.0272C46.9326 25.728 47.1706 25.4873 47.4664 25.4873C47.7622 25.4873 48.0001 25.728 48.0001 26.0272Z" fill="#121212"/>
<path d="M19.8497 29.2113C19.8497 29.5105 19.6118 29.7511 19.316 29.7511C19.0202 29.7511 18.7822 29.5105 18.7822 29.2113C18.7822 28.912 19.0202 28.6714 19.316 28.6714C19.6086 28.6714 19.8497 28.9153 19.8497 29.2113Z" fill="#121212"/>
<path d="M22.4444 29.7511C22.7392 29.7511 22.9781 29.5094 22.9781 29.2113C22.9781 28.9131 22.7392 28.6714 22.4444 28.6714C22.1496 28.6714 21.9106 28.9131 21.9106 29.2113C21.9106 29.5094 22.1496 29.7511 22.4444 29.7511Z" fill="#121212"/>
<path d="M25.5696 29.7511C25.8644 29.7511 26.1034 29.5094 26.1034 29.2113C26.1034 28.9131 25.8644 28.6714 25.5696 28.6714C25.2749 28.6714 25.0359 28.9131 25.0359 29.2113C25.0359 29.5094 25.2749 29.7511 25.5696 29.7511Z" fill="#121212"/>
<path d="M29.232 29.2113C29.232 29.5105 28.9941 29.7511 28.6983 29.7511C28.4025 29.7511 28.1646 29.5105 28.1646 29.2113C28.1646 28.912 28.4025 28.6714 28.6983 28.6714C28.9941 28.6714 29.232 28.9153 29.232 29.2113Z" fill="#121212"/>
<path d="M31.8267 29.7511C32.1215 29.7511 32.3605 29.5094 32.3605 29.2113C32.3605 28.9131 32.1215 28.6714 31.8267 28.6714C31.5319 28.6714 31.293 28.9131 31.293 29.2113C31.293 29.5094 31.5319 29.7511 31.8267 29.7511Z" fill="#121212"/>
<path d="M34.9551 29.7511C35.2499 29.7511 35.4889 29.5094 35.4889 29.2113C35.4889 28.9131 35.2499 28.6714 34.9551 28.6714C34.6604 28.6714 34.4214 28.9131 34.4214 29.2113C34.4214 29.5094 34.6604 29.7511 34.9551 29.7511Z" fill="#121212"/>
<path d="M38.6144 29.2113C38.6144 29.5105 38.3764 29.7511 38.0806 29.7511C37.7848 29.7511 37.5469 29.5105 37.5469 29.2113C37.5469 28.912 37.7848 28.6714 38.0806 28.6714C38.3764 28.6714 38.6144 28.9153 38.6144 29.2113Z" fill="#121212"/>
<path d="M41.7428 29.2113C41.7428 29.5105 41.5049 29.7511 41.209 29.7511C40.9132 29.7511 40.6753 29.5105 40.6753 29.2113C40.6753 28.912 40.9132 28.6714 41.209 28.6714C41.5049 28.6714 41.7428 28.9153 41.7428 29.2113Z" fill="#121212"/>
<path d="M44.3377 29.7511C44.6325 29.7511 44.8715 29.5094 44.8715 29.2113C44.8715 28.9131 44.6325 28.6714 44.3377 28.6714C44.0429 28.6714 43.804 28.9131 43.804 29.2113C43.804 29.5094 44.0429 29.7511 44.3377 29.7511Z" fill="#121212"/>
<path d="M48.0001 29.2113C48.0001 29.5105 47.7622 29.7511 47.4664 29.7511C47.1706 29.7511 46.9326 29.5105 46.9326 29.2113C46.9326 28.912 47.1706 28.6714 47.4664 28.6714C47.7622 28.6714 48.0001 28.9153 48.0001 29.2113Z" fill="#121212"/>
<path d="M19.8497 32.3983C19.8497 32.6975 19.6118 32.9381 19.316 32.9381C19.0202 32.9381 18.7822 32.6975 18.7822 32.3983C18.7822 32.0991 19.0202 31.8584 19.316 31.8584C19.6086 31.8584 19.8497 32.0991 19.8497 32.3983Z" fill="#121212"/>
<path d="M22.4444 32.9381C22.7392 32.9381 22.9781 32.6964 22.9781 32.3983C22.9781 32.1001 22.7392 31.8584 22.4444 31.8584C22.1496 31.8584 21.9106 32.1001 21.9106 32.3983C21.9106 32.6964 22.1496 32.9381 22.4444 32.9381Z" fill="#121212"/>
<path d="M25.5696 32.9381C25.8644 32.9381 26.1034 32.6964 26.1034 32.3983C26.1034 32.1001 25.8644 31.8584 25.5696 31.8584C25.2749 31.8584 25.0359 32.1001 25.0359 32.3983C25.0359 32.6964 25.2749 32.9381 25.5696 32.9381Z" fill="#121212"/>
<path d="M29.232 32.3983C29.232 32.6975 28.9941 32.9381 28.6983 32.9381C28.4025 32.9381 28.1646 32.6975 28.1646 32.3983C28.1646 32.0991 28.4025 31.8584 28.6983 31.8584C28.9941 31.8584 29.232 32.0991 29.232 32.3983Z" fill="#121212"/>
<path d="M31.8267 32.9381C32.1215 32.9381 32.3605 32.6964 32.3605 32.3983C32.3605 32.1001 32.1215 31.8584 31.8267 31.8584C31.5319 31.8584 31.293 32.1001 31.293 32.3983C31.293 32.6964 31.5319 32.9381 31.8267 32.9381Z" fill="#121212"/>
<path d="M34.9551 32.9381C35.2499 32.9381 35.4889 32.6964 35.4889 32.3983C35.4889 32.1001 35.2499 31.8584 34.9551 31.8584C34.6604 31.8584 34.4214 32.1001 34.4214 32.3983C34.4214 32.6964 34.6604 32.9381 34.9551 32.9381Z" fill="#121212"/>
<path d="M38.6144 32.3983C38.6144 32.6975 38.3764 32.9381 38.0806 32.9381C37.7848 32.9381 37.5469 32.6975 37.5469 32.3983C37.5469 32.0991 37.7848 31.8584 38.0806 31.8584C38.3764 31.8584 38.6144 32.0991 38.6144 32.3983Z" fill="#121212"/>
<path d="M41.7428 32.3983C41.7428 32.6975 41.5049 32.9381 41.209 32.9381C40.9132 32.9381 40.6753 32.6975 40.6753 32.3983C40.6753 32.0991 40.9132 31.8584 41.209 31.8584C41.5049 31.8584 41.7428 32.0991 41.7428 32.3983Z" fill="#121212"/>
<path d="M44.3377 32.9381C44.6325 32.9381 44.8715 32.6964 44.8715 32.3983C44.8715 32.1001 44.6325 31.8584 44.3377 31.8584C44.0429 31.8584 43.804 32.1001 43.804 32.3983C43.804 32.6964 44.0429 32.9381 44.3377 32.9381Z" fill="#121212"/>
<path d="M48.0001 32.3983C48.0001 32.6975 47.7622 32.9381 47.4664 32.9381C47.1706 32.9381 46.9326 32.6975 46.9326 32.3983C46.9326 32.0991 47.1706 31.8584 47.4664 31.8584C47.7622 31.8584 48.0001 32.0991 48.0001 32.3983Z" fill="#121212"/>
<path d="M19.8497 35.5823C19.8497 35.8815 19.6118 36.1222 19.316 36.1222C19.0202 36.1222 18.7822 35.8815 18.7822 35.5823C18.7822 35.2831 19.0202 35.0425 19.316 35.0425C19.6086 35.0425 19.8497 35.2864 19.8497 35.5823Z" fill="#121212"/>
<path d="M22.4444 36.1222C22.7392 36.1222 22.9781 35.8805 22.9781 35.5823C22.9781 35.2842 22.7392 35.0425 22.4444 35.0425C22.1496 35.0425 21.9106 35.2842 21.9106 35.5823C21.9106 35.8805 22.1496 36.1222 22.4444 36.1222Z" fill="#121212"/>
<path d="M25.5696 36.1222C25.8644 36.1222 26.1034 35.8805 26.1034 35.5823C26.1034 35.2842 25.8644 35.0425 25.5696 35.0425C25.2749 35.0425 25.0359 35.2842 25.0359 35.5823C25.0359 35.8805 25.2749 36.1222 25.5696 36.1222Z" fill="#121212"/>
<path d="M29.232 35.5823C29.232 35.8815 28.9941 36.1222 28.6983 36.1222C28.4025 36.1222 28.1646 35.8815 28.1646 35.5823C28.1646 35.2831 28.4025 35.0425 28.6983 35.0425C28.9941 35.0425 29.232 35.2864 29.232 35.5823Z" fill="#121212"/>
<path d="M31.8267 36.1222C32.1215 36.1222 32.3605 35.8805 32.3605 35.5823C32.3605 35.2842 32.1215 35.0425 31.8267 35.0425C31.5319 35.0425 31.293 35.2842 31.293 35.5823C31.293 35.8805 31.5319 36.1222 31.8267 36.1222Z" fill="#121212"/>
<path d="M34.9551 36.1222C35.2499 36.1222 35.4889 35.8805 35.4889 35.5823C35.4889 35.2842 35.2499 35.0425 34.9551 35.0425C34.6604 35.0425 34.4214 35.2842 34.4214 35.5823C34.4214 35.8805 34.6604 36.1222 34.9551 36.1222Z" fill="#121212"/>
<path d="M38.6144 35.5823C38.6144 35.8815 38.3764 36.1222 38.0806 36.1222C37.7848 36.1222 37.5469 35.8815 37.5469 35.5823C37.5469 35.2831 37.7848 35.0425 38.0806 35.0425C38.3764 35.0425 38.6144 35.2864 38.6144 35.5823Z" fill="#121212"/>
<path d="M41.7428 35.5823C41.7428 35.8815 41.5049 36.1222 41.209 36.1222C40.9132 36.1222 40.6753 35.8815 40.6753 35.5823C40.6753 35.2831 40.9132 35.0425 41.209 35.0425C41.5049 35.0425 41.7428 35.2864 41.7428 35.5823Z" fill="#121212"/>
<path d="M44.3377 36.1222C44.6325 36.1222 44.8715 35.8805 44.8715 35.5823C44.8715 35.2842 44.6325 35.0425 44.3377 35.0425C44.0429 35.0425 43.804 35.2842 43.804 35.5823C43.804 35.8805 44.0429 36.1222 44.3377 36.1222Z" fill="#121212"/>
<path d="M48.0001 35.5823C48.0001 35.8815 47.7622 36.1222 47.4664 36.1222C47.1706 36.1222 46.9326 35.8815 46.9326 35.5823C46.9326 35.2831 47.1706 35.0425 47.4664 35.0425C47.7622 35.0425 48.0001 35.2864 48.0001 35.5823Z" fill="#121212"/>
</svg>
