<svg width="80" height="80" viewBox="0 0 80 80" fill="none" xmlns="http://www.w3.org/2000/svg">
<g clip-path="url(#clip0)">
<path d="M48.2308 51.7641C65.2268 31.2001 58.3135 39.5587 78.7775 14.8001C79.6788 13.7097 80.11 12.3059 79.9763 10.8976C79.8425 9.48932 79.1547 8.19186 78.0642 7.29072L73.9522 3.88939C71.6818 2.01336 68.3206 2.33271 66.4442 4.60272L35.8668 41.6067C35.7615 41.7315 35.6814 41.8755 35.6308 42.0307L30.8308 56.3534C30.5682 57.1301 30.681 57.9847 31.1362 58.6667H26.6668C25.9304 58.6667 25.3335 59.2637 25.3335 60.0001C25.3335 60.7364 25.9304 61.3334 26.6668 61.3334H53.3335C54.0699 61.3334 54.6668 60.7364 54.6668 60.0001C54.6668 59.2637 54.0699 58.6667 53.3335 58.6667H36.1922L47.8308 52.1094C47.9786 52.0122 48.1131 51.8961 48.2308 51.7641ZM39.8508 53.5441L35.7335 50.1334L37.5482 44.7147L44.8335 50.7334L39.8508 53.5441ZM34.8215 52.8467L37.3628 54.9467L33.3628 57.2001L34.8215 52.8467ZM67.3802 24.4001L59.1575 17.6067L61.7042 14.5227L69.9268 21.3227L67.3802 24.4001ZM68.4988 6.30139C68.9491 5.75584 69.5977 5.41155 70.3019 5.34429C71.006 5.27702 71.7081 5.49229 72.2535 5.94272L76.3655 9.34006C76.9108 9.79053 77.2549 10.4392 77.3219 11.1434C77.3889 11.8475 77.1734 12.5495 76.7228 13.0947L71.6268 19.2627L63.4042 12.4694L68.4988 6.30139ZM57.4588 19.6614L65.6815 26.4614L46.9975 49.0667L38.7748 42.2734L57.4588 19.6614Z" fill="black"/>
<path d="M2.66667 28H18.6667V66.6667C18.6733 72.555 23.445 77.3267 29.3333 77.3333H69.3333C74.5661 77.3582 79.0368 73.5666 79.8667 68.4C79.9875 67.6429 79.7701 66.8708 79.272 66.288C78.7617 65.682 78.0096 65.3326 77.2173 65.3333H61.3333V42.6667C61.3333 41.9303 60.7364 41.3333 60 41.3333C59.2636 41.3333 58.6667 41.9303 58.6667 42.6667V65.3333H39.9093C38.5689 65.3326 37.4383 66.3311 37.2733 67.6613C36.7562 71.8609 33.0582 74.9315 28.8351 74.668C24.612 74.4045 21.3244 70.898 21.3333 66.6667V20C21.3316 16.9341 20.0068 14.0181 17.6987 12H50.6667C52.041 11.9929 53.3934 12.3454 54.5893 13.0227C55.0023 13.2609 55.511 13.2606 55.9238 13.022C56.3366 12.7834 56.5907 12.3428 56.5905 11.866C56.5902 11.3893 56.3357 10.9489 55.9227 10.7107C54.321 9.80052 52.5089 9.32565 50.6667 9.33334H10.6667C4.77837 9.33996 0.00661317 14.1117 0 20V25.3333C0 26.0406 0.280952 26.7189 0.781049 27.219C1.28115 27.7191 1.95942 28 2.66667 28ZM39.9093 68L77.228 67.9667C76.6076 71.8406 73.2566 74.6845 69.3333 74.6667H36.388C38.3409 72.9525 39.5944 70.5794 39.9093 68ZM10.6667 12C15.0831 12.0044 18.6623 15.5836 18.6667 20V25.3333H2.66667V20C2.67108 15.5836 6.25022 12.0044 10.6667 12Z" fill="black"/>
<path d="M26.6668 18.6667H50.6668C51.4032 18.6667 52.0002 18.0697 52.0002 17.3333C52.0002 16.597 51.4032 16 50.6668 16H26.6668C25.9304 16 25.3335 16.597 25.3335 17.3333C25.3335 18.0697 25.9304 18.6667 26.6668 18.6667Z" fill="black"/>
<path d="M26.6668 25.3334H45.2268C45.9632 25.3334 46.5602 24.7365 46.5602 24.0001C46.5602 23.2637 45.9632 22.6667 45.2268 22.6667H26.6668C25.9305 22.6667 25.3335 23.2637 25.3335 24.0001C25.3335 24.7365 25.9305 25.3334 26.6668 25.3334Z" fill="black"/>
<path d="M26.6668 32.0002H39.7202C40.4565 32.0002 41.0535 31.4032 41.0535 30.6668C41.0535 29.9305 40.4565 29.3335 39.7202 29.3335H26.6668C25.9305 29.3335 25.3335 29.9305 25.3335 30.6668C25.3335 31.4032 25.9305 32.0002 26.6668 32.0002Z" fill="black"/>
<path d="M26.6668 38.6667H34.2135C34.9499 38.6667 35.5468 38.0697 35.5468 37.3333C35.5468 36.597 34.9499 36 34.2135 36H26.6668C25.9305 36 25.3335 36.597 25.3335 37.3333C25.3335 38.0697 25.9305 38.6667 26.6668 38.6667Z" fill="black"/>
</g>
<defs>
<clipPath id="clip0">
<rect width="80" height="80" fill="white"/>
</clipPath>
</defs>
</svg>
