<svg width="48" height="49" viewBox="0 0 48 49" fill="none" xmlns="http://www.w3.org/2000/svg">
<path d="M48 0H16V40H48V0Z" fill="#E2E2E2"/>
<path d="M0 35C2.33333 35 2.33333 39 4.66667 39C7 39 7 35 9.33333 35C11.6667 35 11.6667 39 14 39C16.3333 39 16.3333 35 18.6667 35C21 35 21 39 23.3333 39C25.6667 39 25.6667 35 28 35" stroke="#83E573" stroke-width="2" stroke-miterlimit="10"/>
<path d="M0 44C2.33333 44 2.33333 48 4.66667 48C7 48 7 44 9.33333 44C11.6667 44 11.6667 48 14 48C16.3333 48 16.3333 44 18.6667 44C21 44 21 48 23.3333 48C25.6667 48 25.6667 44 28 44" stroke="#83E573" stroke-width="2" stroke-miterlimit="10"/>
</svg>
