<svg width="38" height="38" viewBox="0 0 38 38" fill="none" xmlns="http://www.w3.org/2000/svg">
<path d="M30.667 37.3334C34.1503 37.3334 36.5003 34.8834 37.192 30.6C37.2707 30.0473 37.2375 29.4843 37.0943 28.9446C36.9511 28.4049 36.701 27.8995 36.3587 27.4584L36.2253 27.3334L31.167 23.3334C30.4026 22.7611 29.4649 22.4686 28.5107 22.505C27.5566 22.5414 26.6438 22.9045 25.9253 23.5334L23.742 25.6C19.192 24.5667 12.6587 18.6667 12.3337 14.3167L14.492 12.0417C15.1106 11.3196 15.4637 10.4076 15.4925 9.45713C15.5213 8.50668 15.2241 7.57497 14.6503 6.81671L10.667 1.77504C10.6254 1.71962 10.5747 1.67171 10.517 1.63338C10.0769 1.29213 9.57288 1.04257 9.03471 0.899438C8.49653 0.756306 7.93512 0.722508 7.38366 0.800043C3.11699 1.50004 0.666992 3.85004 0.666992 7.33338C0.666992 15.2899 3.8277 22.9205 9.45379 28.5466C15.0799 34.1727 22.7105 37.3334 30.667 37.3334ZM7.65033 2.45838C7.76963 2.45011 7.88936 2.45011 8.00866 2.45838C8.52217 2.46032 9.02262 2.62035 9.44199 2.91671L13.3337 7.83338C13.6719 8.28313 13.8485 8.83384 13.8349 9.39641C13.8212 9.95898 13.6182 10.5005 13.2587 10.9334L10.892 13.4334C10.7481 13.5871 10.6677 13.7895 10.667 14C10.667 19.3667 18.4087 26.4167 23.867 27.3334C23.9938 27.3543 24.1237 27.3457 24.2466 27.3081C24.3694 27.2705 24.482 27.205 24.5753 27.1167L27.0753 24.775C27.505 24.4085 28.0462 24.1983 28.6106 24.1787C29.175 24.159 29.7295 24.331 30.1837 24.6667L35.142 28.5667C35.5158 29.084 35.6714 29.7274 35.5753 30.3584C35.167 32.775 34.0003 35.6667 30.667 35.6667C23.1525 35.6667 15.9458 32.6816 10.6323 27.3681C5.31877 22.0545 2.33366 14.8478 2.33366 7.33338C2.33366 4.00004 5.22533 2.83338 7.65033 2.45838Z" fill="black"/>
</svg>
