<svg width="80" height="80" viewBox="0 0 80 80" fill="none" xmlns="http://www.w3.org/2000/svg">
<path d="M77.3334 6.66687H50.6665V4.00024C50.6665 1.79077 48.8757 0 46.6669 0H33.3331C31.1243 0 29.3335 1.79077 29.3335 4.00024V6.66687H2.66663C1.19385 6.66687 0 7.86072 0 9.3335V12.0001C0 13.4729 1.19385 14.6667 2.66663 14.6667V64.0002C2.66663 64.7363 3.26355 65.3333 4.00024 65.3333H5.46692C6.203 65.3333 6.79993 64.7363 6.79993 64.0002C6.79993 63.2635 6.203 62.6666 5.46692 62.6666H5.33325V14.6667H74.6667V62.6666H31.8665C31.1304 62.6666 30.5334 63.2635 30.5334 64.0002C30.5334 64.7363 31.1304 65.3333 31.8665 65.3333H77.3334V67.9999H25.7733C25.7562 67.9999 25.7416 68.009 25.7239 68.009C25.6244 68.0182 25.5267 68.0383 25.4321 68.0695C25.3595 68.0823 25.2887 68.1018 25.2197 68.1281C25.1422 68.1696 25.069 68.219 25.0012 68.2758C24.9323 68.3197 24.8669 68.3698 24.8065 68.4253C24.7565 68.4875 24.7113 68.5541 24.6735 68.6243C24.6204 68.6993 24.5758 68.7805 24.5398 68.8654C24.5398 68.8824 24.5184 68.8947 24.5135 68.9117L21.4069 78.2452C21.2952 78.5809 21.3214 78.9478 21.4795 79.2639C21.6382 79.5801 21.9159 79.8206 22.2522 79.9323C22.3859 79.9768 22.5256 79.9994 22.6666 80C23.241 80 23.7506 79.6326 23.9319 79.0881L26.7358 70.6665H38.736L38.6664 78.656C38.6609 79.3921 39.2523 79.9933 39.9878 80H40C40.7324 80 41.3275 79.4098 41.3336 78.6774L41.4014 70.6665H53.2678L56.0681 79.0881C56.2494 79.6326 56.759 80 57.3334 80C57.4762 80 57.6178 79.9774 57.7533 79.9323C58.089 79.8206 58.3673 79.5801 58.5254 79.2639C58.6841 78.9478 58.7103 78.5809 58.5986 78.2452L56.076 70.6665H77.3334C78.8062 70.6665 80 69.4727 80 67.9999V65.3333C80 63.8605 78.8062 62.6666 77.3334 62.6666V14.6667C78.8062 14.6667 80 13.4729 80 12.0001V9.3335C80 7.86072 78.8062 6.66687 77.3334 6.66687ZM32.0001 4.00024C32.0001 3.26355 32.597 2.66663 33.3331 2.66663H46.6669C47.403 2.66663 47.9999 3.26355 47.9999 4.00024V6.66687H32.0001V4.00024ZM75.9998 12.0001H2.66663V9.3335H77.3334V12.0001H75.9998Z" fill="black"/>
<path d="M10.6666 32.0002H25.3334C26.8062 32.0002 28 30.8064 28 29.3336V20.0001C28 18.5273 26.8062 17.3335 25.3334 17.3335H10.6666C9.19385 17.3335 8 18.5273 8 20.0001V29.3336C8 30.8064 9.19385 32.0002 10.6666 32.0002ZM13.4413 29.3336L15.9999 26.1335L18.5591 29.3336H13.4413ZM25.3334 22.5465C24.6077 22.8114 23.7947 22.6307 23.2484 22.0851C22.7028 21.5388 22.5227 20.7258 22.787 20.0001H25.3334V22.5465ZM20.0551 20.0001C19.8286 21.4576 20.3114 22.9359 21.3545 23.979C22.3976 25.0221 23.8759 25.5049 25.3334 25.2791V29.3336H21.9734L17.0399 23.1666C16.7781 22.8657 16.3978 22.693 15.9987 22.693C15.5995 22.693 15.2198 22.8657 14.9574 23.1666L10.6666 28.5334V20.0001H20.0551Z" fill="black"/>
<path d="M33.3331 32.0002H47.9999C49.4727 32.0002 50.6665 30.8064 50.6665 29.3336V20.0001C50.6641 19.1694 50.2728 18.3882 49.6094 17.8883C49.5959 17.8804 49.5868 17.8669 49.5721 17.8572C49.118 17.5184 48.5669 17.3347 47.9999 17.3335H33.3331C32.7667 17.3353 32.2156 17.519 31.7615 17.8572C31.7456 17.8669 31.7346 17.8816 31.7188 17.892C31.0583 18.3925 30.6696 19.1719 30.6665 20.0001V29.3336C30.6665 30.8064 31.8604 32.0002 33.3331 32.0002ZM47.9999 28.1239L43.009 24.6669L47.9999 21.2092V28.1239ZM45.0665 29.3336H36.2665L40.6665 26.2892L45.0665 29.3336ZM40.6665 23.0439L36.2665 20.0001H45.0665L40.6665 23.0439ZM38.324 24.6669L33.3331 28.1239V21.2092L38.324 24.6669Z" fill="black"/>
<path d="M55.9996 32.0002H70.6664C72.1392 32.0002 73.333 30.8064 73.333 29.3336V20.0001C73.333 18.5273 72.1392 17.3335 70.6664 17.3335H55.9996C54.5269 17.3335 53.333 18.5273 53.333 20.0001V29.3336C53.333 30.8064 54.5269 32.0002 55.9996 32.0002ZM65.3331 22.0002C65.3331 23.105 64.4377 24.0004 63.333 24.0004C62.2289 24.0004 61.3335 23.105 61.3335 22.0002C61.3335 20.8955 62.2289 20.0001 63.333 20.0001C64.4377 20.0001 65.3331 20.8955 65.3331 22.0002ZM55.9996 20.0001H59.1344C58.8304 20.6233 58.6705 21.3069 58.6663 22.0002C58.6663 24.5771 60.7561 26.667 63.333 26.667C65.9105 26.667 67.9998 24.5771 67.9998 22.0002C67.9961 21.3069 67.8362 20.6233 67.5316 20.0001H70.6664V29.3336H55.9996V20.0001Z" fill="black"/>
<path d="M8 52.0001C8 53.4729 9.19385 54.6667 10.6666 54.6667H16.1335C16.8696 54.6667 17.4666 54.0698 17.4666 53.3331C17.4666 52.597 16.8696 52.0001 16.1335 52.0001H10.6666V42.6666H25.3334V46.8799C25.3334 47.6166 25.9303 48.2135 26.667 48.2135C27.4031 48.2135 28 47.6166 28 46.8799V42.6666C28 41.1938 26.8062 40 25.3334 40H10.6666C9.19385 40 8 41.1938 8 42.6666V52.0001Z" fill="black"/>
<path d="M30.6665 44.7601C30.6665 45.4962 31.2634 46.0931 32.0001 46.0931C32.7362 46.0931 33.3331 45.4962 33.3331 44.7601V43.8757L38.3264 47.3334L37.9468 47.6001C37.3694 48.0292 37.2369 48.8391 37.6471 49.4305C38.0573 50.0214 38.8629 50.1801 39.4666 49.7894L40.6665 48.9575L45.0665 52.0001H36.8536C36.1169 52.0001 35.52 52.597 35.52 53.3331C35.52 54.0698 36.1169 54.6667 36.8536 54.6667H47.9999C49.4727 54.6667 50.6665 53.4729 50.6665 52.0001V42.6666C50.6567 42.0105 50.4065 41.3806 49.964 40.896L49.9561 40.8881C49.8822 40.7977 49.8035 40.7117 49.7198 40.6305C49.6814 40.5975 49.6375 40.575 49.5972 40.5438L49.5679 40.5243C49.115 40.1862 48.5651 40.0024 47.9999 40H33.3331C32.7747 40.0043 32.2314 40.1843 31.7816 40.5157C31.7572 40.5304 31.7358 40.5481 31.7133 40.564C31.6669 40.5988 31.6174 40.6268 31.5723 40.6653C31.001 41.1743 30.672 41.9019 30.6665 42.6666V44.7601ZM36.2665 42.6666H45.0665L40.6665 45.7123L36.2665 42.6666ZM47.9999 43.8776V50.7904L43.0109 47.3334L47.9999 43.8776Z" fill="black"/>
<path d="M53.333 52.0001C53.333 53.4729 54.5269 54.6667 55.9996 54.6667H70.6664C72.1392 54.6667 73.333 53.4729 73.333 52.0001V42.6666C73.333 41.1938 72.1392 40 70.6664 40H55.9996C54.5269 40 53.333 41.1938 53.333 42.6666V52.0001ZM58.7743 52.0001L61.3335 48.8L63.8921 52.0001H58.7743ZM70.6664 45.2136C69.9407 45.4779 69.1277 45.2972 68.582 44.7516C68.0358 44.2053 67.8557 43.3923 68.12 42.6666H70.6664V45.2136ZM65.3881 42.6666C65.1616 44.1241 65.6444 45.6024 66.6875 46.6455C67.7306 47.6886 69.2089 48.1714 70.6664 47.9456V52.0001H67.3064L62.3729 45.8331C62.1111 45.5322 61.7314 45.3595 61.3317 45.3595C60.9325 45.3595 60.5529 45.5322 60.2904 45.8331L55.9996 51.2V42.6666H65.3881Z" fill="black"/>
<path d="M9.33362 37.3334H26.667C27.4031 37.3334 28 36.7364 28 35.9998C28 35.2637 27.4031 34.6667 26.667 34.6667H9.33362C8.59692 34.6667 8 35.2637 8 35.9998C8 36.7364 8.59692 37.3334 9.33362 37.3334Z" fill="black"/>
<path d="M9.33362 60.0001H10.8003C11.5364 60.0001 12.1333 59.4032 12.1333 58.6665C12.1333 57.9304 11.5364 57.3335 10.8003 57.3335H9.33362C8.59692 57.3335 8 57.9304 8 58.6665C8 59.4032 8.59692 60.0001 9.33362 60.0001Z" fill="black"/>
<path d="M34.7197 57.3335C33.9836 57.3335 33.3867 57.9304 33.3867 58.6665C33.3867 59.4032 33.9836 60.0001 34.7197 60.0001H49.3334C50.0695 60.0001 50.6664 59.4032 50.6664 58.6665C50.6664 57.9304 50.0695 57.3335 49.3334 57.3335H34.7197Z" fill="black"/>
<path d="M54.6666 60.0001H72C72.7361 60.0001 73.333 59.4032 73.333 58.6665C73.333 57.9304 72.7361 57.3335 72 57.3335H54.6666C53.9299 57.3335 53.333 57.9304 53.333 58.6665C53.333 59.4032 53.9299 60.0001 54.6666 60.0001Z" fill="black"/>
<path d="M32.0001 37.3334H49.3335C50.0696 37.3334 50.6665 36.7364 50.6665 35.9998C50.6665 35.2637 50.0696 34.6667 49.3335 34.6667H32.0001C31.2634 34.6667 30.6665 35.2637 30.6665 35.9998C30.6665 36.7364 31.2634 37.3334 32.0001 37.3334Z" fill="black"/>
<path d="M54.6666 37.3334H72C72.7361 37.3334 73.333 36.7364 73.333 35.9998C73.333 35.2637 72.7361 34.6667 72 34.6667H54.6666C53.9299 34.6667 53.333 35.2637 53.333 35.9998C53.333 36.7364 53.9299 37.3334 54.6666 37.3334Z" fill="black"/>
<path d="M6.82794 68.2961L4.00018 71.1245C2.95892 72.1658 2.95892 73.8534 4.00018 74.8947L7.77032 78.6666C8.27081 79.1671 8.94891 79.4485 9.65631 79.4485C10.3643 79.4485 11.0424 79.1671 11.5429 78.6666L29.4561 60.7534V60.7443C29.5489 60.6509 29.6276 60.5434 29.6893 60.4269L33.8867 52.3708C34.4286 51.3375 34.2358 50.0722 33.4106 49.2471C32.5854 48.4219 31.3201 48.229 30.2868 48.771L22.232 52.9684C22.1777 53.0044 22.1264 53.0453 22.08 53.091C22.0184 53.1246 21.9598 53.1631 21.9055 53.207L6.83038 68.2949L6.82794 68.2961ZM9.65753 76.7831L5.88556 73.0093L7.77032 71.1245L11.5441 74.8965L9.65753 76.7831ZM13.4295 73.0111L9.65753 69.2391L22.857 56.039L26.6277 59.811L13.4295 73.0111ZM31.5276 51.144L28.1707 57.5881L25.0842 54.5016L31.5276 51.144Z" fill="black"/>
</svg>
