<svg width="80" height="80" viewBox="0 0 80 80" fill="none" xmlns="http://www.w3.org/2000/svg">
<path d="M71.6258 55.6048H44.1109V54.0465C44.3925 53.9297 44.6614 53.7718 44.9058 53.5673L46.6006 52.1487C47.083 51.7451 47.3595 51.1529 47.3595 50.524V46.2061C47.3595 45.0376 46.409 44.0872 45.2406 44.0872H40.638C39.4695 44.0872 38.519 45.0376 38.519 46.2061V50.524C38.519 51.1529 38.7958 51.7453 39.278 52.1487L40.9729 53.5675C41.2172 53.7718 41.4858 53.9295 41.767 54.0462V55.6048H29.0864C27.8065 55.6048 26.7651 56.6461 26.7651 57.9259V61.2143C26.7651 62.4942 27.8065 63.5354 29.0864 63.5354H41.767V66.7318H29.0864C27.8065 66.7318 26.7651 67.7731 26.7651 69.0529V72.3414C26.7651 73.6212 27.8065 74.6625 29.0864 74.6625H41.767V78.8281C41.767 79.4754 42.2915 80 42.9389 80C43.5862 80 44.1108 79.4754 44.1108 78.8281V74.6628H71.6258C72.9056 74.6628 73.947 73.6215 73.947 72.3417V69.0531C73.947 67.7733 72.9056 66.732 71.6258 66.732H44.1109V63.5356H71.6259C72.9058 63.5356 73.9472 62.4943 73.9472 61.2145V57.9261C73.9472 56.6461 72.9058 55.6048 71.6258 55.6048ZM40.8628 50.4189V46.4311H45.0156V50.4189L43.4014 51.77C43.2687 51.8809 43.1064 51.9367 42.9439 51.9378C42.9422 51.9378 42.9406 51.9376 42.9389 51.9376C42.9373 51.9376 42.9359 51.9378 42.9344 51.9378C42.7719 51.9367 42.6097 51.8811 42.4772 51.7701L40.8628 50.4189ZM29.1089 72.319V69.0758H41.7672V72.319H29.1089ZM71.6034 72.319H56.167V69.0758H71.6034V72.319ZM53.8233 69.0758V72.319H44.1109V69.0758H53.8233ZM29.1089 61.1918V57.9486H41.7672V61.1918H29.1089ZM44.1109 57.9486H60.889V61.1918H44.1109V57.9486ZM71.6034 61.1918H63.2328V57.9486H71.6034V61.1918Z" fill="black"/>
<path d="M19.9518 55.6047H8.31805C7.06898 55.6047 6.05273 56.6208 6.05273 57.8699V61.2704C6.05273 62.5194 7.06898 63.5355 8.31805 63.5355H19.9518C21.2009 63.5355 22.217 62.5194 22.217 61.2704V57.8699C22.217 56.6208 21.201 55.6047 19.9518 55.6047ZM19.8732 61.1918H8.39649V57.9485H19.8732V61.1918Z" fill="black"/>
<path d="M19.9518 66.7319H8.31805C7.06898 66.7319 6.05273 67.748 6.05273 68.9971V72.3976C6.05273 73.6466 7.06898 74.6627 8.31805 74.6627H19.9518C21.2009 74.6627 22.217 73.6466 22.217 72.3976V68.9971C22.217 67.748 21.201 66.7319 19.9518 66.7319ZM19.8732 72.319H8.39649V69.0757H19.8732V72.319Z" fill="black"/>
<path d="M68.3716 0H11.6282C8.55383 0 6.05273 2.50109 6.05273 5.57531V35.2687C6.05273 38.343 8.55383 40.8441 11.6282 40.8441H19.5548C20.2021 40.8441 20.7266 40.3195 20.7266 39.6722C20.7266 39.0248 20.2021 38.5003 19.5548 38.5003H11.6282C9.84633 38.5003 8.39648 37.0508 8.39648 35.2687V5.57531C8.39648 3.79328 9.84633 2.34375 11.6282 2.34375H68.3716C70.1535 2.34375 71.6034 3.79328 71.6034 5.57531V35.2687C71.6034 37.0506 70.1537 38.5003 68.3716 38.5003H24.2423C23.5949 38.5003 23.0704 39.0248 23.0704 39.6722C23.0704 40.3195 23.5949 40.8441 24.2423 40.8441H68.3716C71.446 40.8441 73.9471 38.343 73.9471 35.2687V5.57531C73.9471 2.50109 71.446 0 68.3716 0V0Z" fill="black"/>
<path d="M64.1258 19.1829C64.1258 15.5493 61.1696 12.593 57.536 12.593C53.9024 12.593 50.9463 15.5493 50.9463 19.1829C50.9463 22.8165 53.9024 25.7727 57.536 25.7727C61.1696 25.7727 64.1258 22.8163 64.1258 19.1829ZM53.2902 19.1829C53.2902 16.8416 55.1949 14.9368 57.5361 14.9368C59.8774 14.9368 61.7822 16.8415 61.7822 19.1829C61.7822 21.5243 59.8775 23.429 57.5361 23.429C55.1949 23.4288 53.2902 21.5241 53.2902 19.1829Z" fill="black"/>
<path d="M47.1318 16.7632C42.7268 16.7632 38.4993 18.627 35.5048 21.8207C33.7894 18.8751 31.4009 16.3684 28.514 14.5091C25.0312 12.2659 20.991 11.0801 16.8301 11.0801C16.1827 11.0801 15.6582 11.6046 15.6582 12.252C15.6582 12.8993 16.1827 13.4238 16.8301 13.4238C20.5399 13.4238 24.1413 14.4805 27.2449 16.4796C30.3046 18.4505 32.7155 21.2474 34.2307 24.4152C34.6134 25.2091 35.7044 25.3059 36.2265 24.6051C38.7841 21.1624 42.861 19.107 47.1319 19.107C47.7793 19.107 48.3038 18.5824 48.3038 17.9351C48.3038 17.2877 47.779 16.7632 47.1318 16.7632Z" fill="black"/>
<path d="M47.1318 21.647C44.9221 21.647 42.7878 22.2988 40.9584 23.5329C38.7639 25.0168 37.1737 27.2335 36.4812 29.7742C36.3111 30.3985 36.6793 31.0428 37.3037 31.2131C37.4068 31.2412 37.5106 31.2546 37.6128 31.2546C38.1282 31.2546 38.6004 30.912 38.7426 30.3907C39.2878 28.3904 40.5411 26.6445 42.2703 25.4753C43.71 24.504 45.3911 23.9907 47.1318 23.9907C47.7792 23.9907 48.3037 23.4662 48.3037 22.8188C48.3037 22.1715 47.779 21.647 47.1318 21.647Z" fill="black"/>
<path d="M16.8299 18.3077C20.2421 18.3077 23.5526 19.5296 26.1516 21.7485C28.7226 23.9433 30.4465 26.9725 31.006 30.2782C31.1027 30.85 31.5987 31.2546 32.1601 31.2546C32.2249 31.2546 32.2909 31.2493 32.3571 31.238C32.9952 31.13 33.4249 30.525 33.317 29.8871C32.666 26.0407 30.6618 22.5172 27.6735 19.9661C24.6505 17.3854 20.7996 15.9641 16.8301 15.9641C16.1827 15.9641 15.6582 16.4886 15.6582 17.136C15.6582 17.7833 16.1826 18.3077 16.8299 18.3077Z" fill="black"/>
</svg>
