<svg width="80" height="80" viewBox="0 0 80 80" fill="none" xmlns="http://www.w3.org/2000/svg">
<g clip-path="url(#clip0)">
<path d="M4.00015 69.3349H22.6661C23.4028 69.3349 23.9997 68.738 23.9997 68.0019C23.9997 67.2653 23.4028 66.6683 22.6661 66.6683H4.00015C3.26347 66.6683 2.66656 66.0714 2.66656 65.3354V13.3365H10.6663C12.139 13.3365 13.3328 12.1427 13.3328 10.6699V2.67022H43.9992C44.7353 2.67022 45.3322 3.26713 45.3322 4.0032V26.6693C45.3322 27.406 45.9291 28.0029 46.6658 28.0029C47.4018 28.0029 47.9987 27.406 47.9987 26.6693V4.0032C47.9987 1.79439 46.208 0.00366211 43.9992 0.00366211H4.00015C1.79073 0.00366211 0 1.79439 0 4.0032V65.3354C0 67.5442 1.79073 69.3349 4.00015 69.3349ZM4.55189 10.6699L10.6663 4.55556V10.6699H4.55189ZM4.00015 2.67022H8.78092L2.66656 8.78458V4.0032C2.66656 3.26713 3.26347 2.67022 4.00015 2.67022Z" fill="#121212"/>
<path d="M73.5101 30.6678H66.6652V29.3342C66.6652 28.5981 66.0683 28.0012 65.3316 28.0012C64.5955 28.0012 63.9986 28.5981 63.9986 29.3342V30.6678H42.6655V29.3342C42.6655 28.5981 42.0686 28.0012 41.3325 28.0012C40.5959 28.0012 39.9989 28.5981 39.9989 29.3342V30.6678H23.9996C23.2629 30.6678 22.666 31.2647 22.666 32.0008C22.666 32.7374 23.2629 33.3343 23.9996 33.3343H27.9576C27.1135 34.497 26.6613 35.8978 26.6661 37.3339H23.9996C23.2629 37.3339 22.666 37.9314 22.666 38.6675C22.666 39.4042 23.2629 40.0011 23.9996 40.0011H26.6661V48.0007H22.666C21.9299 48.0007 21.333 48.5977 21.333 49.3337C21.333 50.0704 21.9299 50.6673 22.666 50.6673H26.6661V54.6669H22.666C21.9299 54.6669 21.333 55.2638 21.333 56.0004C21.333 56.7365 21.9299 57.3334 22.666 57.3334H26.6661V73.3334C26.6234 75.0832 27.2875 76.7763 28.5087 78.0306C29.7294 79.2848 31.4036 79.9946 33.154 80.0001H73.5101C75.2606 79.9946 76.9347 79.2848 78.1554 78.0306C79.3761 76.7763 80.0401 75.0832 79.998 73.3334V37.3339C80.0401 35.5847 79.3761 33.8916 78.1554 32.6373C76.9347 31.3825 75.2606 30.6727 73.5101 30.6678ZM33.3322 33.3343H39.9989V34.6673C39.9989 35.404 40.5959 36.0009 41.3325 36.0009C42.0686 36.0009 42.6655 35.404 42.6655 34.6673V33.3343H63.9986V34.6673C63.9986 35.404 64.5955 36.0009 65.3316 36.0009C66.0683 36.0009 66.6652 35.404 66.6652 34.6673V33.3343H73.5101C74.5513 33.3459 75.5438 33.7768 76.2627 34.5294C76.9823 35.2825 77.3674 36.2939 77.3314 37.3339V38.6675H29.3327V37.3339C29.2967 36.2939 29.6818 35.2825 30.4008 34.5294C31.1204 33.7768 32.1128 33.3459 33.154 33.3343H33.3322ZM73.5101 77.3329H33.154C32.1128 77.322 31.1204 76.8904 30.4008 76.1379C29.6818 75.3847 29.2967 74.374 29.3327 73.3334V41.334H77.3314V73.3334C77.3674 74.374 76.9823 75.3847 76.2627 76.1379C75.5438 76.8904 74.5513 77.322 73.5101 77.3329Z" fill="#121212"/>
<path d="M70.4866 44.0007H36.1777C33.8389 44.0361 31.9695 45.9575 31.9994 48.2969V70.371C31.9695 72.7098 33.8389 74.6317 36.1777 74.6665H70.4866C72.8254 74.6317 74.6943 72.7098 74.665 70.371V48.2969C74.6943 45.9575 72.8254 44.0361 70.4866 44.0007ZM34.6659 56.0006H39.9991V62.6673H34.6659V56.0006ZM42.6656 56.0006H47.9988V62.6673H42.6656V56.0006ZM55.9984 53.334H50.6653V46.6673H55.9984V53.334ZM58.665 46.6673H63.9987V53.334H58.665V46.6673ZM55.9984 56.0006V62.6673H50.6653V56.0006H55.9984ZM47.9988 53.334H42.6656V46.6673H47.9988V53.334ZM47.9988 65.3338V72H42.6656V65.3338H47.9988ZM50.6653 65.3338H55.9984V72H50.6653V65.3338ZM58.665 65.3338H63.9987V72H58.665V65.3338ZM58.665 62.6673V56.0006H63.9987V62.6673H58.665ZM66.6653 56.0006H71.9984V62.6673H66.6653V56.0006ZM71.9984 48.2969V53.334H66.6653V46.6673H70.4866C71.3527 46.7021 72.0283 47.4302 71.9984 48.2969ZM36.1777 46.6673H39.9991V53.334H34.6659V48.2969C34.636 47.4302 35.3117 46.7021 36.1777 46.6673ZM34.6659 70.371V65.3338H39.9991V72H36.1777C35.3117 71.9658 34.636 71.2376 34.6659 70.371ZM70.4866 72H66.6653V65.3338H71.9984V70.371C72.0283 71.2376 71.3527 71.9658 70.4866 72Z" fill="#121212"/>
<path d="M16.8332 13.6268C16.5567 13.4058 16.204 13.3033 15.8524 13.3424C15.5008 13.3814 15.1792 13.5584 14.9583 13.8349L10.5559 19.3347L8.94278 17.7215C8.41972 17.2162 7.58783 17.2235 7.07331 17.738C6.55941 18.2519 6.55209 19.0838 7.05744 19.6069L9.72401 22.2734C9.97302 22.5249 10.3124 22.6671 10.6664 22.6683H10.7414C11.1198 22.647 11.4714 22.4657 11.7076 22.1697L17.0413 15.503C17.2623 15.2265 17.3654 14.8737 17.3264 14.5215C17.2873 14.17 17.1097 13.8477 16.8332 13.6268Z" fill="#121212"/>
<path d="M16.8332 30.9598C16.5567 30.7389 16.204 30.6363 15.8524 30.6754C15.5008 30.7144 15.1792 30.8914 14.9583 31.1679L10.5559 36.6677L8.94278 35.0545C8.41972 34.5492 7.58783 34.5565 7.07331 35.071C6.55941 35.5849 6.55209 36.4168 7.05744 36.9399L9.72401 39.6064C9.97302 39.8579 10.3124 40.0001 10.6664 40.0013H10.7414C11.1198 39.98 11.4714 39.7987 11.7076 39.5027L17.0413 32.836C17.2623 32.5595 17.3654 32.2067 17.3264 31.8546C17.2873 31.503 17.1097 31.1807 16.8332 30.9598Z" fill="#121212"/>
<path d="M14.9583 48.5008L10.5559 54.0006L8.94278 52.3874C8.41972 51.8821 7.58783 51.8894 7.07331 52.4033C6.55941 52.9178 6.55209 53.7497 7.05744 54.2728L9.72401 56.9393C9.97302 57.1908 10.3124 57.333 10.6664 57.3336H10.7414C11.1198 57.3129 11.4714 57.1316 11.7076 56.835L17.0413 50.1689C17.3386 49.7966 17.4155 49.2943 17.2421 48.8505C17.0688 48.4062 16.6721 48.0888 16.2009 48.0168C15.7297 47.9454 15.2561 48.1303 14.9583 48.502V48.5008Z" fill="#121212"/>
<path d="M41.3326 13.335H23.9996C23.2629 13.335 22.666 13.9319 22.666 14.6679C22.666 15.4046 23.2629 16.0015 23.9996 16.0015H41.3326C42.0686 16.0015 42.6655 15.4046 42.6655 14.6679C42.6655 13.9319 42.0686 13.335 41.3326 13.335Z" fill="#121212"/>
<path d="M23.9996 20.0017C23.2629 20.0017 22.666 20.5986 22.666 21.3347C22.666 22.0714 23.2629 22.6683 23.9996 22.6683H29.3327C30.0688 22.6683 30.6657 22.0714 30.6657 21.3347C30.6657 20.5986 30.0688 20.0017 29.3327 20.0017H23.9996Z" fill="#121212"/>
<path d="M41.3327 20.0017H35.999C35.2629 20.0017 34.666 20.5986 34.666 21.3347C34.666 22.0714 35.2629 22.6683 35.999 22.6683H41.3327C42.0688 22.6683 42.6657 22.0714 42.6657 21.3347C42.6657 20.5986 42.0688 20.0017 41.3327 20.0017Z" fill="#121212"/>
</g>
<defs>
<clipPath id="clip0">
<rect width="80" height="80" fill="white"/>
</clipPath>
</defs>
</svg>
