<svg width="40" height="40" viewBox="0 0 40 40" fill="none" xmlns="http://www.w3.org/2000/svg">
<path d="M20.0004 0C12.6485 0 6.66699 5.98149 6.66699 13.3334C6.66699 15.5404 7.21879 17.7287 8.26777 19.6696L19.2712 39.5703C19.4177 39.8356 19.6968 40 20.0004 40C20.3039 40 20.583 39.8356 20.7295 39.5703L31.737 19.663C32.7819 17.7287 33.3337 15.5403 33.3337 13.3333C33.3337 5.98148 27.3522 0 20.0004 0ZM30.2746 18.8631L20.0004 37.4447L9.7302 18.8705C8.81629 17.1794 8.33371 15.2645 8.33371 13.3334C8.33371 6.90023 13.5673 1.66672 20.0004 1.66672C26.4334 1.66672 31.667 6.90031 31.667 13.3334C31.667 15.2645 31.1844 17.1794 30.2746 18.8631Z" fill="black"/>
<path d="M20.0006 6.66663C16.3247 6.66663 13.334 9.65733 13.334 13.3333C13.334 17.0093 16.3247 20 20.0006 20C23.6766 20 26.6673 17.0093 26.6673 13.3333C26.6673 9.65741 23.6766 6.66663 20.0006 6.66663ZM20.0006 18.3333C17.2434 18.3333 15.0006 16.0905 15.0006 13.3333C15.0006 10.5762 17.2434 8.33334 20.0006 8.33334C22.7578 8.33334 25.0006 10.5762 25.0006 13.3333C25.0006 16.0905 22.7578 18.3333 20.0006 18.3333Z" fill="black"/>
</svg>
