<svg width="48" height="48" viewBox="0 0 48 48" fill="none" xmlns="http://www.w3.org/2000/svg">
<path d="M40 28C40 39.0457 31.0457 48 20 48C8.9543 48 0 39.0457 0 28C0 16.9543 8.9543 8 20 8C31.0457 8 40 16.9543 40 28ZM7.73009 28C7.73009 34.7765 13.2235 40.2699 20 40.2699C26.7765 40.2699 32.2699 34.7765 32.2699 28C32.2699 21.2235 26.7765 15.7301 20 15.7301C13.2235 15.7301 7.73009 21.2235 7.73009 28Z" fill="#E2E2E2"/>
<path d="M38 20C43.5228 20 48 15.5228 48 10C48 4.47715 43.5228 0 38 0C32.4772 0 28 4.47715 28 10C28 15.5228 32.4772 20 38 20Z" fill="#45ABF4"/>
</svg>
