<svg width="24" height="24" viewBox="0 0 24 24" fill="none" xmlns="http://www.w3.org/2000/svg">
<path d="M22.1468 5.96372C22.3344 5.77619 22.4397 5.52183 22.4397 5.25662C22.4397 4.9914 22.3344 4.73705 22.1468 4.54951L19.4497 1.85234C19.0591 1.46182 18.426 1.46182 18.0354 1.85234L11.9992 7.88863L5.96287 1.85234C5.77533 1.66481 5.52098 1.55945 5.25576 1.55945C4.99055 1.55945 4.73619 1.66481 4.54865 1.85234L1.85149 4.54951C1.66395 4.73705 1.55859 4.9914 1.55859 5.25662C1.55859 5.52183 1.66395 5.77619 1.85149 5.96372L7.88777 12L1.85149 18.0363C1.46096 18.4268 1.46096 19.06 1.85149 19.4505L4.54865 22.1477C4.73619 22.3352 4.99055 22.4406 5.25576 22.4406C5.52098 22.4406 5.77533 22.3352 5.96287 22.1477L11.9992 16.1114L18.0354 22.1477C18.223 22.3352 18.4773 22.4406 18.7425 22.4406C19.0078 22.4406 19.2621 22.3352 19.4497 22.1477L22.1468 19.4505C22.3344 19.263 22.4397 19.0086 22.4397 18.7434C22.4397 18.4782 22.3344 18.2238 22.1468 18.0363L16.1105 12L22.1468 5.96372Z" fill="#45ABF4" stroke="#121212" stroke-width="2" stroke-linejoin="round"/>
</svg>
