<svg width="265" height="231" viewBox="0 0 265 231" fill="none" xmlns="http://www.w3.org/2000/svg">
<path d="M234.146 0.705078H30.1455C13.577 0.705078 0.145508 14.1365 0.145508 30.7051V200.705C0.145508 217.274 13.577 230.705 30.1455 230.705H234.146C250.714 230.705 264.146 217.274 264.146 200.705V30.7051C264.146 14.1365 250.714 0.705078 234.146 0.705078Z" fill="url(#paint0_radial)"/>
<path d="M0.132324 75.4122L99.4651 0.643066H188.5L0.132427 149L0.132324 75.4122Z" fill="#8EC3D3"/>
<path d="M55.3517 55.4278L57.288 53.8528L58.2724 55.0629C58.9589 55.907 59.656 56.0412 60.3635 55.4657C61.0709 54.8902 61.0814 54.1805 60.3948 53.3364L58.0625 50.4692C57.3659 49.6128 56.6638 49.4723 55.9563 50.0479C55.2488 50.6234 55.2434 51.3393 55.9401 52.1958L56.2581 52.5867L54.3218 54.1618L48.5454 46.2999L53.9447 41.9079L55.4591 43.7698L51.9031 46.6624L54.2647 49.9079C54.1345 48.9619 54.4729 48.1608 55.2797 47.5045C56.7939 46.2727 58.3588 46.6498 59.9742 48.6358L62.3368 51.5402C63.195 52.5952 63.5957 53.6202 63.5388 54.6152C63.4719 55.5978 62.9419 56.493 61.9489 57.301C60.956 58.108 59.9717 58.445 58.996 58.311C58.0103 58.164 57.0883 57.563 56.2301 56.5077L55.3517 55.4278ZM59.9667 41.9903L65.6918 49.028C66.3878 49.8844 67.0898 50.0249 67.7978 49.4494C68.5048 48.8739 68.5108 48.1579 67.8138 47.3015L62.0891 40.2638C61.3925 39.4074 60.6904 39.2669 59.9829 39.8424C59.2754 40.4179 59.27 41.1339 59.9667 41.9903ZM63.5374 50.5636L58.0247 43.7866C57.1766 42.744 56.7872 41.7201 56.8564 40.715C56.9257 39.7099 57.4631 38.7984 58.4684 37.9806C59.4738 37.1628 60.4756 36.8223 61.4737 36.9591C62.4719 37.0959 63.395 37.6856 64.2428 38.7282L69.7558 45.5052C70.6038 46.5478 70.9938 47.5717 70.9238 48.5768C70.8548 49.5819 70.3178 50.4934 69.3118 51.3112C68.3068 52.129 67.3048 52.4695 66.3068 52.3327C65.3088 52.1959 64.3858 51.6062 63.5374 50.5636ZM65.7658 35.4475L69.4008 39.9159C69.8448 40.462 70.2908 40.5533 70.7378 40.1899C71.1838 39.8264 71.1858 39.3716 70.7418 38.8255L67.1068 34.3571C66.6628 33.811 66.2168 33.7196 65.7698 34.0831C65.3228 34.4466 65.3218 34.9014 65.7658 35.4475ZM68.0218 40.8829L64.5388 36.6008C63.9933 35.9305 63.7419 35.2791 63.7842 34.6465C63.8265 34.014 64.1708 33.4352 64.8158 32.9102C65.4608 32.3852 66.0978 32.1663 66.7258 32.2537C67.3538 32.341 67.9408 32.7198 68.4858 33.3901L71.9688 37.6722C72.5138 38.3425 72.7658 38.9939 72.7228 39.6264C72.6808 40.259 72.3368 40.8378 71.6918 41.3628C71.0458 41.8878 70.4098 42.1067 69.7818 42.0193C69.1538 41.932 68.5668 41.5532 68.0218 40.8829ZM75.4928 46.036L70.0298 28.8233L71.2408 27.8389L76.7028 45.0515L75.4928 46.036ZM76.1038 34.9585L79.7388 39.4269C80.1828 39.973 80.6278 40.0643 81.0748 39.7009C81.5218 39.3374 81.5228 38.8826 81.0788 38.3364L77.4438 33.8681C76.9998 33.322 76.5548 33.2306 76.1078 33.5941C75.6608 33.9576 75.6598 34.4124 76.1038 34.9585ZM78.3598 40.3939L74.8758 36.1117C74.3308 35.4415 74.0798 34.7901 74.1218 34.1575C74.1638 33.525 74.5078 32.9462 75.1538 32.4212C75.7988 31.8961 76.4358 31.6773 77.0638 31.7647C77.6918 31.852 78.2778 32.2308 78.8228 32.901L82.3068 37.1832C82.8518 37.8535 83.1028 38.5049 83.0608 39.1374C83.0188 39.77 82.6748 40.3488 82.0288 40.8738C81.3838 41.3988 80.7468 41.6177 80.1188 41.5303C79.4908 41.443 78.9048 41.0642 78.3598 40.3939ZM65.9658 70.843C65.1078 69.788 64.7058 68.774 64.7598 67.801C64.8048 66.816 65.3238 65.92 66.3168 65.112C67.3098 64.305 68.2928 63.979 69.2658 64.136C70.2288 64.281 71.1398 64.881 71.9978 65.936L72.3308 66.345L70.3948 67.92L69.9558 67.38C69.2588 66.524 68.5698 66.373 67.8868 66.929C67.2038 67.484 67.2108 68.19 67.9078 69.046C68.3018 69.53 68.8118 69.879 69.4378 70.091C70.0548 70.291 70.6968 70.408 71.3638 70.443C72.0438 70.467 72.7388 70.51 73.4488 70.572C74.1488 70.621 74.8678 70.82 75.6058 71.169C76.3328 71.505 76.9738 72.015 77.5298 72.698C78.3878 73.753 78.7878 74.778 78.7318 75.773C78.6648 76.755 78.1348 77.65 77.1418 78.458C76.1488 79.266 75.1638 79.602 74.1888 79.468C73.2028 79.321 72.2808 78.72 71.4228 77.665L70.7718 76.865L72.7078 75.289L73.4648 76.22C74.1518 77.064 74.8488 77.199 75.5558 76.623C76.2638 76.048 76.2738 75.338 75.5878 74.494C75.1938 74.01 74.6888 73.668 74.0718 73.468C73.4458 73.256 72.7928 73.137 72.1128 73.113C71.4448 73.078 70.7618 73.036 70.0618 72.987C69.3508 72.925 68.6328 72.726 67.9048 72.39C67.1678 72.041 66.5208 71.525 65.9658 70.843ZM75.1888 58.143L87.8748 69.479L85.8088 71.16L83.5318 69.084L81.0178 71.128L82.5878 73.781L80.7068 75.31L72.1908 60.581L75.1888 58.143ZM75.4658 61.754L79.8398 69.148L81.8138 67.542L75.4658 61.754ZM79.2818 54.8136L89.4928 64.172L82.4098 52.2692L84.2898 50.7396L92.8808 65.408L89.8268 67.892L77.2148 56.4946L79.2818 54.8136ZM88.8078 50.1579L91.7618 53.7884L94.5728 51.5016L96.0868 53.3634L93.2758 55.6503L96.3808 59.467L99.9178 56.5895L101.433 58.451L95.8468 62.995L85.2458 49.962L90.8308 45.4186L92.3458 47.2804L88.8078 50.1579Z" fill="white"/>
<path d="M176.93 85.726C178.666 85.978 179.968 86.734 180.836 87.994C181.704 89.254 182.138 90.906 182.138 92.95V93.748H179.072V92.74C179.072 91.396 178.792 90.36 178.232 89.632C177.672 88.904 176.818 88.54 175.67 88.54C174.55 88.54 173.71 88.904 173.15 89.632C172.59 90.36 172.31 91.396 172.31 92.74C172.31 93.72 172.506 94.588 172.898 95.344C173.318 96.072 173.822 96.716 174.41 97.276C174.998 97.808 175.81 98.466 176.846 99.25C178.022 100.174 178.96 100.972 179.66 101.644C180.36 102.288 180.948 103.114 181.424 104.122C181.928 105.13 182.18 106.306 182.18 107.65C182.18 109.694 181.732 111.36 180.836 112.648C179.968 113.908 178.666 114.664 176.93 114.916V117.142H174.242V114.916C172.478 114.664 171.148 113.908 170.252 112.648C169.384 111.388 168.95 109.722 168.95 107.65V105.844H172.016V107.86C172.016 110.632 173.164 112.018 175.46 112.018C177.756 112.018 178.904 110.632 178.904 107.86C178.904 106.488 178.526 105.354 177.77 104.458C177.042 103.534 175.922 102.512 174.41 101.392C173.234 100.496 172.296 99.712 171.596 99.04C170.896 98.34 170.294 97.486 169.79 96.478C169.314 95.47 169.076 94.294 169.076 92.95C169.076 90.878 169.496 89.226 170.336 87.994C171.204 86.762 172.506 86.006 174.242 85.726V83.374H176.93V85.726ZM191.367 90.934C190.135 91.69 188.777 92.11 187.293 92.194V89.506C188.749 89.45 189.841 89.086 190.569 88.414C191.297 87.742 191.885 86.804 192.333 85.6H194.601V115H191.367V90.934ZM205.978 85.306C208.19 85.306 209.842 85.964 210.934 87.28C212.054 88.568 212.614 90.374 212.614 92.698V93.454C212.614 94.966 212.306 96.24 211.69 97.276C211.102 98.312 210.22 99.054 209.044 99.502C210.248 99.95 211.144 100.706 211.732 101.77C212.32 102.806 212.614 104.08 212.614 105.592V107.86C212.614 110.184 212.054 112.004 210.934 113.32C209.842 114.636 208.19 115.294 205.978 115.294C203.794 115.294 202.142 114.636 201.022 113.32C199.93 112.004 199.384 110.184 199.384 107.86V105.844H202.45V108.07C202.45 109.414 202.73 110.464 203.29 111.22C203.878 111.948 204.746 112.312 205.894 112.312C207.07 112.312 207.938 111.934 208.498 111.178C209.058 110.422 209.338 109.288 209.338 107.776V105.508C209.338 104.052 209.03 102.974 208.414 102.274C207.798 101.574 206.874 101.196 205.642 101.14H203.878V98.2H205.81C206.93 98.144 207.798 97.78 208.414 97.108C209.03 96.408 209.338 95.428 209.338 94.168V92.824C209.338 91.284 209.058 90.136 208.498 89.38C207.938 88.624 207.07 88.246 205.894 88.246C204.746 88.246 203.878 88.624 203.29 89.38C202.73 90.108 202.45 91.158 202.45 92.53V94.042H199.384V92.698C199.384 90.374 199.93 88.568 201.022 87.28C202.142 85.964 203.794 85.306 205.978 85.306ZM222.346 85.306C224.586 85.306 226.294 85.95 227.47 87.238C228.674 88.498 229.276 90.276 229.276 92.572V93.496C229.276 95.036 228.996 96.324 228.436 97.36C227.876 98.396 227.036 99.124 225.916 99.544C228.156 100.44 229.276 102.512 229.276 105.76V107.944C229.276 110.24 228.674 112.046 227.47 113.362C226.294 114.65 224.586 115.294 222.346 115.294C220.106 115.294 218.384 114.65 217.18 113.362C216.004 112.046 215.416 110.24 215.416 107.944V105.76C215.416 102.54 216.55 100.468 218.818 99.544C216.55 98.676 215.416 96.66 215.416 93.496V92.572C215.416 90.276 216.004 88.498 217.18 87.238C218.384 85.95 220.106 85.306 222.346 85.306ZM222.346 88.246C221.17 88.246 220.26 88.61 219.616 89.338C218.972 90.066 218.65 91.172 218.65 92.656V94.084C218.65 96.828 219.882 98.2 222.346 98.2C224.81 98.2 226.042 96.828 226.042 94.084V92.656C226.042 91.172 225.72 90.066 225.076 89.338C224.432 88.61 223.522 88.246 222.346 88.246ZM222.346 101.14C219.882 101.14 218.65 102.554 218.65 105.382V107.86C218.65 109.344 218.958 110.464 219.574 111.22C220.218 111.948 221.142 112.312 222.346 112.312C224.782 112.312 226.014 110.828 226.042 107.86V105.382C226.042 102.554 224.81 101.14 222.346 101.14Z" fill="#747474"/>
<path d="M96.8058 151.592C96.8058 148.563 97.4238 146.131 98.6608 144.296C99.9418 142.419 101.798 141.203 104.23 140.648V137.32H109.99V140.648C112.464 141.16 114.342 142.355 115.622 144.232C116.902 146.067 117.542 148.52 117.542 151.592V153H110.885V151.144C110.885 149.608 110.587 148.499 109.99 147.816C109.392 147.091 108.518 146.728 107.366 146.728C106.214 146.728 105.339 147.091 104.742 147.816C104.144 148.499 103.845 149.608 103.845 151.144C103.845 152.467 104.102 153.661 104.614 154.728C105.168 155.752 105.83 156.669 106.598 157.48C107.366 158.248 108.454 159.208 109.862 160.36C111.526 161.683 112.87 162.899 113.894 164.008C114.918 165.075 115.792 166.419 116.518 168.04C117.243 169.619 117.606 171.475 117.606 173.608C117.606 176.68 116.944 179.155 115.622 181.032C114.342 182.909 112.464 184.104 109.99 184.616V187.88H104.23V184.616C101.712 184.104 99.8138 182.909 98.5338 181.032C97.2538 179.155 96.6138 176.68 96.6138 173.608V170.536H103.27V174.056C103.27 176.957 104.486 178.408 106.918 178.408C109.35 178.408 110.566 176.957 110.566 174.056C110.566 172.733 110.288 171.56 109.734 170.536C109.222 169.469 108.582 168.552 107.814 167.784C107.046 166.973 105.958 165.992 104.55 164.84C102.886 163.517 101.542 162.323 100.518 161.256C99.4938 160.147 98.6188 158.803 97.8938 157.224C97.1678 155.603 96.8058 153.725 96.8058 151.592ZM121.924 151.336C121.924 143.571 125.509 139.688 132.677 139.688C136.09 139.688 138.693 140.669 140.485 142.632C142.277 144.552 143.173 147.325 143.173 150.952V152.104H136.517V150.504C136.517 147.56 135.301 146.088 132.869 146.088C131.546 146.088 130.565 146.493 129.925 147.304C129.285 148.115 128.965 149.544 128.965 151.592V159.784C130.202 157.139 132.378 155.816 135.493 155.816C138.053 155.816 139.994 156.691 141.317 158.44C142.639 160.189 143.301 162.728 143.301 166.056V174.248C143.301 177.832 142.383 180.605 140.549 182.568C138.714 184.531 136.069 185.512 132.613 185.512C129.157 185.512 126.511 184.531 124.677 182.568C122.842 180.605 121.924 177.832 121.924 174.248V151.336ZM132.613 162.216C130.181 162.216 128.965 163.688 128.965 166.632V174.696C128.965 177.597 130.181 179.048 132.613 179.048C135.045 179.048 136.26 177.597 136.26 174.696V166.632C136.26 163.688 135.045 162.216 132.613 162.216ZM168.42 173.864C168.42 181.629 164.836 185.512 157.668 185.512C154.254 185.512 151.652 184.552 149.86 182.632C148.068 180.669 147.172 177.875 147.172 174.248V173.096H153.828V174.696C153.828 177.64 155.044 179.112 157.476 179.112C158.798 179.112 159.78 178.707 160.42 177.896C161.06 177.085 161.38 175.656 161.38 173.608V165.416C160.142 168.061 157.966 169.384 154.852 169.384C152.292 169.384 150.35 168.509 149.028 166.76C147.705 165.011 147.044 162.472 147.044 159.144V150.952C147.044 147.368 147.961 144.595 149.796 142.632C151.63 140.669 154.276 139.688 157.732 139.688C161.188 139.688 163.833 140.669 165.668 142.632C167.502 144.595 168.42 147.368 168.42 150.952V173.864ZM157.732 162.984C160.164 162.984 161.38 161.512 161.38 158.568V150.504C161.38 147.603 160.164 146.152 157.732 146.152C155.3 146.152 154.084 147.603 154.084 150.504V158.568C154.084 161.512 155.3 162.984 157.732 162.984Z" fill="#1F4BCE"/>
<path d="M162 103H238" stroke="#535353" stroke-width="2"/>
<defs>
<radialGradient id="paint0_radial" cx="0" cy="0" r="1" gradientUnits="userSpaceOnUse" gradientTransform="translate(131.699 115.705) rotate(41.912) scale(172.159 680.477)">
<stop stop-color="#FBD3AD"/>
<stop offset="0.572917" stop-color="#EFB3B3"/>
<stop offset="1" stop-color="#E79CB1"/>
</radialGradient>
</defs>
</svg>
